<?xml version="1.0" encoding="UTF-8"?>
<svg  height="40px" viewBox="0 0 396 122" version="1.1" xmlns="http://www.w3.org/2000/svg" xmlns:xlink="http://www.w3.org/1999/xlink">
    <title>logo-with-text</title>
    <g id="logo-with-text" stroke="none" stroke-width="1" fill="none" fill-rule="evenodd">
        <path d="M61,11 L121.704576,111 L61,100.716709 L61,11 Z M61,11 L49.3841974,86.4944869 L0.29542425,111 L61,11 Z" id="Combined-Shape" fill="#0A2229"></path>
        <g id="Group-13" transform="translate(121.704576, 35.242424)" fill="#0A2229">
            <path d="M7.78855949,30.0819237 C7.78855949,33.923975 8.86903442,37.047886 11.0299843,39.460185 C13.2464268,41.9018625 16.040646,43.1227012 19.4093775,43.1227012 C23.0098725,43.1227012 25.9183413,41.944298 28.1347838,39.5842274 C30.3544906,37.1458142 31.4610798,34.0447532 31.4610798,30.287573 C31.4610798,26.5303928 30.3544906,23.4325961 28.1347838,20.9909186 C25.9183413,18.6047338 23.039251,17.4132735 19.4942486,17.4132735 C16.1548956,17.4132735 13.3606764,18.6177909 11.1181197,21.0300899 C8.89841289,23.4750317 7.78855949,26.4912215 7.78855949,30.0819237 L7.78855949,30.0819237 Z M31.428437,10.1731122 L40.7283557,10.1731122 L40.7283557,50.2388201 L31.428437,50.2388201 L31.428437,46.0442271 C27.6157641,49.6088151 23.5158351,51.3911091 19.1286499,51.3911091 C13.5891757,51.3911091 9.00939823,49.3901087 5.38931756,45.3848436 C1.79861537,41.3012359 0,36.1991745 0,30.0819237 C0,24.0756582 1.79861537,19.0715251 5.38931756,15.06626 C8.98328403,11.0642592 13.4781903,9.05999449 18.880565,9.05999449 C23.5452136,9.05999449 27.7267495,10.979388 31.428437,14.8214394 L31.428437,10.1731122 Z" id="Fill-4"></path>
            <polygon id="Fill-6" points="51.5670535 50.2407787 60.7233441 50.2407787 60.7233441 0.000326427472 51.5670535 0.000326427472"></polygon>
            <polygon id="Fill-8" points="81.2487771 10.17148 81.2487771 0 71.9945583 0 71.9945583 10.17148 68.0447858 10.17148 68.0447858 18.8120152 71.991294 18.8120152 71.991294 18.8087509 76.5384287 18.8087509 71.9945583 23.1959362 71.9945583 50.2404522 81.2487771 50.2404522 81.2487771 18.8120152 88.4465029 18.8120152 88.4465029 10.17148"></polygon>
            <path d="M144.31685,10.17148 L153.613504,10.17148 L153.613504,13.8731676 C156.8484,10.6643855 160.497859,9.06162663 164.558617,9.06162663 C169.220002,9.06162663 172.853139,10.527286 175.458031,13.461869 C177.707116,15.9590391 178.833291,20.0295897 178.833291,25.6800492 L178.833291,50.2404522 L169.533372,50.2404522 L169.533372,27.8605847 C169.533372,23.9108123 168.984974,21.1818787 167.891442,19.6737837 C166.82076,18.1395746 164.871988,17.3692058 162.04839,17.3692058 C158.976707,17.3692058 156.796172,18.3843952 155.506783,20.4147741 C154.243509,22.4157745 153.613504,25.915077 153.613504,30.9061531 L153.613504,50.2404522 L144.31685,50.2404522 L144.31685,10.17148 Z" id="Fill-9"></path>
            <path d="M189.671988,10.17148 L198.968643,10.17148 L198.968643,13.8731676 C202.203539,10.6643855 205.852998,9.06162663 209.913756,9.06162663 C214.57514,9.06162663 218.208278,10.527286 220.813169,13.461869 C223.062255,15.9590391 224.188429,20.0295897 224.188429,25.6800492 L224.188429,50.2404522 L214.888511,50.2404522 L214.888511,27.8605847 C214.888511,23.9108123 214.340112,21.1818787 213.24658,19.6737837 C212.175898,18.1395746 210.227126,17.3692058 207.403529,17.3692058 C204.331846,17.3692058 202.151311,18.3843952 200.861922,20.4147741 C199.598648,22.4157745 198.968643,25.915077 198.968643,30.9061531 L198.968643,50.2404522 L189.671988,50.2404522 L189.671988,10.17148 Z" id="Fill-10"></path>
            <path d="M100.538029,30.1645098 C100.538029,34.0065612 101.618504,37.1304721 103.779454,39.5427711 C105.995897,41.9844486 108.790116,43.2052874 112.158847,43.2052874 C115.759342,43.2052874 118.667811,42.0268842 120.884254,39.6668136 C123.10396,37.2284003 124.21055,34.1273394 124.21055,30.3701592 C124.21055,26.6129789 123.10396,23.5151822 120.884254,21.0735047 C118.667811,18.6873199 115.788721,17.4958597 112.243718,17.4958597 C108.904365,17.4958597 106.110146,18.700377 103.867589,21.112676 C101.647883,23.5576178 100.538029,26.5738077 100.538029,30.1645098 L100.538029,30.1645098 Z M124.177907,10.2556983 L133.477825,10.2556983 L133.477825,50.3214062 L124.177907,50.3214062 L124.177907,46.1268132 C120.365234,49.6914012 116.265305,51.4736952 111.87812,51.4736952 C106.338645,51.4736952 101.758868,49.4726948 98.1387874,45.4674297 C94.5480852,41.3838221 92.7494698,36.2817607 92.7494698,30.1645098 C92.7494698,24.1582444 94.5480852,19.1541112 98.1387874,15.1488461 C101.732754,11.1468453 106.22766,9.14258064 111.630035,9.14258064 C116.294683,9.14258064 120.476219,11.0619742 124.177907,14.9040255 L124.177907,10.2556983 Z" id="Fill-11"></path>
            <path d="M240.924039,30.2059661 C240.924039,34.0480175 242.004514,37.1719284 244.165464,39.5842274 C246.381907,42.0259049 249.176126,43.2467436 252.544857,43.2467436 C256.145352,43.2467436 259.053821,42.0683405 261.270264,39.7082698 C263.489971,37.2698566 264.59656,34.1687956 264.59656,30.4116154 C264.59656,26.6544352 263.489971,23.5566385 261.270264,21.114961 C259.053821,18.7287762 256.174731,17.5373159 252.629729,17.5373159 C249.290375,17.5373159 246.496156,18.7418333 244.2536,21.1541323 C242.033893,23.5990741 240.924039,26.6152639 240.924039,30.2059661 L240.924039,30.2059661 Z M264.563917,10.2971546 L273.863836,10.2971546 L273.863836,50.3628625 L264.563917,50.3628625 L264.563917,46.1682695 C260.751244,49.7328575 256.651315,51.5151515 252.26413,51.5151515 C246.724656,51.5151515 242.144878,49.5141511 238.524797,45.508886 C234.934095,41.4252784 233.13548,36.323217 233.13548,30.2059661 C233.13548,24.1997006 234.934095,19.1955675 238.524797,15.1903024 C242.118764,11.1883016 246.61367,9.18403693 252.016045,9.18403693 C256.680693,9.18403693 260.862229,11.1034305 264.563917,14.9454818 L264.563917,10.2971546 Z" id="Fill-12"></path>
        </g>
    </g>
</svg>