<?xml version="1.0" encoding="UTF-8"?>
<svg width="266px" height="55px" viewBox="0 0 266 55" version="1.1" xmlns="http://www.w3.org/2000/svg" xmlns:xlink="http://www.w3.org/1999/xlink">
    <title>credit-agricole</title>
    <g  stroke="none" stroke-width="1" fill="none" fill-rule="evenodd">
        <g id="Homepage" transform="translate(-440.000000, -5162.000000)" fill="#0A2229" fill-rule="nonzero">
            <g id="credit-agricole" transform="translate(440.213107, 5162.125394)">
                <polygon  points="30.4534133 41.1471402 31.0848708 41.0811808 31.7490775 40.9815498 33.3099631 40.7822878 35.0364391 40.4165129 36.7965867 40.0184502 38.5239852 39.5202952 40.3173432 38.9884686 42.1102399 38.3579336 43.4723247 37.925738 44.0369004 37.6605166 44.5682657 37.3284133 45.0327491 36.896679 45.4644834 36.4317343 45.797048 35.8671587 54.398524 17.800738 68.1803506 52.1397601 68.3468635 52.5387454 68.5793358 52.9035978 68.8782288 53.2361624 69.2098708 53.501845 69.6088561 53.7343173 70.0069188 53.8666974 70.4386531 53.9667897 70.8703875 53.9667897 82.5936347 54 61.1402214 8.00369004 48.4534133 8.00369004"></polygon>
                <polygon  points="90.5645756 10.7601476 90.5645756 2.45756458 69.6088561 13.8819188 69.4091328 13.9815498 68.9773985 14.1471402 68.5129151 14.2804428 68.0811808 14.2804428 67.7158672 14.2140221 67.3168819 14.0811808 66.9852399 13.9483395 66.8523985 13.8819188 67.0179889 14.4132841 67.3505535 15.4760148 67.7822878 16.5719557 68.3468635 17.6678967 69.0110701 18.6642066 69.7080258 19.4944649 70.3722325 20.0922509 70.9700185 20.4243542 71.5345941 20.5571956 72.099631 20.5571956 72.6305351 20.4907749 73.0295203 20.3579336 73.3611624 20.2250923 73.4940037 20.1254613 90.5645756 10.7601476"></polygon>
                <path d="M132.575185,39.2546125 L132.342712,39.2546125 L132.14345,39.2878229 L131.944649,39.3210332 L131.811808,39.3879151 L131.645756,39.4866236 L131.512915,39.5867159 L131.380074,39.7190959 L131.280443,39.8851476 L129.686347,42.5751845 L136.892528,42.5751845 L136.892528,47.3247232 L136.327952,47.4903137 L135.829797,47.6236162 L135.364852,47.722786 L134.866697,47.8228782 L134.402214,47.9225092 L133.770756,47.9884686 L133.272601,48.0553506 L132.841328,48.0885609 L131.412823,48.0885609 L130.915129,48.021679 L130.217712,47.9552583 L129.785517,47.8892989 L129.353782,47.7892066 L128.922048,47.6904982 L128.490314,47.5571956 L128.092251,47.3911439 L127.594096,47.1254613 L127.195572,46.8929889 L126.863469,46.6273063 L126.530904,46.3616236 L126.199262,46.0622694 L125.900369,45.7633764 L125.601476,45.4317343 L125.368542,45.0659594 L125.069649,44.5678044 L124.870849,44.1697417 L124.704336,43.7380074 L124.571494,43.3058118 L124.471863,42.8740775 L124.372694,42.4091328 L124.306273,41.9778598 L124.272601,41.5129151 L124.272601,40.1840406 L124.339022,39.7527675 L124.439114,39.3542435 L124.571494,38.922048 L124.704336,38.5239852 L124.870849,38.1254613 L125.069649,37.726476 L125.236162,37.4940037 L125.501384,37.1291513 L125.800277,36.7965867 L126.099631,36.4644834 L126.431734,36.1660517 L126.763838,35.900369 L127.228782,35.601476 L127.626845,35.3690037 L128.058579,35.1365314 L128.523985,34.9704797 L128.95572,34.8039668 L129.586255,34.6383764 L130.08441,34.5382841 L130.583026,34.4723247 L131.047509,34.4059041 L131.545664,34.3726937 L132.043819,34.3390221 L132.542435,34.3058118 L133.006919,34.3058118 L133.505074,34.3390221 L134.003229,34.3726937 L134.501384,34.4391144 L134.999539,34.5059963 L135.497694,34.5714945 L135.995849,34.6715867 L136.494004,34.7380074 L136.992159,34.8371771 L137.490314,34.9704797 L137.988469,35.0696494 L138.486624,35.202952 L138.951568,35.3353321 L139.449723,35.4686347 L139.682196,35.5345941 L139.682196,32.0807196 L139.11762,31.9146679 L138.652675,31.7490775 L138.15452,31.6157749 L137.656365,31.5166052 L137.191421,31.4165129 L136.693266,31.3173432 L136.195111,31.2177122 L135.298432,31.0853321 L134.800277,31.0184502 L134.302122,30.9520295 L133.803967,30.9183579 L133.305812,30.8851476 L132.841328,30.8519373 L130.316882,30.8519373 L129.819188,30.8851476 L129.321033,30.9183579 L128.822878,30.9852399 L128.357472,31.0516605 L127.892528,31.1176199 L127.394373,31.2509225 L126.929889,31.3833026 L126.298432,31.5498155 L125.833948,31.6826568 L125.402214,31.8482472 L124.937269,32.0479705 L124.538745,32.2472325 L124.10655,32.4464945 L123.708487,32.7121771 L123.309502,32.9446494 L122.845018,33.277214 L122.479705,33.5751845 L122.114391,33.8740775 L121.781827,34.2066421 L121.450185,34.5714945 L121.11762,34.904059 L120.852399,35.2689114 L120.586716,35.6678967 L120.320572,36.0659594 L120.088561,36.4644834 L119.789668,37.029059 L119.623616,37.4285055 L119.457103,37.8929889 L119.291513,38.3247232 L119.191882,38.7896679 L119.059041,39.2546125 L118.99262,39.7190959 L118.926199,40.1840406 L118.892989,40.7822878 L118.892989,41.7121771 L118.958948,42.1766605 L119.025369,42.6752768 L119.09179,43.1397601 L119.224631,43.6047048 L119.324262,44.0696494 L119.490775,44.501845 L119.656827,44.9335793 L119.888838,45.4317343 L120.088561,45.8634686 L120.320572,46.2615314 L120.553044,46.6605166 L120.819188,47.0585793 L121.11762,47.4243542 L121.383764,47.7892066 L121.715406,48.1217712 L122.114391,48.4866236 L122.512454,48.7859779 L122.911439,49.0516605 L123.343173,49.3173432 L123.774908,49.5498155 L124.206181,49.7822878 L124.638376,50.0147601 L125.103321,50.1803506 L125.535055,50.3796125 L125.999539,50.5461255 L126.530904,50.7117159 L127.029059,50.8118081 L127.527214,50.9109779 L128.02583,50.9778598 L128.523985,51.0442804 L129.02214,51.1111624 L129.553506,51.1434502 L130.017989,51.2098708 L130.549815,51.2435424 L131.047509,51.2435424 L131.910978,51.2767528 L132.409133,51.2435424 L132.874077,51.2435424 L133.372232,51.2098708 L133.903598,51.1766605 L134.402214,51.1434502 L134.899908,51.0774908 L135.398063,51.0110701 L135.896679,50.9441882 L136.427583,50.9109779 L136.892528,50.8118081 L137.391144,50.7453875 L137.888838,50.6452952 L138.386993,50.5461255 L138.885148,50.4792435 L139.383303,50.3468635 L139.881458,50.2135609 L140.379613,50.1143911 L140.877768,49.9810886 L141.309502,49.8487085 L141.309502,39.2546125 L132.575185,39.2546125 L132.575185,39.2546125 Z M152.368542,7.63837638 L152.733856,7.67158672 L153.16559,7.77121771 L153.497694,7.87084871 L153.763376,7.9704797 L154.062269,8.13653137 L154.294742,8.30258303 L154.527214,8.50184502 L154.759686,8.73431734 L154.992159,9.03321033 L155.125461,9.33210332 L155.257841,9.59778598 L155.324262,9.89667897 L155.390683,10.2287823 L155.390683,10.6937269 L155.357472,10.9926199 L155.291052,11.2583026 L155.191882,11.5571956 L155.025369,11.8228782 L154.826107,12.0885609 L154.626845,12.3542435 L154.294742,12.6531365 L153.99631,12.8523985 L153.663745,13.0184502 L153.331642,13.1180812 L152.999539,13.2509225 L152.667435,13.3173432 L152.302122,13.3505535 L149.014299,13.3505535 L148.848247,13.3837638 L148.648985,13.4501845 L148.516144,13.4833948 L148.350554,13.5830258 L148.217251,13.7158672 L148.11762,13.8487085 L148.051199,13.9151292 L146.556734,16.6383764 L151.273063,16.6051661 L156.054889,23.7453875 L161.700646,23.7453875 L156.220941,15.4095941 L156.686347,15.2767528 L157.08441,15.1107011 L157.482934,14.9114391 L158.014299,14.6457565 L158.379613,14.4132841 L158.711716,14.1808118 L159.043819,13.9151292 L159.343173,13.6162362 L159.608395,13.2841328 L159.940498,12.8523985 L160.17297,12.5202952 L160.372232,12.1549815 L160.505074,11.7896679 L160.637915,11.4575646 L160.737546,11.0922509 L160.771218,10.6605166 L160.804428,10.2619926 L160.804428,9.96309963 L160.771218,9.56457565 L160.704336,9.16605166 L160.604705,8.76752768 L160.471863,8.36900369 L160.339022,7.9704797 L160.13976,7.57195572 L159.907288,7.20664207 L159.641605,6.84132841 L159.376384,6.50922509 L159.07703,6.2103321 L158.778137,5.91143911 L158.446033,5.64575646 L158.08072,5.3800738 L157.715406,5.18081181 L157.316882,4.98154982 L156.918358,4.81549815 L156.519834,4.68265683 L156.12131,4.5498155 L155.689576,4.4501845 L155.257841,4.41697417 L154.826107,4.38376384 L154.394373,4.35055351 L154.029059,4.38376384 L140.01476,4.38376384 L140.01476,23.7453875 L145.062269,23.7453875 L145.062269,7.63837638 L152.069649,7.60516605 L152.368542,7.63837638 L152.368542,7.63837638 Z M176.346402,3.18819188 L179.10286,0 L174.386993,0 L172.826107,3.18819188 L176.346402,3.18819188 Z M228.15452,23.8118081 L233.235701,23.8118081 L233.235701,7.87084871 L238.915129,7.87084871 L239.08072,7.83763838 L239.279982,7.80442804 L239.412823,7.77121771 L239.545664,7.70479705 L239.645295,7.63837638 L239.712177,7.53874539 L239.811347,7.43911439 L239.844557,7.33948339 L239.910978,7.20664207 L239.944188,7.1402214 L239.977399,7.10701107 L240.907288,4.48339483 L222.641605,4.48339483 L222.475554,4.5498155 L222.342712,4.58302583 L222.209871,4.68265683 L222.07703,4.78228782 L221.977399,4.88191882 L221.877768,5.01476015 L221.811347,5.14760148 L221.778137,5.21402214 L220.482934,7.87084871 L228.15452,7.87084871 L228.15452,23.8118081 L228.15452,23.8118081 Z M161.700646,42.2103321 L162.09917,42.0770295 L162.497694,41.9446494 L162.863007,41.7453875 L163.361162,41.4797048 L163.693266,41.2804428 L163.992159,41.0147601 L164.291052,40.7490775 L164.556734,40.4497232 L164.789207,40.1185424 L165.021679,39.7859779 L165.220941,39.420203 L165.353782,39.0221402 L165.486624,38.6236162 L165.586255,38.224631 L165.652675,37.7933579 L165.686347,37.3616236 L165.686347,36.9958487 L165.652675,36.5641144 L165.586255,36.1660517 L165.519834,35.7670664 L165.386993,35.3690037 L165.254151,35.0032288 L165.054889,34.6047048 L164.888838,34.3390221 L164.656365,33.9741697 L164.390683,33.6420664 L164.09179,33.3427122 L163.792897,33.0438192 L163.294742,32.6789668 L162.896218,32.4464945 L162.497694,32.2472325 L162.065959,32.0479705 L161.368542,31.8159594 L160.903598,31.6826568 L160.405443,31.5825646 L159.940498,31.4833948 L159.475554,31.4165129 L158.977399,31.3500923 L158.479244,31.3173432 L157.981089,31.2841328 L145.593635,31.2841328 L145.593635,50.6785055 L150.674815,50.6785055 L150.674815,34.8039668 L157.449723,34.8039668 L157.682196,34.8371771 L158.014299,34.8708487 L158.346402,34.9372694 L158.645756,35.0364391 L159.043819,35.2366236 L159.309502,35.3690037 L159.508764,35.5345941 L159.708026,35.701107 L159.907288,35.9995387 L160.04059,36.2652214 L160.17297,36.5641144 L160.272601,36.8634686 L160.339022,37.1291513 L160.372232,37.3948339 L160.372232,37.5608856 L160.339022,37.8265683 L160.305812,38.1254613 L160.206181,38.3579336 L160.073801,38.6572878 L159.907288,38.9552583 L159.708026,39.1877306 L159.376384,39.5535055 L159.07703,39.7190959 L158.778137,39.9183579 L158.479244,40.0516605 L158.114391,40.1840406 L157.781827,40.2509225 L157.449723,40.3173432 L154.195111,40.3173432 L154.062269,40.3505535 L153.929428,40.4165129 L153.763376,40.4833948 L153.630535,40.5498155 L153.497694,40.6489852 L153.364852,40.7490775 L153.265683,40.8491697 L153.16559,40.9478782 L153.09917,41.0811808 L151.771218,43.5714945 L156.187731,43.5714945 L161.268911,50.6785055 L166.781827,50.6785055 L161.235701,42.3427122 L161.700646,42.2103321 L161.700646,42.2103321 Z M102.520295,31.2509225 L92.6563653,50.6785055 L98.103321,50.6785055 L100.129151,46.2947417 L106.04059,46.2947417 L106.272601,46.228321 L106.505074,46.1623616 L106.704336,46.0622694 L106.904059,45.9298893 L107.069649,45.7633764 L107.235701,45.5973247 L107.368542,45.398524 L107.402214,45.3316421 L108.929889,42.8085793 L101.723247,42.8085793 L105.774446,34.3058118 L113.081181,50.6130074 L118.328413,50.6130074 L109.361624,31.2509225 L102.520295,31.2509225 L102.520295,31.2509225 Z M218.225092,4.41697417 L213.276753,4.41697417 L213.276753,23.8118081 L218.225092,23.8118081 L218.225092,4.41697417 Z M119.357934,20.9889299 L119.723247,21.3210332 L120.088561,21.6199262 L120.453875,21.9188192 L120.852399,22.1845018 L121.250923,22.4497232 L121.648985,22.7158672 L122.08072,22.9483395 L122.512454,23.1476015 L122.845018,23.2804428 L123.309502,23.4132841 L123.774908,23.5793358 L124.239852,23.7121771 L124.738007,23.8450185 L125.202491,23.9446494 L125.701107,24.0110701 L126.16559,24.1107011 L126.763838,24.1771218 L127.261531,24.2103321 L127.759686,24.2435424 L128.257841,24.2435424 L128.756458,24.2767528 L129.254613,24.2767528 L129.752768,24.2435424 L130.483395,24.2103321 L130.98155,24.1771218 L131.479244,24.1439114 L131.944649,24.0774908 L132.442343,24.0110701 L132.907749,23.9114391 L133.372232,23.8118081 L133.870387,23.7121771 L134.335332,23.6125461 L134.833487,23.4464945 L135.298432,23.3468635 L135.763376,23.1808118 L136.228321,23.0147601 L136.593635,22.9151292 L136.593635,19.2619926 L136.394373,19.3616236 L135.929889,19.5276753 L135.464483,19.7269373 L134.999539,19.8597786 L134.534594,20.0258303 L134.069649,20.1586716 L133.571494,20.2583026 L132.874077,20.3911439 L132.442343,20.4575646 L131.944649,20.5239852 L131.479244,20.5904059 L131.01476,20.6236162 L130.516144,20.6568266 L129.519834,20.6568266 L129.055351,20.6900369 L128.623155,20.6568266 L128.158672,20.6236162 L127.726937,20.5571956 L127.261531,20.4575646 L126.830258,20.3247232 L126.332103,20.1918819 L125.933118,20.0590406 L125.535055,19.8929889 L125.169742,19.6937269 L124.804428,19.4612546 L124.471863,19.2287823 L124.13976,18.9630996 L123.708487,18.5645756 L123.442804,18.2324723 L123.176661,17.900369 L122.911439,17.5350554 L122.712177,17.1697417 L122.546125,16.7712177 L122.379613,16.3726937 L122.213561,15.7416974 L122.114391,15.3099631 L122.04797,14.8450185 L122.04797,13.5166052 L122.114391,13.0848708 L122.213561,12.4538745 L122.313653,12.0553506 L122.446033,11.6236162 L122.578875,11.2250923 L122.778598,10.8597786 L122.97786,10.4944649 L123.309502,10.0295203 L123.608395,9.69741697 L123.907288,9.39852399 L124.272601,9.099631 L124.605166,8.83394834 L124.97048,8.56826568 L125.567804,8.23616236 L125.96679,8.03690037 L126.431734,7.87084871 L126.863469,7.73800738 L127.327952,7.60516605 L127.95941,7.47232472 L128.423893,7.43911439 L128.922048,7.37269373 L130.383303,7.37269373 L131.081181,7.40590406 L131.579336,7.43911439 L132.077491,7.50553506 L132.575185,7.57195572 L133.006919,7.63837638 L133.505074,7.73800738 L133.970018,7.83763838 L134.468635,7.9704797 L134.933118,8.0701107 L135.398063,8.23616236 L135.863469,8.36900369 L136.09548,8.46863469 L136.660517,8.63468635 L136.693266,5.01476015 L136.394373,4.94833948 L135.929889,4.81549815 L135.464483,4.64944649 L134.966328,4.51660517 L134.501384,4.41697417 L134.003229,4.28413284 L133.538284,4.18450185 L133.04059,4.08487085 L132.476015,3.98523985 L131.977399,3.91881919 L131.512915,3.85239852 L131.01476,3.78597786 L130.516144,3.75276753 L130.017989,3.7195572 L128.092251,3.7195572 L127.626845,3.75276753 L127.129151,3.78597786 L126.630996,3.85239852 L126.16559,3.91881919 L125.701107,4.01845018 L125.236162,4.11808118 L124.770756,4.25092251 L124.306273,4.38376384 L123.774908,4.5498155 L123.343173,4.71586716 L122.911439,4.88191882 L122.446033,5.08118081 L122.04797,5.31365314 L121.616236,5.54612546 L121.217251,5.77859779 L120.819188,6.04428044 L120.453875,6.34317343 L120.088561,6.64206642 L119.755996,6.94095941 L119.424354,7.27306273 L119.09179,7.60516605 L118.792897,7.9704797 L118.494465,8.33579336 L118.228321,8.73431734 L117.9631,9.099631 L117.763838,9.53136531 L117.531365,9.9298893 L117.265221,10.5608856 L117.099631,10.9926199 L116.966328,11.4243542 L116.833487,11.8892989 L116.734317,12.3542435 L116.634686,12.8191882 L116.601476,13.4833948 L116.568266,13.9483395 L116.568266,14.8782288 L116.634686,15.3431734 L116.701107,15.8081181 L116.767066,16.2730627 L116.899908,16.704797 L117.03321,17.1697417 L117.265221,17.8339483 L117.464945,18.2656827 L117.664207,18.6642066 L117.896679,19.095941 L118.129151,19.4944649 L118.394834,19.8597786 L118.660055,20.2250923 L118.958948,20.6236162 L119.357934,20.9889299 L119.357934,20.9889299 Z M170.468173,50.6785055 L175.582565,50.6785055 L175.582565,31.3173432 L170.501384,31.3173432 L170.468173,50.6785055 L170.468173,50.6785055 Z M231.541974,31.3173432 L226.792897,31.3173432 L226.792897,50.6785055 L241.903598,50.6785055 L243.364852,47.224631 L231.541974,47.224631 L231.541974,31.3173432 Z M185.346402,20.4243542 L169.837638,20.4243542 L169.837638,7.70479705 L184.615775,7.70479705 L183.386993,4.38376384 L164.922509,4.38376384 L164.922509,23.7453875 L183.685886,23.7453875 L185.346402,20.4243542 Z M256.416513,47.1586716 L250.13976,47.1586716 L250.13976,34.6383764 L264.918358,34.6383764 L263.755996,31.2509225 L245.058579,31.2509225 L245.058579,50.6452952 L264.15452,50.6452952 L265.682196,47.1586716 L256.416513,47.1586716 L256.416513,47.1586716 Z" id="Shape"></path>
                <path d="M253.726476,39.0885609 L253.594096,39.1217712 L253.427583,39.1217712 L253.228321,39.1545203 L253.062269,39.220941 L252.929428,39.3210332 L252.763376,39.420203 L252.630535,39.5535055 L252.597325,39.6199262 L250.671587,42.4760148 L259.13976,42.4760148 L259.272601,42.4428044 L259.438653,42.4091328 L259.604705,42.3427122 L259.770756,42.2767528 L259.903598,42.1766605 L260.036439,42.0442804 L260.10286,41.9446494 L262.1619,39.0885609 L253.726476,39.0885609 L253.726476,39.0885609 Z M224.933118,40.3505535 L224.899908,39.8846863 L224.833487,39.5198339 L224.766605,39.0548893 L224.666974,38.623155 L224.534133,38.1582103 L224.401292,37.7255535 L224.20203,37.2938192 L224.035978,36.8620849 L223.803967,36.4630996 L223.571033,36.0650369 L223.27214,35.6669742 L222.973708,35.3011993 L222.674815,34.9363469 L222.342712,34.570572 L222.010609,34.2389299 L221.645756,33.9063653 L221.279982,33.6074723 L220.847786,33.3085793 L220.449262,33.0428967 L220.017528,32.7781365 L219.585793,32.5456642 L219.120387,32.3454797 L218.688653,32.1130074 L218.256458,31.947417 L217.791513,31.7818266 L217.326568,31.6153137 L216.861624,31.4829336 L216.396679,31.349631 L215.898524,31.2504613 L215.433579,31.150369 L214.935424,31.0511993 L214.437269,31.0179889 L213.972325,30.9847786 L213.506919,30.9515683 L213.075185,30.9515683 L212.909133,30.9183579 L212.676661,30.9183579 L212.278137,30.9515683 L211.880535,30.9515683 L211.414668,30.9847786 L210.949723,31.0179889 L210.451568,31.0511993 L209.986624,31.1171587 L209.488469,31.2172509 L209.023524,31.3173432 L208.558579,31.4165129 L208.093635,31.5498155 L207.628229,31.6821956 L207.196956,31.847786 L206.76476,32.0479705 L206.299354,32.2472325 L205.901292,32.4464945 L205.435886,32.7453875 L205.070572,32.9778598 L204.672509,33.2767528 L204.307657,33.5747232 L203.941882,33.8736162 L203.609317,34.2061808 L203.277214,34.5710332 L202.978782,34.9035978 L202.646218,35.3353321 L202.380535,35.701107 L202.115314,36.0991697 L201.88238,36.4972325 L201.683118,36.9298893 L201.520295,37.3616236 L201.320572,37.7933579 L201.187731,38.2583026 L201.02214,38.8897601 L200.955258,39.3547048 L200.889299,39.8528598 L200.822417,40.3178044 L200.822417,41.6457565 L200.889299,42.1439114 L200.921587,42.6088561 L201.021679,43.0738007 L201.12131,43.5396679 L201.220941,43.9714022 L201.386993,44.4695572 L201.553044,44.9345018 L201.752306,45.3662362 L201.951568,45.7642989 L202.184041,46.1969557 L202.449723,46.5950185 L202.848247,47.1932657 L203.146679,47.5581181 L203.478782,47.8906827 L203.811808,48.2555351 L204.14345,48.5880996 L204.508764,48.8869926 L204.940959,49.2186347 L205.339022,49.4843173 L205.737546,49.7167897 L206.16928,49.9824723 L206.601476,50.1817343 L207.066421,50.4142066 L207.498616,50.5807196 L207.964022,50.7799815 L208.594557,50.945572 L209.059502,51.0788745 L209.557657,51.1780443 L210.055812,51.2781365 L210.520756,51.3450185 L211.018911,51.4109779 L211.483856,51.4441882 L211.982011,51.5110701 L212.480166,51.5110701 L212.9119,51.5442804 L213.443266,51.5442804 L213.941421,51.5110701 L214.439576,51.4778598 L214.937731,51.4446494 L215.402675,51.3777675 L216.199723,51.2453875 L216.664668,51.1452952 L217.130074,51.0461255 L217.595018,50.9128229 L218.059963,50.7804428 L218.524908,50.5811808 L218.957565,50.4146679 L219.388838,50.2154059 L220.019834,49.8837638 L220.451568,49.650369 L220.850092,49.4178967 L221.215406,49.1531365 L221.581181,48.8542435 L221.946033,48.5553506 L222.278598,48.222786 L222.610701,47.8911439 L223.042897,47.3597786 L223.308118,46.9617159 L223.573801,46.5627306 L223.806734,46.1309963 L224.005535,45.7329336 L224.205258,45.3002768 L224.370849,44.8353321 L224.5369,44.4035978 L224.636531,43.9386531 L224.769373,43.4737085 L224.836255,43.0087638 L224.902675,42.5438192 L224.969096,42.0456642 L225.002306,41.5807196 L225.002306,41.3150369 L224.969096,40.8500923 L224.933118,40.3505535 L224.933118,40.3505535 Z M219.486624,41.1803506 L219.486624,41.5793358 L219.453875,42.0442804 L219.386993,42.5092251 L219.320572,42.8740775 L219.220941,43.3390221 L219.120849,43.8039668 L218.95572,44.2366236 L218.789207,44.6683579 L218.623155,45.1000923 L218.390683,45.5318266 L218.158672,45.8976015 L217.859779,46.2292435 L217.560886,46.5281365 L217.262454,46.8270295 L216.929889,47.1259225 L216.531827,47.3583948 L216.166513,47.5908672 L215.767989,47.7564576 L215.369465,47.8897601 L214.970941,48.0221402 L214.572878,48.1222325 L213.941882,48.2214022 L213.476937,48.2546125 L212.61393,48.2546125 L212.148063,48.1877306 L211.716328,48.1217712 L211.284594,48.021679 L210.852399,47.8892989 L210.420664,47.7559963 L209.988469,47.5904059 L209.490314,47.3247232 L209.125461,47.0922509 L208.792897,46.8265683 L208.461255,46.5276753 L208.1619,46.2287823 L207.696956,45.6642066 L207.464483,45.3316421 L207.26476,44.9667897 L207.065498,44.5678044 L206.899446,44.1697417 L206.733856,43.7380074 L206.601015,43.3053506 L206.501845,42.8736162 L206.401753,42.2430812 L206.334871,41.7781365 L206.334871,40.8805351 L206.401753,40.3164207 L206.468635,39.8182657 L206.534594,39.353321 L206.634686,38.9206642 L206.767528,38.4557196 L206.933118,38.0576568 L207.09917,37.6259225 L207.331642,37.2601476 L207.530904,36.8620849 L207.829797,36.5295203 L208.09548,36.1978782 L208.393911,35.8989852 L208.726015,35.6333026 L209.22417,35.2675277 L209.589483,35.0682657 L209.988007,34.8690037 L210.386531,34.7034133 L210.785055,34.5701107 L211.183118,34.470941 L211.847325,34.3708487 L212.478321,34.3039668 L212.910055,34.3039668 L213.109779,34.2707565 L213.773524,34.3376384 L214.571033,34.470941 L214.969096,34.5701107 L215.401292,34.7034133 L215.799815,34.8690037 L216.165129,35.0345941 L216.563192,35.2670664 L216.895756,35.4995387 L217.22786,35.7652214 L217.559963,36.0641144 L217.858856,36.3630074 L218.157749,36.695572 L218.38976,37.0604244 L218.622232,37.4261993 L218.788284,37.824262 L218.954797,38.2223247 L219.119926,38.62131 L219.220018,39.0193727 L219.286439,39.3519373 L219.35286,39.8168819 L219.419742,40.2818266 L219.486162,40.7135609 L219.486162,41.1803506 L219.486624,41.1803506 L219.486624,41.1803506 Z M173.656365,12.3210332 L173.490314,12.3210332 L173.291513,12.3542435 L173.058579,12.3874539 L172.892528,12.4870849 L172.693266,12.5535055 L172.560886,12.6863469 L172.394373,12.8523985 L170.335332,15.6420664 L178.538284,15.6420664 L178.737546,15.6088561 L178.936808,15.5756458 L179.10286,15.5092251 L179.302122,15.4095941 L179.468173,15.2767528 L179.601476,15.1771218 L179.733856,15.0110701 L179.833487,14.9114391 L181.626845,12.3210332 L173.656365,12.3210332 L173.656365,12.3210332 Z M201.719096,23.4132841 L202.382841,23.2472325 L202.848247,23.0811808 L203.279982,22.9151292 L203.712177,22.7490775 L204.143911,22.5166052 L204.808118,22.1512915 L205.206181,21.9188192 L205.571494,21.6863469 L205.970018,21.4206642 L206.302122,21.1217712 L206.634686,20.7896679 L206.933118,20.4907749 L207.331642,20.0258303 L207.597325,19.6605166 L207.829797,19.295203 L208.062269,18.8971402 L208.294742,18.4654059 L208.461255,18.0336716 L208.660055,17.5355166 L208.759686,17.0373616 L208.892528,16.572417 L208.992159,16.1074723 L209.059041,15.6425277 L209.092251,15.1780443 L209.125461,14.6798893 L209.158672,14.248155 L209.191882,13.8159594 L209.191882,13.4501845 L209.158672,13.0184502 L209.09179,12.5535055 L209.024908,12.0885609 L208.925277,11.6568266 L208.792435,11.1918819 L208.659594,10.7596863 L208.493542,10.327952 L208.29428,9.89575646 L208.095018,9.49769373 L207.862546,9.09916974 L207.596863,8.70064576 L207.264299,8.23570111 L206.965867,7.87038745 L206.633764,7.53828413 L206.301199,7.20618081 L205.935886,6.90728782 L205.570572,6.6748155 L205.205258,6.40913284 L204.839945,6.17666052 L204.441882,5.94418819 L204.076568,5.74446494 L203.678044,5.54520295 L203.27952,5.37915129 L202.847786,5.21356089 L202.449262,5.08071956 L202.017066,4.94787823 L201.619465,4.8150369 L201.186808,4.7154059 L200.755074,4.61577491 L200.322878,4.54935424 L199.924815,4.48293358 L199.49262,4.44972325 L199.094096,4.41651292 L198.662362,4.38330258 L198.52952,4.38330258 L198.263838,4.41651292 L188.001845,4.41651292 L188.001845,23.7785978 L199.359779,23.7785978 L199.824723,23.7453875 L200.290129,23.6789668 L200.755074,23.6125461 L201.253229,23.5129151 L201.719096,23.4132841 L201.719096,23.4132841 Z M200.523524,20.1254613 L200.125461,20.2583026 L199.726476,20.3579336 L199.327952,20.4243542 L198.930351,20.4907749 L192.984779,20.4907749 L192.984779,7.63837638 L197.867159,7.63837638 L198.332565,7.67158672 L198.531827,7.67158672 L198.764299,7.70433579 L199.162823,7.80396679 L199.594557,7.90359779 L199.993081,8.03643911 L200.391605,8.20202952 L200.790129,8.40175277 L201.154982,8.60101476 L201.520756,8.83348708 L201.885609,9.09916974 L202.184502,9.39806273 L202.450185,9.6300738 L202.748616,9.96263838 L202.98155,10.2947417 L203.214022,10.6600554 L203.379613,11.025369 L203.579797,11.423893 L203.712177,11.7892066 L203.812269,12.220941 L203.878229,12.4870849 L203.97786,12.9188192 L204.044742,13.3505535 L204.044742,14.579797 L203.97786,15.0115314 L203.911439,15.4432657 L203.778598,15.875 L203.678967,16.2403137 L203.546125,16.672048 L203.380074,17.1037823 L203.180812,17.5023063 L202.948339,17.9008303 L202.715867,18.298893 L202.450185,18.6646679 L202.184502,18.9967712 L201.918819,19.295203 L201.586716,19.5276753 L201.254613,19.7601476 L200.88976,19.9594096 L200.523524,20.1254613 L200.523524,20.1254613 Z M198.530904,46.4940037 L198.166052,46.6273063 L197.667435,46.7596863 L197.202491,46.8929889 L196.704797,47.025369 L196.206181,47.1254613 L195.741236,47.224631 L195.243081,47.3247232 L194.745387,47.3579336 L194.313192,47.4243542 L193.815037,47.4903137 L193.350092,47.523524 L192.885148,47.5571956 L192.386993,47.5571956 L191.922048,47.523524 L191.423893,47.4903137 L190.792897,47.4571033 L190.361162,47.3911439 L189.896679,47.3247232 L189.497694,47.224631 L189.066421,47.0585793 L188.667435,46.9261993 L188.202491,46.6937269 L187.803967,46.4940037 L187.471863,46.2615314 L187.10655,46.029059 L186.774446,45.7633764 L186.375923,45.3316421 L186.11024,45.0004613 L185.844557,44.6678967 L185.612085,44.3021218 L185.412823,43.9372694 L185.246771,43.5392066 L185.047509,42.8740775 L184.948339,42.4091328 L184.915129,41.9446494 L184.881458,41.5129151 L184.881458,41.0479705 L184.915129,40.5830258 L184.948339,40.1508303 L185.01476,39.7190959 L185.08072,39.2878229 L185.213561,38.8892989 L185.346402,38.4903137 L185.512454,38.1254613 L185.778137,37.6605166 L186.010609,37.2947417 L186.276292,36.9298893 L186.575185,36.6309963 L186.874077,36.3321033 L187.206642,36.0327491 L187.571494,35.7670664 L187.970018,35.5345941 L188.368542,35.3353321 L188.800277,35.1365314 L189.232011,34.9704797 L189.663745,34.8371771 L190.1619,34.7380074 L190.627306,34.6715867 L191.09179,34.6047048 L191.589945,34.5714945 L192.054889,34.5382841 L192.685886,34.5714945 L193.15083,34.6047048 L193.682196,34.6715867 L194.180351,34.704797 L194.645295,34.8039668 L195.14345,34.8708487 L195.641605,34.9704797 L196.10655,35.103321 L196.604705,35.2366236 L197.069649,35.3690037 L197.567804,35.5013838 L198.032749,35.6678967 L198.497694,35.8339483 L198.530904,35.8339483 L199.062269,36.0327491 L199.062269,32.3131919 L198.896679,32.2472325 L198.530904,32.1139299 L198.431273,32.0807196 L197.966328,31.9146679 L197.468635,31.7490775 L197.003229,31.6157749 L196.405443,31.4833948 L195.940498,31.3833026 L195.442343,31.2841328 L194.944188,31.2177122 L194.446033,31.1508303 L193.482934,31.0516605 L192.984779,31.0184502 L192.487085,30.9852399 L191.988469,30.9520295 L191.390683,30.9183579 L190.427583,30.9183579 L189.929428,30.9520295 L189.431273,30.9852399 L188.667435,31.0853321 L188.16928,31.1508303 L187.704797,31.2509225 L187.239391,31.3500923 L186.774446,31.4833948 L186.342712,31.6489852 L185.745387,31.8814576 L185.313192,32.0479705 L184.881458,32.2804428 L184.483395,32.5129151 L184.051199,32.7453875 L183.685886,33.0110701 L183.220941,33.3759225 L182.855627,33.6752768 L182.523524,33.9741697 L182.15821,34.3058118 L181.859317,34.6715867 L181.560886,35.0364391 L181.12869,35.5678044 L180.863469,35.9995387 L180.630535,36.398524 L180.398063,36.8302583 L180.232011,37.2615314 L180.065959,37.5940959 L179.899908,38.0590406 L179.767066,38.4903137 L179.667435,38.9552583 L179.567804,39.420203 L179.468173,40.1840406 L179.434963,40.6489852 L179.434963,41.579797 L179.468173,42.1766605 L179.534594,42.6416052 L179.634225,43.1065498 L179.733856,43.5714945 L179.833487,44.0364391 L180.065959,44.6346863 L180.232011,45.0659594 L180.431273,45.4976937 L180.663745,45.896679 L180.896218,46.327952 L181.228321,46.8597786 L181.527675,47.224631 L181.826107,47.5904059 L182.125,47.9552583 L182.490314,48.2878229 L182.955258,48.6858856 L183.320572,48.9847786 L183.719096,49.2841328 L184.11762,49.5166052 L184.582565,49.8154982 L185.01476,50.0147601 L185.479244,50.2135609 L185.944188,50.3796125 L186.375923,50.5461255 L186.840867,50.6785055 L187.770756,50.8777675 L188.268911,50.9441882 L188.767066,51.0110701 L189.265221,51.0774908 L189.763376,51.1111624 L190.527214,51.1434502 L191.025369,51.1766605 L192.021679,51.1766605 L192.520295,51.1434502 L193.017989,51.1434502 L193.549354,51.0774908 L194.01476,51.0442804 L194.446033,51.0110701 L194.944188,50.9441882 L195.442343,50.8777675 L195.940498,50.7785978 L196.405443,50.6785055 L196.903598,50.5461255 L197.402214,50.4128229 L197.866697,50.2804428 L198.331642,50.1471402 L198.530904,50.0811808 L198.564114,50.0479705 L199.09548,49.8823801 L199.12869,46.2615314 L198.630535,46.4617159 L198.530904,46.4940037 L198.530904,46.4940037 Z" id="Shape"></path>
                <polygon  points="90.5645756 24.6420664 90.5645756 14.8118081 83.6568266 18.7306273 76.9815498 22.4833948 70.7375461 25.9372694 65.0585793 29.0258303 59.9446494 31.7490775 55.3611624 34.1065498 51.1771218 36.1328413 47.423893 37.8265683 43.904059 39.3210332 40.5498155 40.5498155 37.228321 41.6452952 34.0073801 42.5751845 30.7859779 43.3390221 27.6642066 44.00369 24.7080258 44.501845 21.9188192 44.900369 19.4280443 45.1660517 17.2024908 45.2984317 15.3431734 45.398524 13.7154059 45.3316421 11.2583026 45.0659594 9.56411439 44.6678967 8.3353321 44.1697417 7.33948339 43.5055351 6.54243542 42.7416974 5.91097786 41.8445572 5.54566421 40.8491697 5.41282288 39.6858856 5.54566421 38.2915129 6.04428044 36.6978782 6.84132841 34.9704797 7.90405904 33.2103321 9.23247232 31.4501845 10.726476 29.7564576 12.2541513 28.1951107 13.8154982 26.8339483 15.5092251 25.5055351 17.402214 24.0774908 19.3616236 22.7822878 21.2546125 21.6199262 23.2140221 20.5239852 25.2398524 19.4944649 27.2652214 18.597786 29.3247232 17.7675277 31.2841328 17.103321 33.1107011 16.5387454 34.7380074 16.1734317 36.2324723 15.9409594 37.7269373 15.8745387 39.2878229 16.0073801 40.1180812 16.1070111 39.6863469 14.5793358 38.9225092 11.9889299 38.324262 10.1623616 37.8597786 9.06642066 37.4944649 8.46863469 37.1291513 8.10332103 36.7301661 7.83763838 36.099631 7.60516605 35.103321 7.50553506 33.6752768 7.57195572 31.8819188 7.80442804 29.8560886 8.23616236 27.7633764 8.83394834 25.5714945 9.63053506 23.4464945 10.5276753 21.420203 11.4575646 19.4607934 12.4870849 17.5350554 13.5830258 15.5756458 14.8118081 13.5498155 16.1734317 11.5571956 17.601476 9.79704797 19.0295203 8.23570111 20.3247232 6.84132841 21.6531365 5.47924354 23.0479705 4.21771218 24.5756458 3.05535055 26.1697417 2.02583026 27.797048 1.19557196 29.5571956 0.530904059 31.3173432 0.165590406 33.1102399 -5.68434189e-14 34.8371771 0.132841328 36.6978782 0.464483395 38.6572878 0.996309963 40.6157749 1.69326568 42.4760148 2.49031365 44.1697417 3.42066421 45.6642066 4.51660517 47.1254613 5.77813653 48.4534133 7.13976015 49.6162362 8.60101476 50.6130074 10.2287823 51.4091328 12.1549815 52.1065498 14.4460332 52.7380074 16.9035978 53.1692804 19.4280443 53.4354244 21.9188192 53.501845 24.3099631 53.3685424 26.4686347 53.202952 28.5276753 52.9035978 30.5867159 52.5387454 32.6452952 52.1397601 34.5719557 51.6748155 36.4649446 51.2098708 38.4575646 50.6130074 40.5161439 50.0147601 42.5756458 49.3505535 44.6674354 48.6199262 46.7601476 47.8228782 48.8523985 46.9921587 50.9446494 46.095941 53.0701107 45.0991697 55.3284133 44.00369 56.6236162 43.3058118 58.3173432 42.4091328 60.6420664 41.1471402 64.029059 39.3210332 68.7121771 36.7301661 74.9225092 33.3095018 82.3616236 29.1582103 90.5645756 24.6420664"></polygon>
            </g>
        </g>
    </g>
</svg>