<?xml version="1.0" encoding="UTF-8"?>
<svg width="140px" height="42px" viewBox="0 0 140 42" version="1.1" xmlns="http://www.w3.org/2000/svg" xmlns:xlink="http://www.w3.org/1999/xlink">
    <title>enedis</title>
    <g  stroke="none" stroke-width="1" fill="none" fill-rule="evenodd">
        <g id="Homepage" transform="translate(-985.000000, -5168.000000)" fill="#0A2229" fill-rule="nonzero">
            <g id="enedis" transform="translate(985.893232, 5168.374394)">
                <path d="M63.5299894,21.7830608 C60.6516825,21.7830608 58.3029841,19.7408988 58.3029841,17.1717274 L58.3029841,16.3372956 L69.4477884,16.3372956 C73.2932063,16.3372956 76.4478307,13.5485368 76.4478307,10.1449336 L76.4478307,6.21432077 C76.4478307,2.78875879 73.3162328,0.0219587306 69.4477884,0.0219587306 L59.7306243,0.0219587306 C59.1779894,0.0219587306 58.648381,0.0219587306 58.095746,0.131752384 C54.9411217,0.790514303 52.730582,3.33772706 52.730582,6.21432077 L52.730582,8.49802875 C52.730582,9.02503829 53.1220317,9.44225417 53.6286138,9.44225417 L57.4049524,9.44225417 C57.8885079,9.44225417 58.3029841,9.02503829 58.3029841,8.49802875 L58.3029841,7.92710176 L58.3029841,7.0267938 C58.3029841,5.84102235 59.408254,4.8748382 60.7898413,4.8748382 L68.4115979,4.8748382 C69.7701587,4.8748382 70.898455,5.84102235 70.898455,7.0267938 L70.898455,9.35441925 C70.898455,10.5401907 69.7931852,11.5063749 68.4115979,11.5063749 L49.5529312,11.5063749 L49.5529312,16.3372956 L52.730582,16.3372956 L52.730582,17.1717274 C52.730582,22.3979052 57.589164,26.6359403 63.5530159,26.6359403 L79.6485079,26.6359403 L79.6485079,21.7830608 L63.5299894,21.7830608 Z" ></path>
                <path d="M38.7765503,4.8748382 C41.6548571,4.8748382 44.0035556,6.96091761 44.0035556,9.50813036 L44.0035556,25.7795498 C44.0035556,26.2406831 44.4410582,26.6359403 44.9936931,26.6359403 L48.5627937,26.6359403 C49.1154286,26.6359403 49.5529312,26.2626418 49.5529312,25.7795498 L49.5529312,9.50813036 C49.5529312,4.28195247 44.7173757,0.0219587306 38.7765503,0.0219587306 L27.2863492,0.0219587306 C26.8027937,0.0219587306 26.3883175,0.439174613 26.3883175,0.966184148 L26.3883175,25.6917148 C26.3883175,26.2187244 26.7797672,26.6359403 27.2863492,26.6359403 L31.0626878,26.6359403 C31.5462434,26.6359403 31.9607196,26.2187244 31.9607196,25.6917148 L31.9607196,4.8748382 L38.7765503,4.8748382 Z" ></path>
                <path d="M7.5757037,4.8748382 L22.2205291,4.8748382 C22.7501376,4.8748382 23.1876402,4.50153978 23.1876402,4.04040644 L23.1876402,0.856390495 C23.1876402,0.395257151 22.773164,0.0219587306 22.2205291,0.0219587306 L7.46057143,0.0219587306 C3.36186243,0.0219587306 0,2.96442864 0,6.56566046 L0,20.1141973 C0,23.7154291 3.33883598,26.657899 7.46057143,26.657899 L22.2205291,26.657899 C22.7501376,26.657899 23.1876402,26.2846006 23.1876402,25.8234672 L23.1876402,22.6394513 C23.1876402,22.1783179 22.7501376,21.8050195 22.2205291,21.8050195 L7.5757037,21.8050195 C6.49346032,21.8050195 5.59542857,20.9925465 5.59542857,20.0263623 L5.59542857,16.3153369 L14.3454815,16.3153369 C14.8750899,16.3153369 15.3125926,15.9420384 15.3125926,15.4809051 L15.3125926,12.3627653 C15.3125926,11.901632 14.8750899,11.5283336 14.3454815,11.5283336 L5.59542857,11.5283336 L5.59542857,6.65349538 C5.59542857,5.68731123 6.49346032,4.8748382 7.5757037,4.8748382" ></path>
                <path d="M138.181757,17.4571909 C138.181757,17.2156448 138.181757,16.9740988 138.15873,16.710594 C137.882413,13.7461654 134.681735,11.5063749 131.319873,11.5063749 L122.96127,11.5063749 L122.754032,11.5063749 C121.418497,11.5063749 120.336254,10.3645209 120.336254,8.98112083 L120.336254,7.18050492 C120.336254,5.90689854 121.510603,4.8748382 122.984296,4.8748382 L126.277079,4.8748382 L126.300106,4.8748382 L134.635683,4.8748382 C135.073185,4.8748382 135.441608,4.63329216 135.579767,4.28195247 C135.62582,4.19411755 135.62582,4.10628263 135.62582,4.01844771 L135.62582,0.856390495 C135.62582,0.395257151 135.188317,0 134.635683,0 L121.625735,0 C117.849397,0 114.740825,2.70092387 114.740825,6.03865092 L114.740825,9.81555259 C114.740825,13.4167844 117.573079,16.3372956 121.073101,16.3372956 L130.191577,16.3372956 C131.527111,16.3372956 132.609354,17.4791496 132.609354,18.8625496 L132.609354,19.4554353 C132.609354,20.7290417 131.435005,21.7611021 129.984339,21.7611021 L115.753989,21.7611021 C115.316487,21.7611021 114.948063,22.0026481 114.809905,22.3539878 C114.763852,22.4418227 114.763852,22.5296576 114.763852,22.6174926 L114.763852,25.7795498 C114.763852,26.2406831 115.201354,26.6359403 115.753989,26.6359403 L127.405376,26.6359403 L131.365926,26.6359403 C135.142265,26.6359403 138.181757,23.9350164 138.181757,20.5972893 L138.181757,17.4571909 L138.181757,17.4571909 Z" ></path>
                <path d="M92.658455,0.0219587306 L80.5465397,0.0219587306 C80.0629841,0.0219587306 79.6485079,0.439174613 79.6485079,0.966184148 L79.6485079,16.6227591 C79.6485079,17.1497686 80.0399577,17.5669845 80.5465397,17.5669845 L84.3228783,17.5669845 C84.8064339,17.5669845 85.2209101,17.1497686 85.2209101,16.6227591 L85.2209101,4.8748382 L92.0367407,4.8748382 C94.9150476,4.8748382 97.263746,6.96091761 97.263746,9.50813036 L97.263746,18.0500766 C97.263746,20.5972893 94.9150476,21.7830608 92.0367407,21.7830608 L79.6485079,21.8050195 L79.6485079,26.657899 L92.0367407,26.657899 C97.9775661,26.657899 102.813122,23.3201719 102.813122,18.0720353 L102.813122,9.4642129 C102.813122,4.43566359 98.3920423,0.0219587306 92.658455,0.0219587306" ></path>
                <path d="M111.563175,16.7764702 L111.563175,7.8831843 C111.563175,7.35617476 111.171725,6.93895888 110.665143,6.93895888 L106.911831,6.93895888 C106.428275,6.93895888 106.013799,7.35617476 106.013799,7.8831843 L106.013799,16.7764702 L106.013799,25.6697561 C106.013799,26.1967656 106.405249,26.6139815 106.911831,26.6139815 L110.665143,26.6139815 C111.148698,26.6139815 111.563175,26.1967656 111.563175,25.6697561 L111.563175,16.7764702 Z" ></path>
                <path d="M111.563175,2.04216195 L111.563175,0.966184148 C111.563175,0.439174613 111.171725,0.0219587306 110.665143,0.0219587306 L106.911831,0.0219587306 C106.428275,0.0219587306 106.013799,0.439174613 106.013799,0.966184148 L106.013799,2.04216195 L106.013799,3.93061278 C106.013799,4.45762232 106.405249,4.8748382 106.911831,4.8748382 L110.665143,4.8748382 C111.148698,4.8748382 111.563175,4.45762232 111.563175,3.93061278 L111.563175,2.04216195 Z" ></path>
                <path d="M0.023026455,40.9749914 L0.023026455,34.4312896 C0.023026455,34.2995372 0.0921058201,34.1897436 0.253291005,34.1238674 C0.391449735,34.0579912 0.575661376,34.0140737 0.782899471,34.0140737 C0.990137566,34.0140737 1.17434921,34.0579912 1.31250794,34.1238674 C1.45066667,34.1897436 1.51974603,34.2995372 1.51974603,34.4312896 L1.51974603,40.2503532 L4.32897354,40.2503532 C4.46713228,40.2503532 4.58226455,40.3162294 4.65134392,40.4260231 C4.72042328,40.5358167 4.76647619,40.6675691 4.76647619,40.8212802 C4.76647619,40.9749914 4.72042328,41.1067437 4.65134392,41.2165374 C4.58226455,41.326331 4.46713228,41.3922072 4.32897354,41.3922072 L0.667767196,41.3922072 C0.483555556,41.3922072 0.345396825,41.3482898 0.207238095,41.2824136 C0.0921058201,41.1945787 0.023026455,41.1067437 0.023026455,40.9749914" ></path>
                <path d="M8.31255026,40.9749914 L8.31255026,34.4312896 C8.31255026,34.2995372 8.38162963,34.2117023 8.4967619,34.1238674 C8.63492063,34.0579912 8.77307937,34.0140737 8.95729101,34.0140737 L13.056,34.0140737 C13.2171852,34.0140737 13.3323175,34.0799499 13.4013968,34.1897436 C13.4704762,34.2995372 13.5165291,34.4312896 13.5165291,34.5850007 C13.5165291,34.7387119 13.4704762,34.892423 13.4013968,35.0022166 C13.309291,35.1120103 13.1941587,35.1778865 13.056,35.1778865 L9.80926984,35.1778865 L9.80926984,37.1980897 L11.5592804,37.1980897 C11.6974392,37.1980897 11.8125714,37.2420072 11.9046772,37.3518008 C11.9967831,37.4615945 12.0198095,37.5713881 12.0198095,37.7250992 C12.0198095,37.8568516 11.9737566,37.9666453 11.9046772,38.0764389 C11.8125714,38.1862326 11.6974392,38.23015 11.5592804,38.23015 L9.80926984,38.23015 L9.80926984,40.2503532 L13.0790265,40.2503532 C13.2171852,40.2503532 13.3323175,40.3162294 13.4244233,40.4260231 C13.5165291,40.5358167 13.5395556,40.6895279 13.5395556,40.843239 C13.5395556,40.9969501 13.4935026,41.1287025 13.4244233,41.2384961 C13.3553439,41.3482898 13.2171852,41.414166 13.0790265,41.414166 L8.95729101,41.414166 C8.77307937,41.414166 8.63492063,41.3702485 8.4967619,41.3043723 C8.38162963,41.1945787 8.31255026,41.1067437 8.31255026,40.9749914" ></path>
                <path d="M15.128381,40.9749914 L15.128381,34.4312896 C15.128381,34.2995372 15.1974603,34.1897436 15.3586455,34.1238674 C15.4968042,34.0579912 15.6810159,34.0140737 15.888254,34.0140737 C16.0954921,34.0140737 16.2797037,34.0579912 16.4178624,34.1238674 C16.5560212,34.1897436 16.6251005,34.2995372 16.6251005,34.4312896 L16.6251005,40.2503532 L19.434328,40.2503532 C19.5724868,40.2503532 19.687619,40.3162294 19.7566984,40.4260231 C19.8257778,40.5358167 19.8718307,40.6675691 19.8718307,40.8212802 C19.8718307,40.9749914 19.8257778,41.1067437 19.7566984,41.2165374 C19.687619,41.326331 19.5724868,41.3922072 19.434328,41.3922072 L15.7961481,41.3922072 C15.6119365,41.3922072 15.4737778,41.3482898 15.335619,41.2824136 C15.1974603,41.1945787 15.128381,41.1067437 15.128381,40.9749914" ></path>
                <path d="M21.4146032,40.9749914 L21.4146032,34.4312896 C21.4146032,34.2995372 21.4836825,34.2117023 21.5988148,34.1238674 C21.7369735,34.0579912 21.8751323,34.0140737 22.0593439,34.0140737 L26.1580529,34.0140737 C26.3192381,34.0140737 26.4343704,34.0799499 26.5034497,34.1897436 C26.5725291,34.2995372 26.618582,34.4312896 26.618582,34.5850007 C26.618582,34.7387119 26.5725291,34.892423 26.5034497,35.0022166 C26.4113439,35.1120103 26.2962116,35.1778865 26.1580529,35.1778865 L22.9113228,35.1778865 L22.9113228,37.1980897 L24.6613333,37.1980897 C24.7994921,37.1980897 24.9146243,37.2420072 25.0067302,37.3518008 C25.098836,37.4615945 25.1218624,37.5713881 25.1218624,37.7250992 C25.1218624,37.8568516 25.0758095,37.9666453 25.0067302,38.0764389 C24.9146243,38.1862326 24.7994921,38.23015 24.6613333,38.23015 L22.9113228,38.23015 L22.9113228,40.2503532 L26.1810794,40.2503532 C26.3192381,40.2503532 26.4343704,40.3162294 26.5264762,40.4260231 C26.618582,40.5358167 26.6416085,40.6895279 26.6416085,40.843239 C26.6416085,40.9969501 26.5955556,41.1287025 26.5264762,41.2384961 C26.4573968,41.3482898 26.3192381,41.414166 26.1810794,41.414166 L22.0823704,41.414166 C21.8981587,41.414166 21.76,41.3702485 21.6218413,41.3043723 C21.4836825,41.1945787 21.4146032,41.1067437 21.4146032,40.9749914" ></path>
                <path d="M28.0692487,39.130458 L28.0692487,36.3197405 C28.0692487,35.5292262 28.3225397,34.9363404 28.8060952,34.563042 C29.2896508,34.1897436 29.9343915,33.992115 30.7403175,33.992115 C31.5462434,33.992115 32.2140106,34.1677849 32.7205926,34.5191246 C33.2271746,34.8704642 33.4804656,35.3315976 33.4804656,35.9025246 C33.4804656,36.1440706 33.4113862,36.3197405 33.296254,36.4075754 C33.1811217,36.4954103 32.9969101,36.5393278 32.7205926,36.5393278 C32.237037,36.5393278 31.983746,36.4075754 31.983746,36.1221119 C31.983746,36.034277 31.9607196,35.9684008 31.9607196,35.9025246 C31.9607196,35.8366484 31.9146667,35.7488135 31.8686138,35.6609785 C31.8225608,35.5511849 31.7534815,35.46335 31.6844021,35.3974738 C31.6153228,35.3315976 31.5001905,35.2657214 31.3390053,35.2218039 C31.1778201,35.1778865 30.9936085,35.1559277 30.7863704,35.1559277 C29.9804444,35.1559277 29.5659683,35.5511849 29.5659683,36.3197405 L29.5659683,39.130458 C29.5659683,39.8990136 29.9804444,40.2942707 30.8093968,40.2942707 C31.0626878,40.2942707 31.2699259,40.2503532 31.4311111,40.1844771 C31.5922963,40.1186009 31.7074286,40.0307659 31.7995344,39.8990136 C31.8686138,39.7672612 31.9146667,39.6574675 31.9607196,39.5696326 C31.983746,39.4817977 32.0067725,39.3500453 32.0067725,39.2182929 C32.0297989,38.9328294 32.2830899,38.801077 32.743619,38.801077 C33.0199365,38.801077 33.2041481,38.8449945 33.3192804,38.9328294 C33.4344127,39.0206643 33.5034921,39.1963342 33.5034921,39.4378802 C33.5034921,40.0527247 33.2502011,40.5358167 32.743619,40.8871564 C32.237037,41.2604549 31.5692698,41.4361247 30.7633439,41.4361247 C29.9804444,41.4361247 29.3357037,41.2604549 28.8521481,40.8871564 C28.3225397,40.513858 28.0692487,39.9209723 28.0692487,39.130458" ></path>
                <path d="M34.6548148,34.5850007 C34.6548148,34.4312896 34.7008677,34.2995372 34.7699471,34.1897436 C34.8390265,34.0799499 34.9771852,34.0140737 35.1153439,34.0140737 L39.9969524,34.0140737 C40.1581376,34.0140737 40.2732698,34.0799499 40.3423492,34.1897436 C40.4114286,34.2995372 40.4574815,34.4312896 40.4574815,34.5850007 C40.4574815,34.7387119 40.4114286,34.8704642 40.3423492,35.0022166 C40.2502434,35.1120103 40.1351111,35.1778865 39.9969524,35.1778865 L38.3160212,35.1778865 L38.3160212,40.9749914 C38.3160212,41.1067437 38.2469418,41.1945787 38.0857566,41.2824136 C37.9245714,41.3482898 37.7633862,41.3922072 37.5561481,41.3922072 C37.3489101,41.3922072 37.1646984,41.3482898 37.0265397,41.2824136 C36.888381,41.2165374 36.8193016,41.1067437 36.8193016,40.9749914 L36.8193016,35.1559277 L35.1153439,35.1559277 C34.9771852,35.1559277 34.8620529,35.0900516 34.7699471,34.9802579 C34.7008677,34.892423 34.6548148,34.7387119 34.6548148,34.5850007" ></path>
                <path d="M42.000254,40.9749914 L42.000254,34.4312896 C42.000254,34.321496 42.0463069,34.2336611 42.1384127,34.1458261 C42.2305185,34.0579912 42.3456508,34.0360325 42.4838095,34.0360325 L44.7634286,34.0360325 C46.5825185,34.0360325 47.5035767,34.7387119 47.5035767,36.1440706 C47.5035767,36.6930389 47.365418,37.1322135 47.0891005,37.4835532 C46.8127831,37.8129341 46.4443598,38.0544802 45.9838307,38.1642738 L47.5035767,40.6236517 C47.5496296,40.6675691 47.5726561,40.7114866 47.5726561,40.7773628 C47.5726561,40.9530326 47.4805503,41.1067437 47.2733122,41.2384961 C47.0660741,41.3922072 46.858836,41.4580834 46.6285714,41.4580834 C46.3983069,41.4580834 46.2371217,41.3482898 46.1219894,41.1506612 L44.4871111,38.3619024 L43.52,38.3619024 L43.52,40.9969501 C43.52,41.1287025 43.4509206,41.2165374 43.2897354,41.3043723 C43.1515767,41.3702485 42.9673651,41.414166 42.760127,41.414166 C42.5528889,41.414166 42.3917037,41.3702485 42.2305185,41.3043723 C42.0693333,41.1945787 42.000254,41.1067437 42.000254,40.9749914 M43.4969735,37.3078833 L44.7634286,37.3078833 C45.592381,37.3078833 46.0068571,36.9565437 46.0068571,36.2319055 C46.0068571,35.5072674 45.592381,35.1559277 44.7634286,35.1559277 L43.4969735,35.1559277 L43.4969735,37.3078833 Z" id="Shape"></path>
                <path d="M49.2766138,40.9749914 L49.2766138,34.4312896 C49.2766138,34.2995372 49.3456931,34.1897436 49.5068783,34.1238674 C49.645037,34.0579912 49.8292487,34.0140737 50.0364868,34.0140737 C50.2437249,34.0140737 50.4279365,34.0579912 50.5660952,34.1238674 C50.704254,34.1897436 50.7963598,34.2995372 50.7963598,34.4312896 L50.7963598,40.9749914 C50.7963598,41.1067437 50.7272804,41.1945787 50.5660952,41.2824136 C50.4279365,41.3482898 50.2437249,41.3922072 50.0364868,41.3922072 C49.8292487,41.3922072 49.645037,41.3482898 49.5068783,41.2824136 C49.3687196,41.1945787 49.2766138,41.1067437 49.2766138,40.9749914" ></path>
                <path d="M52.7996614,39.130458 L52.7996614,36.3197405 C52.7996614,35.5292262 53.0529524,34.9363404 53.5365079,34.563042 C54.0200635,34.1897436 54.6648042,33.992115 55.4707302,33.992115 C56.2766561,33.992115 56.9444233,34.1677849 57.4510053,34.5191246 C57.9575873,34.8704642 58.2108783,35.3315976 58.2108783,35.9025246 C58.2108783,36.1440706 58.1417989,36.3197405 58.0266667,36.4075754 C57.9115344,36.4954103 57.7273228,36.5393278 57.4510053,36.5393278 C56.9674497,36.5393278 56.7141587,36.4075754 56.7141587,36.1221119 C56.7141587,36.034277 56.6911323,35.9684008 56.6911323,35.9025246 C56.6911323,35.8366484 56.6450794,35.7488135 56.5990265,35.6609785 C56.5529735,35.5511849 56.4838942,35.46335 56.4148148,35.3974738 C56.3457354,35.3315976 56.2306032,35.2657214 56.069418,35.2218039 C55.9082328,35.1778865 55.7240212,35.1559277 55.5167831,35.1559277 C54.7108571,35.1559277 54.296381,35.5511849 54.296381,36.3197405 L54.296381,39.130458 C54.296381,39.8990136 54.7108571,40.2942707 55.5398095,40.2942707 C55.7931005,40.2942707 56.0003386,40.2503532 56.1615238,40.1844771 C56.322709,40.1186009 56.4378413,40.0307659 56.5299471,39.8990136 C56.5990265,39.7672612 56.6450794,39.6574675 56.6911323,39.5696326 C56.7371852,39.4817977 56.7371852,39.3500453 56.7371852,39.2182929 C56.7602116,38.9328294 57.0135026,38.801077 57.4740317,38.801077 C57.7503492,38.801077 57.9345608,38.8449945 58.0496931,38.9328294 C58.1648254,39.0206643 58.2339048,39.1963342 58.2339048,39.4378802 C58.2339048,40.0527247 57.9806138,40.5358167 57.4740317,40.8871564 C56.9674497,41.2604549 56.2996825,41.4361247 55.4937566,41.4361247 C54.7108571,41.4361247 54.0661164,41.2604549 53.5825608,40.8871564 C53.0529524,40.513858 52.7996614,39.9209723 52.7996614,39.130458" ></path>
                <path d="M59.9839153,40.9749914 L59.9839153,34.4312896 C59.9839153,34.2995372 60.0529947,34.1897436 60.2141799,34.1238674 C60.3523386,34.0579912 60.5365503,34.0140737 60.7437884,34.0140737 C60.9510265,34.0140737 61.1352381,34.0579912 61.2733968,34.1238674 C61.4115556,34.1897436 61.4806349,34.2995372 61.4806349,34.4312896 L61.4806349,40.9749914 C61.4806349,41.1067437 61.4115556,41.1945787 61.2503704,41.2824136 C61.0891852,41.3482898 60.928,41.3922072 60.7207619,41.3922072 C60.5135238,41.3922072 60.3293122,41.3482898 60.1911534,41.2824136 C60.0529947,41.1945787 59.9839153,41.1067437 59.9839153,40.9749914" ></path>
                <path d="M63.0234074,34.5850007 C63.0234074,34.4312896 63.0694603,34.2995372 63.1385397,34.1897436 C63.207619,34.0799499 63.3457778,34.0140737 63.4839365,34.0140737 L68.365545,34.0140737 C68.5267302,34.0140737 68.6418624,34.0799499 68.7109418,34.1897436 C68.7800212,34.2995372 68.8260741,34.4312896 68.8260741,34.5850007 C68.8260741,34.7387119 68.7800212,34.8704642 68.7109418,35.0022166 C68.618836,35.1120103 68.5037037,35.1778865 68.365545,35.1778865 L66.6846138,35.1778865 L66.6846138,40.9749914 C66.6846138,41.1067437 66.6155344,41.1945787 66.4543492,41.2824136 C66.293164,41.3482898 66.1319788,41.3922072 65.9247407,41.3922072 C65.7175026,41.3922072 65.533291,41.3482898 65.3951323,41.2824136 C65.2569735,41.2165374 65.1878942,41.1067437 65.1878942,40.9749914 L65.1878942,35.1559277 L63.4839365,35.1559277 C63.3457778,35.1559277 63.2306455,35.0900516 63.1385397,34.9802579 C63.0694603,34.892423 63.0234074,34.7387119 63.0234074,34.5850007" ></path>
                <path d="M70.3688466,40.9749914 L70.3688466,34.4312896 C70.3688466,34.2995372 70.4379259,34.2117023 70.5530582,34.1238674 C70.6912169,34.0579912 70.8293757,34.0140737 71.0135873,34.0140737 L75.1122963,34.0140737 C75.2734815,34.0140737 75.3886138,34.0799499 75.4576931,34.1897436 C75.5267725,34.2995372 75.5728254,34.4312896 75.5728254,34.5850007 C75.5728254,34.7387119 75.5267725,34.892423 75.4576931,35.0022166 C75.3655873,35.1120103 75.250455,35.1778865 75.1122963,35.1778865 L71.8425397,35.1778865 L71.8425397,37.1980897 L73.5925503,37.1980897 C73.730709,37.1980897 73.8458413,37.2420072 73.9379471,37.3518008 C74.0300529,37.4615945 74.0530794,37.5713881 74.0530794,37.7250992 C74.0530794,37.8568516 74.0070265,37.9666453 73.9379471,38.0764389 C73.8458413,38.1862326 73.730709,38.23015 73.5925503,38.23015 L71.8425397,38.23015 L71.8425397,40.2503532 L75.1122963,40.2503532 C75.250455,40.2503532 75.3655873,40.3162294 75.4576931,40.4260231 C75.5497989,40.5358167 75.5728254,40.6895279 75.5728254,40.843239 C75.5728254,40.9969501 75.5267725,41.1287025 75.4576931,41.2384961 C75.3886138,41.3482898 75.250455,41.414166 75.1122963,41.414166 L71.0366138,41.414166 C70.8524021,41.414166 70.7142434,41.3702485 70.5760847,41.3043723 C70.4379259,41.1945787 70.3688466,41.1067437 70.3688466,40.9749914" ></path>
                <path d="M80.2241693,40.9749914 L80.2241693,34.4312896 C80.2241693,34.2995372 80.2932487,34.2117023 80.408381,34.1238674 C80.5465397,34.0579912 80.6846984,34.0140737 80.8689101,34.0140737 L84.967619,34.0140737 C85.1288042,34.0140737 85.2439365,34.0799499 85.3130159,34.1897436 C85.3820952,34.2995372 85.4281481,34.4312896 85.4281481,34.5850007 C85.4281481,34.7387119 85.3820952,34.892423 85.3130159,35.0022166 C85.2209101,35.1120103 85.1057778,35.1778865 84.967619,35.1778865 L81.6978624,35.1778865 L81.6978624,37.1980897 L83.447873,37.1980897 C83.5860317,37.1980897 83.701164,37.2420072 83.7932698,37.3518008 C83.8853757,37.4615945 83.9314286,37.5713881 83.9314286,37.7250992 C83.9314286,37.8568516 83.8853757,37.9666453 83.8162963,38.0764389 C83.7472169,38.1862326 83.6090582,38.23015 83.4708995,38.23015 L81.7208889,38.23015 L81.7208889,40.2503532 L84.9906455,40.2503532 C85.1288042,40.2503532 85.2439365,40.3162294 85.3360423,40.4260231 C85.4281481,40.5358167 85.4511746,40.6895279 85.4511746,40.843239 C85.4511746,40.9969501 85.4051217,41.1287025 85.3360423,41.2384961 C85.266963,41.3482898 85.1288042,41.414166 84.9906455,41.414166 L80.8919365,41.414166 C80.7077249,41.414166 80.5695661,41.3702485 80.4314074,41.3043723 C80.2702222,41.1945787 80.2241693,41.1067437 80.2241693,40.9749914" ></path>
                <path d="M87.04,40.9749914 L87.04,34.4312896 C87.04,34.2995372 87.1090794,34.1897436 87.2702646,34.1238674 C87.4084233,34.0579912 87.5926349,34.0140737 87.799873,34.0140737 C88.0761905,34.0140737 88.2834286,34.0579912 88.4446138,34.1458261 C88.5827725,34.2336611 88.7439577,34.4312896 88.9281693,34.7167531 L91.1617354,38.4716961 L91.1617354,34.4093309 C91.1617354,34.2775785 91.2308148,34.1677849 91.3689735,34.1019087 C91.5071323,34.0360325 91.6913439,33.992115 91.898582,33.992115 C92.1058201,33.992115 92.2900317,34.0360325 92.4281905,34.1019087 C92.5663492,34.1677849 92.658455,34.2775785 92.658455,34.4093309 L92.658455,40.9530326 C92.658455,41.084785 92.5893757,41.1726199 92.4281905,41.2604549 C92.2900317,41.326331 92.1058201,41.3702485 91.898582,41.3702485 C91.4841058,41.3702485 91.2077884,41.2384961 91.0466032,40.9530326 L88.5367196,36.9126262 L88.5367196,40.9749914 C88.5367196,41.1067437 88.4676402,41.1945787 88.306455,41.2824136 C88.1682963,41.3482898 87.9840847,41.3922072 87.7768466,41.3922072 C87.5696085,41.3922072 87.3853968,41.3482898 87.2472381,41.2824136 C87.1090794,41.1945787 87.04,41.1067437 87.04,40.9749914" ></path>
                <path d="M97.7473016,40.9749914 L97.7473016,34.4312896 C97.7473016,34.321496 97.7933545,34.2336611 97.8854603,34.1458261 C97.9775661,34.0579912 98.0926984,34.0360325 98.2308571,34.0360325 L100.510476,34.0360325 C102.329566,34.0360325 103.250624,34.7387119 103.250624,36.1440706 C103.250624,36.6930389 103.112466,37.1322135 102.836148,37.4835532 C102.559831,37.8129341 102.191407,38.0544802 101.730878,38.1642738 L103.250624,40.6236517 C103.296677,40.6675691 103.319704,40.7114866 103.319704,40.7773628 C103.319704,40.9530326 103.227598,41.1067437 103.02036,41.2384961 C102.813122,41.3922072 102.605884,41.4580834 102.375619,41.4580834 C102.145354,41.4580834 101.984169,41.3482898 101.869037,41.1506612 L100.234159,38.3619024 L99.2670476,38.3619024 L99.2670476,40.9969501 C99.2670476,41.1287025 99.1979683,41.2165374 99.0367831,41.3043723 C98.8986243,41.3702485 98.7144127,41.414166 98.5071746,41.414166 C98.2999365,41.414166 98.1387513,41.3702485 97.9775661,41.3043723 C97.816381,41.1945787 97.7473016,41.1067437 97.7473016,40.9749914 M99.2440212,37.3078833 L100.510476,37.3078833 C101.339429,37.3078833 101.753905,36.9565437 101.753905,36.2319055 C101.753905,35.5072674 101.339429,35.1559277 100.510476,35.1559277 L99.2440212,35.1559277 L99.2440212,37.3078833 Z" id="Shape"></path>
                <path d="M105.023661,40.9749914 L105.023661,34.4312896 C105.023661,34.2995372 105.092741,34.2117023 105.207873,34.1238674 C105.346032,34.0579912 105.48419,34.0140737 105.668402,34.0140737 L109.767111,34.0140737 C109.928296,34.0140737 110.043429,34.0799499 110.112508,34.1897436 C110.204614,34.2995372 110.22764,34.4312896 110.22764,34.5850007 C110.22764,34.7387119 110.181587,34.892423 110.112508,35.0022166 C110.020402,35.1120103 109.90527,35.1778865 109.767111,35.1778865 L106.497354,35.1778865 L106.497354,37.1980897 L108.247365,37.1980897 C108.385524,37.1980897 108.500656,37.2420072 108.592762,37.3518008 C108.684868,37.4615945 108.707894,37.5713881 108.707894,37.7250992 C108.707894,37.8568516 108.661841,37.9666453 108.592762,38.0764389 C108.500656,38.1862326 108.385524,38.23015 108.247365,38.23015 L106.497354,38.23015 L106.497354,40.2503532 L109.767111,40.2503532 C109.90527,40.2503532 110.020402,40.3162294 110.112508,40.4260231 C110.204614,40.5358167 110.22764,40.6895279 110.22764,40.843239 C110.22764,40.9969501 110.181587,41.1287025 110.112508,41.2384961 C110.043429,41.3482898 109.90527,41.414166 109.767111,41.414166 L105.668402,41.414166 C105.48419,41.414166 105.346032,41.3702485 105.207873,41.3043723 C105.092741,41.1945787 105.023661,41.1067437 105.023661,40.9749914" ></path>
                <path d="M111.425016,40.2283945 C111.425016,40.0746834 111.494095,39.9209723 111.632254,39.7672612 C111.770413,39.6135501 111.908571,39.5257151 112.092783,39.5257151 C112.184889,39.5257151 112.300021,39.5696326 112.43818,39.6574675 C112.553312,39.7453024 112.691471,39.8331374 112.806603,39.942931 C112.921735,40.0527247 113.105947,40.1405596 113.313185,40.2283945 C113.54345,40.3162294 113.773714,40.3601469 114.050032,40.3601469 C114.418455,40.3601469 114.717799,40.2942707 114.97109,40.1405596 C115.224381,39.9868485 115.339513,39.7672612 115.339513,39.4817977 C115.339513,39.2841691 115.270434,39.1084993 115.132275,38.9547881 C114.994116,38.801077 114.832931,38.6693246 114.602667,38.559531 C114.372402,38.4497373 114.142138,38.3619024 113.888847,38.2521088 C113.635556,38.1642738 113.359238,38.0544802 113.105947,37.9227278 C112.82963,37.7909754 112.599365,37.659223 112.369101,37.5055119 C112.138836,37.3518008 111.977651,37.1541722 111.839492,36.8906675 C111.701333,36.6271627 111.632254,36.3416992 111.632254,36.034277 C111.632254,35.6829373 111.72436,35.3535563 111.885545,35.0680928 C112.04673,34.7826293 112.276995,34.5850007 112.553312,34.4312896 C112.82963,34.2775785 113.128974,34.1677849 113.451344,34.1019087 C113.773714,34.0360325 114.096085,33.992115 114.464508,33.992115 C114.671746,33.992115 114.878984,34.0140737 115.086222,34.0360325 C115.316487,34.0579912 115.546751,34.1019087 115.800042,34.1458261 C116.053333,34.2117023 116.260571,34.2775785 116.421757,34.4093309 C116.582942,34.5191246 116.652021,34.6728357 116.652021,34.8265468 C116.652021,34.9802579 116.605968,35.133969 116.490836,35.2876801 C116.375704,35.4413912 116.237545,35.5292262 116.053333,35.5292262 C115.984254,35.5292262 115.800042,35.46335 115.500698,35.3315976 C115.201354,35.1998452 114.855958,35.133969 114.464508,35.133969 C114.050032,35.133969 113.727661,35.1998452 113.497397,35.3315976 C113.267132,35.46335 113.152,35.6609785 113.152,35.9025246 C113.152,36.1001532 113.244106,36.275823 113.428317,36.4075754 C113.612529,36.5612865 113.842794,36.6710802 114.119111,36.7589151 C114.395429,36.84675 114.694772,36.9565437 115.017143,37.1102548 C115.339513,37.2420072 115.638857,37.3957183 115.892148,37.5494294 C116.168466,37.7031405 116.39873,37.9446865 116.582942,38.2521088 C116.767153,38.559531 116.859259,38.9108707 116.859259,39.3280866 C116.859259,40.0088072 116.605968,40.5577755 116.099386,40.9310739 C115.592804,41.3043723 114.925037,41.5020009 114.119111,41.5020009 C113.382265,41.5020009 112.76055,41.3702485 112.230942,41.1067437 C111.701333,40.8212802 111.425016,40.5358167 111.425016,40.2283945" ></path>
                <path d="M118.701376,40.9749914 L118.701376,34.4312896 C118.701376,34.2995372 118.770455,34.2117023 118.885587,34.1238674 C119.023746,34.0579912 119.161905,34.0140737 119.346116,34.0140737 L123.444825,34.0140737 C123.606011,34.0140737 123.721143,34.0799499 123.790222,34.1897436 C123.859302,34.2995372 123.905354,34.4312896 123.905354,34.5850007 C123.905354,34.7387119 123.859302,34.892423 123.790222,35.0022166 C123.698116,35.1120103 123.582984,35.1778865 123.444825,35.1778865 L120.175069,35.1778865 L120.175069,37.1980897 L121.925079,37.1980897 C122.063238,37.1980897 122.17837,37.2420072 122.270476,37.3518008 C122.362582,37.4615945 122.385608,37.5713881 122.385608,37.7250992 C122.385608,37.8568516 122.339556,37.9666453 122.270476,38.0764389 C122.201397,38.1862326 122.063238,38.23015 121.925079,38.23015 L120.175069,38.23015 L120.175069,40.2503532 L123.444825,40.2503532 C123.582984,40.2503532 123.698116,40.3162294 123.790222,40.4260231 C123.882328,40.5358167 123.905354,40.6895279 123.905354,40.843239 C123.905354,40.9969501 123.859302,41.1287025 123.790222,41.2384961 C123.721143,41.3482898 123.582984,41.414166 123.444825,41.414166 L119.346116,41.414166 C119.161905,41.414166 119.023746,41.3702485 118.885587,41.3043723 C118.770455,41.1945787 118.701376,41.1067437 118.701376,40.9749914" ></path>
                <path d="M132.655407,39.130458 L132.655407,34.4093309 C132.655407,34.2775785 132.724487,34.1677849 132.885672,34.1019087 C133.023831,34.0360325 133.208042,33.992115 133.41528,33.992115 C133.622519,33.992115 133.80673,34.0360325 133.944889,34.1019087 C134.083048,34.1677849 134.152127,34.2775785 134.152127,34.4093309 L134.152127,39.130458 C134.152127,39.8990136 134.566603,40.2942707 135.418582,40.2942707 C136.270561,40.2942707 136.685037,39.8990136 136.685037,39.130458 L136.685037,34.4093309 C136.685037,34.2775785 136.754116,34.1677849 136.915302,34.1019087 C137.05346,34.0360325 137.237672,33.992115 137.44491,33.992115 C137.652148,33.992115 137.83636,34.0360325 137.974519,34.1019087 C138.112677,34.1677849 138.181757,34.2775785 138.181757,34.4093309 L138.181757,39.130458 C138.181757,39.9209723 137.928466,40.513858 137.421884,40.8871564 C136.915302,41.2604549 136.247534,41.4361247 135.418582,41.4361247 C134.58963,41.4361247 133.898836,41.2604549 133.41528,40.8871564 C132.908698,40.513858 132.655407,39.942931 132.655407,39.130458" id="Path"></path>
                <path d="M5.54937566,34.1458261 C5.54937566,34.1458261 5.7335873,33.9262388 5.98687831,33.992115 C5.98687831,33.992115 6.42438095,34.1019087 6.58556614,34.2775785 C6.58556614,34.2775785 6.70069841,34.4532484 6.60859259,34.6289182 L5.84871958,36.1440706 C5.84871958,36.1440706 5.71056085,36.3197405 5.41121693,36.2977817 C5.41121693,36.2977817 5.22700529,36.2977817 5.06582011,36.1440706 C5.06582011,36.1440706 4.83555556,35.9244833 4.95068783,35.704896 L5.54937566,34.1458261 Z" id="Path"></path>
                <path d="M129.569862,39.7892199 L130.007365,41.1287025 C130.076444,41.3043723 130.260656,41.3922072 130.583026,41.3922072 C130.836317,41.3922072 130.95145,41.326331 131.181714,41.2165374 C131.411979,41.1067437 131.527111,40.9749914 131.527111,40.7993215 C131.527111,40.7773628 131.527111,40.7554041 131.504085,40.6895279 L129.316571,34.4532484 C129.247492,34.2995372 129.13236,34.1677849 128.948148,34.0799499 C128.717884,33.9481976 128.372487,33.9481976 128.142222,33.9481976 C127.911958,33.9481976 127.566561,33.9481976 127.336296,34.0799499 C127.175111,34.1677849 127.036952,34.2995372 126.967873,34.4532484 L124.78036,40.6895279 C124.757333,40.7554041 124.757333,40.7773628 124.757333,40.7993215 C124.757333,40.9749914 124.872466,41.1067437 125.10273,41.2165374 C125.332995,41.326331 125.448127,41.3922072 125.701418,41.3922072 C126.023788,41.3922072 126.208,41.3043723 126.277079,41.1287025 L126.714582,39.7892199 L129.569862,39.7892199 Z M127.036952,38.7571596 L128.142222,35.2876801 L129.247492,38.7571596 L127.036952,38.7571596 Z" id="Shape"></path>
            </g>
        </g>
    </g>
</svg>