<?xml version="1.0" encoding="UTF-8"?>
<svg width="105px" height="55px" viewBox="0 0 105 55" version="1.1" xmlns="http://www.w3.org/2000/svg" xmlns:xlink="http://www.w3.org/1999/xlink">
    <title>sncf</title>
    <g  stroke="none" stroke-width="1" fill="none" fill-rule="evenodd">
        <g id="Homepage" transform="translate(-1182.000000, -5162.000000)" fill-rule="nonzero">
            <g id="sncf" transform="translate(1182.941112, 5162.125394)">
                <path d="M1.99384615,0.166153846 C0.747692308,0.166153846 0,0.747692308 0,1.82769231 L0,52.3384615 C0,53.2523077 0.581538462,54 1.66153846,54 L92.5476923,54 C93.2953846,54 93.96,54 94.3753846,52.7538462 C94.3753846,52.7538462 103.513846,24.0923077 103.68,23.5938462 C104.012308,22.5138462 103.846154,21.9323077 102.932308,21.3507692 C73.44,2.74153846 29.0769231,0 9.05538462,0 C6.14769231,0 3.82153846,0.166153846 1.99384615,0.166153846 Z"  fill="#000000"></path>
                <g id="Group" transform="translate(4.901538, 21.964584)" fill="#FFFFFF">
                    <path d="M15.8676923,10.2184615 C12.4615385,8.72307692 10.2184615,7.80923077 10.8,6.14769231 C11.3815385,4.15384615 14.7876923,3.40615385 17.8615385,3.57230769 C19.3569231,3.57230769 20.4369231,3.73846154 21.8492308,4.15384615 L22.9292308,0.664615385 C21.4338462,0.332307692 20.1876923,0.249230769 18.36,0.249230769 C12.2123077,0.0830769231 6.72923077,1.74461538 5.4,5.23384615 C3.73846154,9.30461538 8.47384615,11.7969231 12.6276923,13.7076923 C16.0338462,15.2030769 18.4430769,16.7815385 17.5292308,18.5261538 C16.9476923,20.0215385 14.4553846,20.6861538 11.1323077,20.6861538 C8.22461538,20.6861538 4.56923077,19.7723077 1.66153846,18.4430769 L0,22.0984615 C2.16,23.0123077 6.39692308,24.3415385 10.1353846,24.5076923 C17.0307692,24.6738462 21.6,23.0123077 23.4276923,19.1907692 C25.4215385,14.6215385 20.1876923,12.2953846 15.8676923,10.2184615 L15.8676923,10.2184615 Z" ></path>
                    <path d="M25.4215385,16.4492308 C25.4215385,16.4492308 25.4215385,16.6153846 25.5876923,16.6153846 C25.5876923,16.6153846 25.7538462,16.6153846 25.7538462,16.4492308 C25.7538462,16.2830769 29.16,5.98153846 29.16,5.98153846 C32.5661538,10.8 35.8892308,17.1969231 37.8830769,24.0092308 L43.3661538,24.0092308 L46.1076923,15.3692308 C46.1076923,15.3692308 46.1076923,15.2030769 46.2738462,15.2030769 C46.2738462,15.2030769 46.44,15.2030769 46.44,15.3692308 C47.1876923,20.6861538 52.6707692,24.3415385 60.3969231,24.3415385 C65.2984615,24.3415385 69.8676923,23.0123077 70.9476923,22.5138462 L73.8553846,13.3753846 L84.9876923,13.3753846 L86.0676923,9.88615385 L74.7692308,9.88615385 L76.7630769,3.98769231 L90.0553846,3.98769231 L91.3015385,0.332307692 L72.5261538,0.332307692 L66.2953846,20.0215385 C64.8830769,20.3538462 63.2215385,20.4369231 61.56,20.4369231 C57.9046154,20.4369231 54.8307692,19.5230769 53.1692308,17.5292308 C51.9230769,16.0338462 51.3415385,14.2061538 51.7569231,12.0461538 C52.5046154,7.06153846 57.4061538,3.82153846 63.9692308,3.82153846 C65.3815385,3.82153846 66.7107692,3.82153846 68.1230769,4.15384615 L69.5353846,0.332307692 C68.04,0 66.0461538,0 64.2184615,0 C58.4030769,0 53.1692308,1.99384615 50.0123077,5.48307692 C50.0123077,5.64923077 49.8461538,5.64923077 49.68,5.64923077 C49.5138462,5.64923077 49.5138462,5.64923077 49.5138462,5.48307692 L51.1753846,0.332307692 L46.2738462,0.332307692 L40.7907692,16.8646154 C39.1292308,12.0461538 35.5569231,5.48307692 31.32,0.332307692 L26.0861538,0.332307692 L22.2646154,12.4615385 C24.1753846,13.9569231 24.7569231,15.0369231 25.4215385,16.4492308 L25.4215385,16.4492308 Z" ></path>
                </g>
            </g>
        </g>
    </g>
</svg>