<?xml version="1.0" encoding="UTF-8"?>
<svg width="175px" height="53px" viewBox="0 0 175 53" version="1.1" xmlns="http://www.w3.org/2000/svg" xmlns:xlink="http://www.w3.org/1999/xlink">
    <title>total</title>
    <g  stroke="none" stroke-width="1" fill="none" fill-rule="evenodd">
        <g id="Homepage" transform="translate(-753.000000, -5163.000000)" fill="#0A2229" fill-rule="nonzero">
            <g id="total" transform="translate(753.925012, 5163.186644)">
                <path d="M97.0349427,23.8361782 C89.925149,23.8361782 85.8394245,26.7576958 85.8394245,31.8387912 C85.8394245,36.8672445 89.925149,39.7775351 97.0349427,39.7775351 C104.152062,39.7775351 108.21738,36.8672445 108.21738,31.8387912 C108.21738,26.7576958 104.1518,23.8364277 97.0349427,23.8364277 M97.0349427,36.0893374 C93.1472648,36.0893374 91.177787,34.6697443 91.177787,31.8387912 C91.177787,28.9746561 93.1472648,27.5395947 97.0349427,27.5395947 C100.921051,27.5395947 102.905179,28.9744066 102.905179,31.8387912 C102.905179,34.6697443 100.921051,36.0893374 97.0349427,36.0893374 M109.67382,24.2278761 L109.67382,27.6284128 L116.415252,27.6284128 L116.415252,38.1825511 C116.415252,39.1912357 118.023171,39.5577352 119.382288,39.5577352 C120.747162,39.5577352 122.358219,39.2077019 122.358219,38.1825511 L122.358219,27.6284128 L129.087617,27.6284128 L129.087617,24.2278761 L109.67382,24.2278761 Z M164.955239,35.8782696 C163.307816,35.8782696 162.174739,35.6113162 161.554175,35.1280558 C160.751524,34.4751428 160.662573,33.5126138 160.639289,32.7751239 L160.639289,25.3268757 C160.639289,24.3351564 159.112734,24.0085752 157.800447,24.0085752 C156.482142,24.0085752 154.942507,24.3351564 154.942507,25.308663 L154.942507,32.5248863 C154.942507,35.2822401 155.866026,37.2130364 157.715943,38.26613 C159.997011,39.5285449 164.138199,39.4813915 168.121892,39.4312442 L173.089015,39.4312442 L173.102096,38.748143 L173.102096,35.8782696 L164.955239,35.8782696 Z M72.88294,34.7488324 C72.88294,37.4395725 75.2542665,39.2718206 79.2803416,39.584181 L79.2803416,23.3696335 L88.3143527,23.3696335 L88.3143527,19.6190636 L64.7711405,19.6190636 L64.7711405,23.3696335 L72.88294,23.3696335 L72.88294,34.7488324 Z M152.641033,39.435735 L152.49845,38.8229897 C151.174389,32.589005 143.74568,25.4658411 142.202905,24.4127475 C141.70635,24.0891602 141.176046,24.0058308 140.488507,23.9906119 C139.78658,24.0058308 139.238747,24.0891602 138.746378,24.4127475 C137.212759,25.4655916 129.773847,32.589005 128.468624,38.8232392 L128.321593,39.435735 L133.582777,39.435735 L133.677484,38.9966341 C133.891489,38.1104488 134.232381,37.154656 134.691263,36.1684255 L146.256712,36.1684255 C146.711147,37.154656 147.063811,38.1104488 147.258718,38.9966341 L147.371215,39.435735 L152.641033,39.435735 Z M136.551383,32.9682285 C137.689278,31.319645 139.009287,29.792188 140.488769,28.4120582 C141.962738,29.8009641 143.289676,31.3635145 144.402609,32.9682285 L136.551383,32.9682285 Z" id="Shape"></path>
                <g id="Group">
                    <path d="M49.7609365,28.9147787 C49.72418,28.80597 49.683341,28.6984542 49.6384982,28.5924388 C45.7479425,32.8277661 36.1969696,35.5684041 27.6058817,34.9571558 C22.5427437,34.5988894 13.1694111,32.1027507 8.4411471,29.3411556 C13.4344324,33.9030642 19.2842627,37.3772003 25.9043032,39.2493666 C33.7701796,41.476057 42.164529,41.3261141 46.8941011,38.9759265 C50.3639713,36.7434979 51.1475242,32.7638969 49.7609365,28.9147787" ></path>
                    <path d="M38.9405819,2.28505837 C54.431644,11.0042042 45.2126673,38.4465106 32.8853797,47.2617098 C21.4133288,55.4626667 9.21554324,51.683156 6.57030023,44.1236356 C8.88328544,47.3976813 13.4687047,48.5894909 17.5429179,47.2866587 C28.8653219,42.9582719 34.6947458,23.4015681 35.4489971,16.6062329 C35.9544476,10.7609523 35.1520581,6.8369874 33.0253465,4.36030889 C30.5870452,1.90284104 26.8505838,0.712528441 21.3840274,2.34892759 C25.1463891,-0.596042002 33.1956614,-0.941833924 38.9405819,2.28505837" ></path>
                    <path d="M47.609371,38.5854761 C47.672872,38.5517916 47.7346014,38.5151558 47.7943366,38.4757009 C47.7987841,38.4687152 47.8160511,38.461979 47.8262543,38.4549933 C48.1409835,38.2563999 48.4585906,38.0326082 48.7542215,37.7771313 C48.8839852,37.659123 49.0236904,37.5368733 49.1563319,37.3979078 C55.1838024,31.5678461 56.4626025,15.3532986 41.6198355,7.67327493 C36.333797,4.93937314 24.0399968,1.1124595 11.7854396,7.01462365 C7.73451063,8.96213573 3.55407961,13.0198268 1.29917411,18.5300435 C2.9641258,15.9158965 5.83828658,14.1407814 11.5028897,13.3753488 C17.1572895,12.7017282 24.9475577,13.5392632 32.5685575,16.1035123 C37.4844032,17.8274822 41.4636482,19.965105 44.5680349,22.383403 C47.1345301,24.4808581 48.7832614,26.4700348 49.6382366,28.5954327 C49.6834969,28.7037109 49.7227399,28.8077479 49.7606749,28.9147787 C51.1472625,32.7638969 50.3637097,36.7437474 46.8969789,38.9759265 C46.8943627,38.9814153 46.8998567,38.9716852 46.8969789,38.9759265 C47.0639504,38.8938297 47.2281558,38.8067144 47.3893483,38.7147114 C47.4123283,38.7018051 47.4346766,38.6879024 47.4563231,38.6730467 C47.5015835,38.6493453 47.5539075,38.6231489 47.609371,38.5857256" ></path>
                    <path d="M3.21632778,27.8591903 C3.50332527,28.2898085 4.14272532,29.0218096 4.56367241,29.4871068 C7.54431266,22.8140213 23.8492756,18.4771519 28.657857,18.5272992 C17.8555542,15.2115887 7.26464054,16.7950962 3.00415371,20.3163857 C1.45719278,21.9582736 0.977904362,24.4224776 3.2165894,27.8591903" ></path>
                    <path d="M35.0123528,42.9986891 C26.3367615,42.5361363 13.6876809,39.3426756 4.72770834,29.6634956 C4.67663983,29.6023976 4.62269057,29.5435408 4.56602699,29.4871068 C4.1437718,29.0218096 3.50437175,28.2925529 3.21606616,27.8591903 C0.977119501,24.4224776 1.45928574,21.9582736 3.00467695,20.3151382 C2.72631293,20.5581406 2.37966601,20.8595235 1.98959012,21.3415365 C-0.304820045,24.1697451 -0.580044617,28.7605945 0.984444869,33.6238859 C4.40146781,44.1875048 19.3274301,50.5412443 31.4509155,48.7938225 C39.1896444,47.681101 44.0400851,43.5278556 46.0577009,41.8290841 C41.6747758,43.0181493 38.4338233,43.1790698 35.0120912,42.9986891" ></path>
                </g>
            </g>
        </g>
    </g>
</svg>