<?xml version="1.0" encoding="UTF-8"?>
<svg width="73px" height="85px" viewBox="0 0 73 85" version="1.1" xmlns="http://www.w3.org/2000/svg" xmlns:xlink="http://www.w3.org/1999/xlink">
    <title>Ansible</title>
    <g  stroke="none" stroke-width="1" fill="none" fill-rule="evenodd">
        <g id="Partner" transform="translate(-1063.000000, -694.000000)" fill="#1A1918" fill-rule="nonzero">
            <g id="Ansible" transform="translate(1063.824054, 694.447091)">
                <path d="M18.8578238,83.8462197 C18.7058464,83.8462197 18.542092,83.809586 18.4282491,83.6627839 L13.5534738,77.549504 L13.5534738,83.7852527 L12.4419633,83.7852527 L12.4419633,76.106618 C12.4419633,75.8009808 12.7072229,75.5565779 13.010617,75.5565779 C13.1872698,75.5565779 13.3386864,75.6052446 13.4522489,75.7520467 L18.3144063,81.8530263 L18.3144063,75.6421457 L19.4256363,75.6421457 L19.4256363,83.3079452 C19.4256363,83.6258828 19.1603768,83.8459523 18.8575434,83.8459523 M28.0518997,83.9194871 C26.9409501,83.9194871 25.778687,83.6991502 24.692693,83.3082126 L24.9579526,82.4276671 C25.9556201,82.7335718 27.0416141,82.9536413 28.0518997,82.9536413 C29.4539059,82.9536413 30.1863139,82.4766012 30.1863139,81.8043596 C30.1863139,81.1930851 29.6176602,80.8871805 27.6604596,80.0069024 C25.7029786,79.1266243 24.9329969,78.5645512 24.9329969,77.4639362 C24.9329969,76.0825521 26.0439465,75.5199443 28.1402261,75.5199443 C29.0117131,75.5199443 30.3503486,75.6910797 31.1208912,75.9114166 L30.9442384,76.8160281 C30.0974267,76.6205593 29.0372296,76.4860575 28.1654622,76.4860575 C26.6883085,76.4860575 26.0820811,76.7547936 26.0820811,77.4273026 C26.0820811,78.0875111 26.523713,78.3685477 28.5950369,79.2857268 C30.7799233,80.2515726 31.3353981,80.7406457 31.3353981,81.7431252 C31.3353981,83.1983115 29.8955378,83.9194871 28.0518997,83.9194871 M36.601894,75.6424131 L37.7509782,75.6424131 L37.7509782,83.7847179 L36.601894,83.7847179 L36.601894,75.6424131 Z M47.5263259,80.0927375 L44.6718413,80.0927375 L44.6718413,82.8560406 L47.5263259,82.8560406 C48.4984769,82.8560406 49.0920863,82.2690994 49.0920863,81.4495209 C49.0920863,80.6794113 48.4735212,80.0927375 47.5263259,80.0927375 M46.9702902,76.5713578 L44.6718413,76.5713578 L44.6718413,79.1758258 L46.9702902,79.1758258 C47.8922495,79.1758258 48.5615672,78.6132179 48.5615672,77.8308079 C48.5615672,77.0606983 47.9805758,76.5713578 46.9702902,76.5713578 M47.5389439,83.7850406 L44.1040289,83.7850406 C43.9499845,83.7870728 43.8015451,83.7299322 43.6921871,83.62645 C43.5828291,83.5229678 43.5217617,83.3818584 43.5227451,83.2349452 L43.5227451,76.1921858 C43.5227451,75.8985815 43.7753986,75.6421457 44.1040289,75.6421457 L46.9453345,75.6421457 C48.6880281,75.6421457 49.7235499,76.4611893 49.7235499,77.7449728 C49.7235499,78.441815 49.2939752,79.0899906 48.6372755,79.4688953 C49.6102678,79.7501992 50.2664067,80.5203088 50.2664067,81.4495209 C50.2664067,82.7453373 49.1425585,83.7847179 47.5389439,83.7847179 M55.7852636,83.7849853 C55.4700927,83.7849853 55.2174512,83.5282821 55.2174512,83.2349452 L55.2174512,75.6424131 L56.366255,75.6424131 L56.366255,82.7948062 L60.9379166,82.7948062 L60.9379166,83.7849853 L55.7852636,83.7849853 L55.7852636,83.7849853 Z M68.7717661,83.9194871 C66.4228451,83.9194871 65.0085013,83.0881431 65.0085013,81.4131546 C65.0085013,80.6184443 65.4759301,79.8603676 66.3852713,79.5057963 C65.6525829,79.0656573 65.2737608,78.4420824 65.2737608,77.7575405 C65.2737608,76.2413872 66.4991142,75.5199443 68.7972827,75.5199443 C69.5678252,75.5199443 70.6535388,75.605512 71.5631604,75.8012482 L71.4366994,76.7058596 C70.4771664,76.5590574 69.5801629,76.4737571 68.7086759,76.4737571 C67.2186237,76.4737571 66.4228451,76.8649621 66.4228451,77.8064746 C66.4228451,78.5525183 67.1555335,79.1391921 68.1279649,79.1391921 L70.0977836,79.1391921 C70.3756612,79.1391921 70.5904485,79.3469612 70.5904485,79.6036644 C70.5904485,79.872668 70.3756612,80.0804372 70.0977836,80.0804372 L67.9765483,80.0804372 C66.8650378,80.0804372 66.1581463,80.6058765 66.1581463,81.4131546 C66.1581463,82.59907 67.3072305,82.9533739 68.7468104,82.9533739 C69.5299711,82.9533739 70.5904485,82.8560406 71.4490371,82.6603044 L71.6136326,83.5526154 C70.7926178,83.7729524 69.7189615,83.9194871 68.7717661,83.9194871 M3.89028665,77.1695298 L5.90300667,81.9784365 L2.86345735,79.6600857 L3.89028665,77.1695298 L3.89028665,77.1695298 Z M7.46568271,83.0862713 L4.37005315,75.873446 C4.28200716,75.6654094 4.10507399,75.5552409 3.89028665,75.5552409 C3.67210927,75.5513378 3.47495079,75.678752 3.39790209,75.873446 L0,83.7849853 L1.16198269,83.7849853 L2.50734779,80.5232502 L6.52101097,83.6625165 C6.68252208,83.7889963 6.79888859,83.8459523 6.95058566,83.8459523 C7.25341898,83.8459523 7.51895895,83.6261502 7.51895895,83.30848 C7.51895895,83.2566046 7.49989166,83.1747804 7.46568271,83.0865387 L7.46568271,83.0862713 Z M35.9048165,0 C55.6607655,0 71.6747601,15.2727712 71.6747601,34.111043 C71.6747601,52.9506518 55.6610459,68.2218186 35.9048165,68.2218186 C16.15055,68.2218186 0.135153392,52.9506518 0.135153392,34.111043 C0.135153392,15.2727712 16.15055,0 35.9048165,0 Z M36.3580364,15.5089229 C35.504799,15.5089229 34.7522556,15.9396504 34.4012785,16.7530928 L20.9111707,47.6934527 L25.5259145,47.6934527 L30.8660918,34.9366712 L46.8028732,47.2144819 C47.443588,47.7086875 47.9061516,47.9323611 48.5071697,47.9323611 C49.7111422,47.9323611 50.7635894,47.0713678 50.7635894,45.8292753 C50.7635894,45.6270688 50.6885529,45.3059852 50.5530031,44.9608954 L38.2620267,16.7530928 C37.9110496,15.9396504 37.2095795,15.5089229 36.3580364,15.5089229 Z M36.3580364,21.8216427 L44.348454,40.6284602 L32.2789562,31.5619468 L36.3580364,21.8216427 Z" id="Combined-Shape"></path>
            </g>
        </g>
    </g>
</svg>