<?xml version="1.0" encoding="UTF-8"?>
<svg width="119px" height="60px" viewBox="0 0 119 60" version="1.1" xmlns="http://www.w3.org/2000/svg" xmlns:xlink="http://www.w3.org/1999/xlink">
    <title>Cisco</title>
    <g  stroke="none" stroke-width="1" fill="none" fill-rule="evenodd">
        <g id="Partner" transform="translate(-211.000000, -1490.000000)" fill="#0A2229" fill-rule="nonzero">
            <g id="Cisco" transform="translate(211.472776, 1490.362417)">
                <polygon  points="38.5229514 58.9242864 33.3523355 58.9242864 33.3523355 39.3836781 38.5229514 39.3836781 38.5229514 58.9242864"></polygon>
                <g id="Clipped" transform="translate(58.962171, 29.636106) scale(-1, 1) rotate(-180.000000) translate(-58.962171, -29.636106) translate(0.000000, 0.000000)">
                    <path d="M80.2152817,14.2895552 C80.0023657,14.3926386 78.3383454,15.3328848 75.8652442,15.3328848 C72.5224631,15.3328848 70.2033166,13.1150284 70.2033166,10.1209222 C70.2033166,7.21740458 72.4225564,4.90427405 75.8652442,4.90427405 C78.2957622,4.90427405 79.9876254,5.82577777 80.2152817,5.9413562 L80.2152817,0.696594339 C79.5667069,0.524788561 77.7995041,0.00156187072 75.503287,0.00156187072 C69.6874047,0.00156187072 64.5823343,3.82502138 64.5823343,10.1224841 C64.5823343,15.9560712 69.2009736,20.235597 75.503287,20.235597 C77.9272537,20.235597 79.7255749,19.6733235 80.2152817,19.534317 L80.2152817,14.2895552 Z M26.2443529,14.2895552 C26.0363504,14.3926386 24.3739678,15.3328848 21.9008667,15.3328848 C18.5515343,15.3328848 16.2340256,13.1150284 16.2340256,10.1209222 C16.2340256,7.21740458 18.4549032,4.90427405 21.9008667,4.90427405 C24.3313846,4.90427405 26.0216101,5.82577777 26.2443529,5.9413562 L26.2443529,0.696594339 C25.6023293,0.524788561 23.8367644,0.00156187072 21.5274448,0.00156187072 C15.716476,0.00156187072 10.6179568,3.82502138 10.6179568,10.1224841 C10.6179568,15.9560712 15.2365961,20.235597 21.5290826,20.235597 C23.9628762,20.235597 25.7579218,19.6733235 26.2443529,19.534317 L26.2443529,14.2895552 L26.2443529,14.2895552 Z M96.4804258,15.2594769 C93.4127977,15.2594769 91.1345966,12.9572795 91.1345966,10.1209222 C91.1345966,7.27831754 93.4127977,4.97768197 96.4804258,4.97768197 C99.5447783,4.97768197 101.829531,7.27831754 101.829531,10.1209222 C101.829531,12.9572795 99.5447783,15.2594769 96.4804258,15.2594769 M107.308023,10.1209222 C107.308023,4.53098695 102.782739,0.00156187072 96.4820636,0.00156187072 C90.1781124,0.00156187072 85.6593799,4.53098695 85.6593799,10.1224841 C85.6593799,15.7014863 90.1797502,20.235597 96.4804258,20.235597 C102.782739,20.235597 107.308023,15.7014863 107.308023,10.1209222 M58.1309797,15.4469014 C58.0540024,15.4703294 55.8773458,16.043536 54.0888515,16.043536 C52.0170151,16.043536 50.8901981,15.3813028 50.8901981,14.4426185 C50.8901981,13.252473 52.4100908,12.8370154 53.2601169,12.5808686 L54.6866541,12.1482304 C58.0441755,11.1298907 59.5722572,8.93858611 59.5722572,6.55829514 C59.5722572,1.64933548 55.0453356,0 51.0883738,0 C48.3384818,0 45.7621983,0.484179922 45.5083369,0.534159785 L45.5083369,5.03234745 C45.9636496,4.9230165 48.1321171,4.30451569 50.3906645,4.30451569 C52.9636723,4.30451569 54.146175,5.02297622 54.146175,6.12878069 C54.146175,7.11900672 53.1225404,7.6906514 51.840131,8.0748716 C51.5289461,8.17483133 51.0572553,8.31539969 50.7362435,8.41535942 C47.8569641,9.28375953 45.4559268,10.8987339 45.4559268,14.1318062 C45.4559268,17.7865837 48.3253793,20.2402826 53.0914219,20.2402826 C55.6087441,20.2402826 57.9770251,19.6577048 58.1309797,19.6186581 L58.1309797,15.4484633 L58.1309797,15.4469014 Z" id="Shape"></path>
                    <path d="M5.13455108,40.8882135 C5.13455108,42.234546 3.98152908,43.3262937 2.56809445,43.3262937 C1.15465981,43.3262937 0,42.234546 0,40.8897753 L0,35.75903 C0.0351772054,34.4309917 1.17421822,33.3718588 2.56727554,33.3718588 C3.96033286,33.3718588 5.09937387,34.4309917 5.13455108,35.75903 L5.13455108,40.8882135 L5.13455108,40.8882135 Z M19.2345033,47.6198763 C19.2345033,48.9719976 18.0850949,50.0681086 16.6672278,50.0681086 C15.2493606,50.0681086 14.0999522,48.9719976 14.0999522,47.6198763 L14.0999522,35.75903 C14.0999522,34.4069086 15.2493606,33.3107977 16.6672278,33.3107977 C18.0850949,33.3107977 19.2345033,34.4069086 19.2345033,35.75903 L19.2345033,47.6214381 L19.2345033,47.6198763 Z M33.3360934,56.8317897 C33.3360934,58.1781223 32.1830714,59.2714318 30.7696367,59.2714318 C29.3545643,59.2714318 28.2015423,58.1781223 28.2015423,56.8317897 L28.2015423,30.8844315 C28.2367195,29.5563932 29.3757605,28.4972602 30.7688178,28.4972602 C32.1618751,28.4972602 33.3009162,29.5563932 33.3360934,30.8844315 L33.3360934,56.8317897 L33.3360934,56.8317897 Z M47.4360456,47.6198763 C47.4360456,48.9719976 46.2866372,50.0681086 44.86877,50.0681086 C43.4509029,50.0681086 42.3014945,48.9719976 42.3014945,47.6198763 L42.3014945,35.75903 C42.3014945,34.4069086 43.4509029,33.3107977 44.86877,33.3107977 C46.2866372,33.3107977 47.4360456,34.4069086 47.4360456,35.75903 L47.4360456,47.6214381 L47.4360456,47.6198763 Z M61.521258,40.8882135 C61.5221628,42.2332562 60.3799846,43.3245695 58.9695412,43.3262942 C57.5562206,43.3271642 56.4084993,42.2375514 56.4030846,40.8897753 L56.4030846,35.75903 C56.4030846,34.4112216 57.5488266,33.318607 58.962171,33.318607 C60.3755154,33.318607 61.521258,34.4112216 61.521258,35.75903 L61.521258,40.8882135 L61.521258,40.8882135 Z M75.627761,47.6198763 C75.5926409,48.9436402 74.4572495,49.9993369 73.0686745,49.9993369 C71.6800995,49.9993369 70.5447081,48.9436402 70.509588,47.6198763 L70.509588,35.75903 C70.509588,34.4112216 71.6553301,33.318607 73.0686745,33.318607 C74.4820189,33.318607 75.627761,34.4112216 75.627761,35.75903 L75.627761,47.6214381 L75.627761,47.6198763 Z M89.7375401,56.8317897 C89.7375401,58.1795981 88.5917981,59.2722127 87.1784536,59.2722127 C85.7651092,59.2722127 84.6193672,58.1795981 84.6193672,56.8317897 L84.6193672,30.8844315 C84.5781237,29.987043 85.0566618,29.1404661 85.8654314,28.6800318 C86.674201,28.2195975 87.6827062,28.2195975 88.4914759,28.6800318 C89.3002455,29.1404661 89.7787836,29.987043 89.7375401,30.8844315 L89.7375401,56.8317897 L89.7375401,56.8317897 Z M103.844044,47.6198763 C103.844044,48.9677707 102.699211,50.0626421 101.25302,50.0626421 C99.8398627,50.0617798 98.6947522,48.9690681 98.6947522,47.6214381 L98.6947522,35.75903 C98.6947522,34.4048881 99.8412229,33.3131405 101.25302,33.3131405 C102.699211,33.3131405 103.844044,34.4048881 103.844044,35.75903 L103.844044,47.6214381 L103.844044,47.6198763 Z M117.924342,40.8882135 C117.924342,42.2373158 116.7775,43.3309793 115.362799,43.3309793 C113.948098,43.3309793 112.801256,42.2373158 112.801256,40.8882135 L112.801256,35.75903 C112.801256,34.4048881 113.949364,33.3115786 115.362799,33.3115786 C116.774596,33.3115786 117.922704,34.4048881 117.922704,35.75903 L117.922704,40.8882135 L117.924342,40.8882135 Z" id="Shape"></path>
                    <path d="M114.96481,2.92226011 L114.96481,2.61613345 L114.050909,2.61613345 L114.050909,0.34985904 L113.674211,0.34985904 L113.674211,2.61457158 L112.757035,2.61457158 L112.757035,2.92226011 L114.96481,2.92226011 L114.96481,2.92226011 Z M115.156434,2.92226011 L115.74441,2.92226011 L116.551853,0.812172772 L116.564955,0.812172772 L117.346193,2.92069824 L117.922704,2.92069824 L117.922704,0.34985904 L117.537818,0.34985904 L117.537818,2.45838451 L117.524715,2.45838451 L116.705807,0.34985904 L116.350401,0.34985904 L115.551148,2.45838451 L115.533132,2.45838451 L115.533132,0.34985904 L115.156434,0.34985904 L115.156434,2.92226011 L115.156434,2.92226011 Z" id="Shape"></path>
                </g>
            </g>
        </g>
    </g>
</svg>