<?xml version="1.0" encoding="UTF-8"?>
<svg width="128px" height="51px" viewBox="0 0 128 51" version="1.1" xmlns="http://www.w3.org/2000/svg" xmlns:xlink="http://www.w3.org/1999/xlink">
    <title>Citrix</title>
    <g  stroke="none" stroke-width="1" fill="none" fill-rule="evenodd">
        <g id="Partner" transform="translate(-1036.000000, -959.000000)" fill="#000000" fill-rule="nonzero">
            <g id="Citrix" transform="translate(1036.117552, 959.519702)">
                <path d="M123.933065,11.8792294 C125.666416,11.8792294 127.087763,13.2890212 127.087763,15.0339274 C127.087763,16.7788337 125.666416,18.1886255 123.933065,18.1886255 C122.188159,18.1886255 120.768313,16.7788337 120.768313,15.0339274 C120.768313,13.2890212 122.188159,11.8792294 123.933065,11.8792294 Z M126.671759,15.0339274 C126.671759,13.5316903 125.446858,12.2952335 123.933065,12.2952335 C122.419272,12.2952335 121.195873,13.5316903 121.195873,15.0339274 C121.195873,16.5477203 122.420774,17.7726214 123.933065,17.7726214 C125.44836,17.7726214 126.671759,16.5477203 126.671759,15.0339274 L126.671759,15.0339274 Z" id="Shape"></path>
                <path d="M125.354412,16.7557224 L124.776629,16.7557224 C124.743464,16.62861 124.730406,16.5130533 124.730406,16.3166069 C124.730406,15.577044 124.500795,15.3805976 123.863731,15.3805976 L123.252783,15.3805976 L123.252783,16.7557224 L122.69811,16.7557224 L122.69811,13.2890212 L123.865233,13.2890212 C124.606183,13.2890212 125.355915,13.4508006 125.355915,14.2943645 C125.355915,14.8837037 124.903741,15.0801501 124.502182,15.1379285 C125.0208,15.2534852 125.28947,15.5654883 125.28947,16.1779388 C125.286581,16.4206079 125.309692,16.663277 125.354412,16.7557224 L125.354412,16.7557224 Z M124.741962,14.2943645 C124.741962,13.8899161 124.406847,13.7050253 123.862344,13.7050253 L123.25128,13.7050253 L123.25128,14.9645934 L123.862344,14.9645934 C124.431461,14.9645934 124.741962,14.7450357 124.741962,14.2943645 Z M110.389819,38.0181563 L106.046389,30.345191 L100.54589,38.0181563 L91.0802934,38.0181563 L101.516566,23.9202381 L93.5200422,11.9716747 L103.07508,11.9716747 L106.160444,17.4952853 L109.732648,11.9716747 L119.323855,11.9716747 L110.703324,23.9549052 L119.76297,38.0181563 L110.389819,38.0181563 Z M89.7297822,11.9716747 L81.9065932,11.9716747 L89.7297822,11.9716747 Z M85.8239655,40.2137337 C88.5279925,40.2137337 90.7220676,42.3977554 90.7220676,45.1017823 C90.7220676,47.8058093 88.5264902,50 85.8239655,50 C83.1184364,50 80.9243604,47.8044226 80.9243604,45.1017823 C80.922859,42.3977554 83.1199386,40.2137337 85.8239655,40.2137337 Z M72.221439,27.6411641 L80.1847983,38.0181563 L70.3393669,38.0181563 L65.3704286,30.24119 L65.3704286,38.0181563 L57.5587953,38.0181563 L57.5587953,11.9716747 L67.7971194,11.9716747 C70.8362608,11.9716747 73.2976186,12.8267944 74.9139103,14.4445882 C76.3583691,15.8890471 77.0878786,17.8419554 77.0878786,20.2686462 C77.0878786,23.8509041 75.202802,26.6242651 72.221439,27.6411641 L72.221439,27.6411641 Z M70.0951956,20.661539 C70.0951956,19.7833081 69.8655844,19.1361905 69.4018554,18.662408 C68.4774017,17.7379544 66.6978285,17.610842 65.3704286,17.5992863 L65.3704286,23.7353474 C68.7100174,23.7006804 70.0951956,22.8108938 70.0951956,20.661539 Z M49.5031062,18.7779647 L49.5031062,38.0181563 L41.7261399,38.0181563 L41.7261399,18.7779647 L35.7879118,18.7779647 L35.7879118,11.9716747 L55.4427209,11.9716747 L55.4427209,18.7779647 L49.5031062,18.7779647 Z M25.8731465,38.0181563 L25.8731465,11.9716747 L33.6832776,11.9716747 L33.6832776,38.0181563 L25.8731465,38.0181563 Z M29.7789631,0 C32.4829901,0 34.6770652,2.19557741 34.6770652,4.88804866 C34.6770652,7.59207558 32.4814878,9.79920867 29.7789631,9.79920867 C27.0633805,9.79920867 24.879358,7.59207558 24.879358,4.88804866 C24.8778566,2.19557741 27.0618783,0 29.7789631,0 Z M23.4926783,15.5654883 L19.3788596,22.2099989 C18.2232925,20.2917576 15.9453232,19.0553008 13.647247,19.0553008 C10.3639343,19.0553008 7.96185704,21.7246607 7.96185704,25.0064712 C7.96185704,28.2882816 10.3639343,30.9475881 13.647247,30.9475881 C15.9453232,30.9475881 18.2232925,29.7111313 19.3788596,27.79289 L23.4926783,34.4489563 C21.0082091,37.0374265 17.5183966,38.6450514 13.647247,38.6450514 C6.11294975,38.6450514 0,32.5451596 0,25.0078579 C0,17.4735606 6.11294975,11.3490543 13.647247,11.3490543 C17.5183966,11.3476685 21.0082091,12.9654624 23.4926783,15.5654883 Z M81.9174555,38.0174629 L81.9174555,11.9709814 L89.7279333,11.9709814 L89.7279333,38.0174629 L81.9174555,38.0174629 Z" id="Shape"></path>
            </g>
        </g>
    </g>
</svg>