<?xml version="1.0" encoding="UTF-8"?>
<svg width="159px" height="86px" viewBox="0 0 159 86" version="1.1" xmlns="http://www.w3.org/2000/svg" xmlns:xlink="http://www.w3.org/1999/xlink">
    <title>Commvault</title>
    <g  stroke="none" stroke-width="1" fill="none" fill-rule="evenodd">
        <g id="Partner" transform="translate(-472.000000, -422.000000)" fill="#0A2229" fill-rule="nonzero">
            <g id="Commvault" transform="translate(472.346455, 422.927720)">
                <path d="M14.6619626,84.0943492 C13.1381743,84.6702691 11.4224128,84.9582291 9.4906812,84.9582291 C3.16755984,84.9582291 0,81.8986543 0,75.7795046 C0,69.9843099 3.16755984,67.0927117 9.4906812,67.0927117 C11.4224128,67.0927117 13.1501727,67.3806717 14.6619626,67.9565916 L14.6619626,70.9081815 C13.1381743,70.2482732 11.4944028,69.9243182 9.73064785,69.9243182 C5.49523639,69.9243182 3.38352983,71.8800464 3.38352983,75.7795046 C3.38352983,80.014916 5.49523639,82.1266226 9.73064785,82.1266226 C11.4944028,82.1266226 13.1381743,81.8026676 14.6619626,81.1427593 L14.6619626,84.0943492 Z" id="path11042"></path>
                <path d="M16.3657259,76.0434679 C16.3657259,70.0682982 19.3173157,67.0807134 25.2084971,67.0807134 C31.0156901,67.0807134 33.9192866,70.0682982 33.9192866,76.0434679 C33.9192866,81.9826426 31.0156901,84.9582291 25.2084971,84.9582291 C19.5692807,84.9582291 16.6296892,81.9826426 16.3657259,76.0434679 Z M25.2084971,82.1146243 C28.7600036,82.1146243 30.5357568,80.0629094 30.5357568,75.9714779 C30.5357568,71.9400381 28.7600036,69.9243182 25.2084971,69.9243182 C21.5730023,69.9243182 19.7492557,71.9400381 19.7492557,75.9714779 C19.7492557,80.0749077 21.5730023,82.1146243 25.2084971,82.1146243 Z" id="path11044"></path>
                <polygon id="path11046" points="36.4869299 84.8262475 36.4869299 67.212695 39.8704597 67.212695 45.8456294 80.5788377 51.7008158 67.212695 54.9643623 67.212695 54.9643623 84.8382458 51.9407824 84.8382458 51.9407824 72.5519531 47.165446 84.8262475 44.3818328 84.8262475 39.4985114 72.5519531 39.4985114 84.8262475"></polygon>
                <polygon id="path11048" points="58.6598488 84.8262475 58.6598488 67.212695 62.0553769 67.212695 68.0305466 80.5788377 73.885733 67.212695 77.1492795 67.212695 77.1492795 84.8382458 74.1256997 84.8382458 74.1256997 72.5519531 69.3503632 84.8262475 66.56675 84.8262475 61.6834286 72.5519531 61.6834286 84.8262475"></polygon>
                <polygon id="path11050" points="97.1265035 67.212695 89.3995772 84.8382458 85.8840657 84.8382458 78.4930928 67.212695 82.3805526 67.212695 87.8277956 80.698821 93.2750387 67.2006967 97.1265035 67.2006967"></polygon>
                <polygon id="path11052" points="93.4790104 84.8262475 100.953972 67.2006967 104.469483 67.2006967 112.112421 84.8262475 108.59691 84.8262475 106.377218 80.014916 100.857985 80.014916 101.985828 77.1833095 105.525336 77.1833095 102.645737 70.5602298 96.8385435 84.8142491 93.4790104 84.8142491"></polygon>
                <path d="M112.556359,77.9032095 L112.556359,67.212695 L115.819906,67.212695 L115.819906,77.9032095 C115.819906,80.7108193 117.259706,82.1146243 120.127307,82.1146243 C123.006907,82.1146243 124.434709,80.7108193 124.434709,77.9032095 L124.434709,67.212695 L127.698255,67.212695 L127.698255,77.9032095 C127.698255,82.6065559 125.166607,84.9462308 120.115309,84.9462308 C115.064011,84.9462308 112.556359,82.6065559 112.556359,77.9032095 L112.556359,77.9032095 Z" id="path11054"></path>
                <polygon id="path11056" points="134.309337 67.212695 134.309337 81.9946409 142.540193 81.9946409 142.540193 84.8262475 131.04579 84.8262475 131.04579 67.212695"></polygon>
                <polygon id="path11058" points="154.130582 67.212695 154.130582 70.0443015 149.079284 70.0443015 149.079284 84.8262475 145.815738 84.8262475 145.815738 70.0443015 140.76444 70.0443015 140.76444 67.212695"></polygon>
                <path d="M157.274146,67.788615 C157.478117,67.788615 157.622097,67.82461 157.718084,67.9085983 C157.814071,67.9925866 157.862064,68.11257 157.862064,68.2685483 C157.862064,68.4245266 157.814071,68.5325116 157.730082,68.6045016 C157.646094,68.6764916 157.538109,68.7124866 157.418126,68.7244849 L157.898059,69.4683816 L157.622097,69.4683816 L157.166161,68.7484816 L156.890199,68.7484816 L156.890199,69.4683816 L156.626236,69.4683816 L156.626236,67.7766166 L157.274146,67.7766166 L157.274146,67.788615 Z M157.166161,68.5325116 L157.334137,68.5325116 C157.382131,68.5325116 157.430124,68.5205133 157.478117,68.4965166 C157.514112,68.4725199 157.550107,68.4485233 157.574104,68.4125283 C157.598101,68.3765333 157.610099,68.32854 157.610099,68.25655 C157.610099,68.1965583 157.598101,68.1605633 157.574104,68.1245683 C157.550107,68.0885733 157.526111,68.0645766 157.490116,68.0525783 C157.454121,68.04058 157.418126,68.0165833 157.370132,68.0165833 C157.322139,68.004585 157.286144,68.004585 157.238151,68.004585 L156.890199,68.004585 L156.890199,68.5445099 L157.166161,68.5445099 L157.166161,68.5325116 Z" id="path11064"></path>
                <path d="M157.190157,67.1886983 C156.398267,67.1886983 155.750357,67.8366083 155.750357,68.6284983 C155.750357,69.4203882 156.398267,70.0682982 157.190157,70.0682982 C157.982047,70.0682982 158.629957,69.4203882 158.629957,68.6284983 C158.629957,67.8366083 157.982047,67.1886983 157.190157,67.1886983 Z M157.190157,69.8643265 C156.506252,69.8643265 155.954329,69.3124032 155.954329,68.6284983 C155.954329,67.9445933 156.506252,67.39267 157.190157,67.39267 C157.874062,67.39267 158.425985,67.9445933 158.425985,68.6284983 C158.425985,69.3124032 157.874062,69.8643265 157.190157,69.8643265 Z" id="path11068"></path>
                <path d="M79.3149786,0 L52.8153525,15.2804787 L52.8153525,44.697083 L79.3149786,60 L105.814605,44.697083 L105.814605,15.2804787 L79.3149786,0 Z M101.237192,42.0718025 L79.3149786,54.7270007 L57.3927647,42.0718025 L57.3927647,17.9281975 L79.3149786,5.27299925 L101.237192,17.9281975 L101.237192,42.0718025 Z" id="XMLID_18_"></path>
                <path d="M77.7891745,48.6237846 C77.7891745,48.8481675 77.5423533,48.9827973 77.3404086,48.8706058 L61.9253002,39.9626028 C61.6560406,39.8055348 61.4765343,39.5138369 61.4765343,39.1997008 L61.4765343,21.9670905 C61.4765343,21.7427076 61.7233555,21.6080778 61.9253002,21.7202693 L77.3404086,30.6282723 C77.6096682,30.7853403 77.7891745,31.0770381 77.7891745,31.3911743 L77.7891745,48.6237846 Z" id="XMLID_17_"></path>
                <path d="M94.6852104,19.3642483 L79.9208125,27.8908003 C79.5617998,28.092745 79.1130339,28.092745 78.7540212,27.8908003 L63.9896233,19.3642483 C63.7876786,19.2520568 63.7876786,18.960359 63.9896233,18.8481675 L78.7540212,10.3216156 C79.1130339,10.1196709 79.5617998,10.1196709 79.9208125,10.3216156 L94.6852104,18.8481675 C94.8647168,18.9827973 94.8647168,19.2520568 94.6852104,19.3642483 Z" id="XMLID_16_"></path>
                <path d="M94.6852104,41.1518325 L81.2895485,48.8706058 C81.0876038,48.9827973 80.8407826,48.8481675 80.8407826,48.6237846 L80.8407826,33.1637996 C80.8407826,32.9394166 81.0876038,32.8047868 81.2895485,32.9169783 L94.6852104,40.6357517 C94.8647168,40.7479432 94.8647168,41.0172027 94.6852104,41.1518325 L94.6852104,41.1518325 Z" id="XMLID_15_"></path>
            </g>
        </g>
    </g>
</svg>