<?xml version="1.0" encoding="UTF-8"?>
<svg width="93px" height="93px" viewBox="0 0 93 93" version="1.1" xmlns="http://www.w3.org/2000/svg" xmlns:xlink="http://www.w3.org/1999/xlink">
    <title>DataDog</title>
    <g  stroke="none" stroke-width="1" fill="none" fill-rule="evenodd">
        <g id="Partner" transform="translate(-779.000000, -419.000000)" fill="#0A2229">
            <g id="DataDog" transform="translate(779.660859, 419.406835)">
                <path d="M5.96512456,91.9010988 L0,91.9010988 L0,78.1687771 L5.96512456,78.1687771 C10.2627283,78.1687771 12.4144052,80.3331042 12.4144052,84.6606083 C12.4144052,89.4849186 10.2627283,91.9010988 5.96512456,91.9010988 M2.55073188,89.6907711 L5.57986975,89.6907711 C8.43535544,89.6907711 9.86137327,88.0140502 9.86137327,84.6583082 C9.86137327,81.8016725 8.43535544,80.3733547 5.57986975,80.3733547 L2.55073188,80.3733547 L2.55073188,89.6907711 Z M15.0870386,91.9010988 L12.4684559,91.9010988 L18.3093789,78.1687771 L21.0510131,78.1687771 L27.0195877,91.9010988 L24.2756534,91.9010988 L22.5437318,88.1555019 L18.1357267,88.1555019 L19.0120377,85.9486244 L21.8709734,85.9486244 L19.6180952,80.7896599 L15.0870386,91.9010988 Z M25.5774697,78.1687771 L36.0196002,78.1687771 L36.0196002,80.3768047 L32.0739009,80.3768047 L32.0739009,91.9010988 L29.5243191,91.9010988 L29.5243191,80.3768047 L25.5763197,80.3768047 L25.5774697,78.1687771 L25.5774697,78.1687771 Z M37.3306166,91.9010988 L34.7120339,91.9010988 L40.5541069,78.1687771 L43.2957412,78.1687771 L49.2631658,91.9010988 L46.5192315,91.9010988 L44.7873098,88.1555019 L40.3793047,88.1555019 L41.2533157,85.9486244 L44.1122514,85.9486244 L41.8593732,80.7896599 L37.3306166,91.9010988 Z M56.9199615,91.9010988 L50.9548369,91.9010988 L50.9548369,78.1687771 L56.9199615,78.1687771 C61.2198652,78.1687771 63.3692421,80.3331042 63.3692421,84.6606083 C63.3692421,89.4849186 61.2198652,91.9010988 56.9199615,91.9010988 M53.5044188,89.6907711 L56.5358567,89.6907711 C59.3890424,89.6907711 60.8185102,88.0140502 60.8185102,84.6583082 C60.8185102,81.8016725 59.3890424,80.3733547 56.5358567,80.3733547 L53.5044188,80.3733547 L53.5044188,89.6907711 Z M65.0954137,85.0539132 C65.0954137,80.397505 67.4011925,78.0698759 72.0070001,78.0698759 C76.5426568,78.0698759 78.8093351,80.397505 78.8093351,85.0539132 C78.8093351,89.682721 76.5426568,92 72.0070001,92 C67.6047451,91.99885 65.3035663,89.682721 65.0954137,85.0539132 M72.0070001,89.7862223 C74.7773847,89.7862223 76.163152,88.1900024 76.163152,84.9952624 C76.163152,81.8499731 74.7773847,80.2756034 72.0070001,80.2756034 C69.1641646,80.2756034 67.7438968,81.8499731 67.7438968,84.9952624 C67.7450468,88.1900024 69.1653146,89.7862223 72.0070001,89.7862223 M89.4504181,86.3442293 L89.4504181,89.5585195 C88.8616108,89.7126214 88.3337542,89.7873723 87.8725984,89.7873723 C84.7526094,89.7873723 83.1954899,88.1394017 83.1954899,84.8423105 C83.1954899,81.7982225 84.8492106,80.2767535 88.1509019,80.2767535 C89.5309191,80.2767535 90.8131852,80.5332067 92,81.0461131 L92,78.7403343 C90.8143352,78.2929787 89.4676683,78.0675758 87.9588495,78.0675758 C83.0195377,78.0675758 80.5481569,80.323904 80.5481569,84.8411605 C80.5481569,89.6091201 82.9769872,91.9977 87.8334979,91.9977 C89.5044688,91.9977 90.8925362,91.7538969 92.00115,91.2662908 L92.00115,84.082151 L87.8829485,84.082151 L87.0215878,86.3419293 L89.4504181,86.3419293 L89.4504181,86.3442293 L89.4504181,86.3442293 Z" id="Shape"></path>
                <path d="M69.0146627,51.8046976 L62.9448868,47.8003475 L57.8813735,56.2587032 L51.9921499,54.5371317 L46.8067351,62.4515306 L47.0723884,64.9424618 L75.2672908,59.7466968 L73.6296704,42.1296266 L69.0146627,51.8046976 Z M42.721884,44.2100026 L47.2460406,43.5878448 C47.9774497,43.916749 48.4869061,44.0421005 49.3643671,44.2652033 C50.7317341,44.6205578 52.3130039,44.962112 54.6555832,43.7821973 C55.20069,43.5119439 56.3369042,42.4734809 56.7957599,41.8812235 L75.3293916,38.5197315 L77.2200153,61.4027175 L45.4669683,67.1251891 L42.721884,44.2100026 Z M77.1487144,35.9643996 L75.3190415,36.3128539 L71.8045976,5.68434189e-14 L11.917599,6.9437868 L19.2960912,66.8158352 L26.3065788,65.7980725 C25.7465218,64.9988125 24.8748109,64.0316504 23.3866923,62.7942349 C21.3224165,61.0795635 22.0515256,58.1654271 23.2705409,56.3254041 C24.881711,53.2169152 33.1836648,49.2666158 32.7133089,44.2985537 C32.5442568,42.4918811 32.2579032,40.1412518 30.5800323,38.5289316 C30.5167815,39.19824 30.6306329,39.841098 30.6306329,39.841098 C30.6306329,39.841098 29.9417743,38.962487 29.59907,37.7653221 C29.2586657,37.3053163 28.9907124,37.1592645 28.6284579,36.5451568 C28.3697046,37.2547157 28.4042051,38.078126 28.4042051,38.078126 C28.4042051,38.078126 27.840698,36.7475593 27.7498469,35.6239953 C27.4163427,36.1265516 27.3323917,37.0810635 27.3323917,37.0810635 C27.3323917,37.0810635 26.6009825,34.9834373 26.7677346,33.8529732 C26.4342304,32.8697109 25.4440681,30.9181365 25.7235215,26.483681 C27.5508944,27.763647 31.5747947,27.4600433 33.1422643,25.1496644 C33.6620708,24.3837548 34.0197252,22.2953287 32.882361,18.1782772 C32.1521019,15.5389942 30.3442793,11.6082451 29.6393205,10.1166765 L29.5553694,10.1776272 C29.9268241,11.3793922 30.6927337,13.8967737 30.9871373,15.119239 C31.8772485,18.8222853 32.1153014,20.1126014 31.6978462,21.8203728 C31.3424918,23.3050413 30.4903311,24.2756534 28.3306041,25.361267 C26.1708771,26.4503306 23.3038913,23.7995475 23.123339,23.6534957 C21.0245628,21.9813748 19.4007425,19.2546907 19.2201903,17.9287241 C19.0315879,16.478556 20.0562507,15.6079951 20.5726072,14.4223303 C19.8331479,14.6327829 19.0097376,15.0088376 19.0097376,15.0088376 C19.0097376,15.0088376 19.9929999,13.9910749 21.2051151,13.1113139 C21.7076713,12.7789597 22.002075,12.5673571 22.5310816,12.1280516 C21.7651721,12.1154014 21.1430143,12.1372517 21.1430143,12.1372517 C21.1430143,12.1372517 22.4206803,11.4472431 23.7443468,10.9446868 C22.7760347,10.9021363 21.8479731,10.9377867 21.8479731,10.9377867 C21.8479731,10.9377867 24.6988587,9.66242078 26.9494369,8.72745909 C28.4973562,8.09265116 30.0096251,8.2801035 30.8594857,9.50946887 C31.9749997,11.119489 33.1468643,11.9934999 35.6297454,12.5351567 C37.1546644,11.8589482 37.6169702,11.5127939 39.5328942,10.9895374 C41.2188152,9.13456418 42.5424818,8.89536119 42.5424818,8.89536119 C42.5424818,8.89536119 41.8858236,9.49796872 41.7098714,10.4444306 C42.6655333,9.69117114 43.7131964,9.06211328 43.7131964,9.06211328 C43.7131964,9.06211328 43.3072413,9.56236953 42.9288866,10.3581795 L43.0162877,10.4892811 C44.1318016,9.81997275 45.442818,9.29326617 45.442818,9.29326617 C45.442818,9.29326617 45.0679133,9.76707209 44.6286079,10.3800298 C45.4704184,10.3731297 47.1758897,10.4156802 47.838298,10.4904311 C51.7471968,10.5766822 52.557957,6.31702896 54.0575757,5.78227228 C55.9355492,5.1118139 56.7750597,4.70585882 59.9755497,7.84999812 C62.720634,10.5502319 64.8665608,15.3802923 63.8004975,16.4624558 C62.9069363,17.360617 61.1451143,16.1117014 59.1923899,13.678271 C58.160827,12.3891049 57.3799672,10.8653358 57.0142627,8.92871161 C56.7060588,7.29454118 55.5054438,6.34692934 55.5054438,6.34692934 C55.5054438,6.34692934 56.2012025,7.89944874 56.2012025,9.26681584 C56.2012025,10.0143252 56.2943537,12.8077101 57.4926687,14.3763297 C57.3742172,14.6051826 57.3190165,15.5102439 57.1879148,15.683896 C55.7940974,13.999125 52.80061,12.7939099 52.3118539,12.4385555 C53.9644246,13.7921224 57.761772,16.9017613 59.2199902,19.8837485 C60.6000075,22.7024338 59.7869473,25.2865161 60.4850061,25.9546744 C60.6839585,26.1455768 63.4520432,29.5956199 63.9844998,31.3286916 C64.9137114,34.3486294 64.0397005,37.523819 62.8241353,39.4926437 L59.4281429,40.0216503 C58.9313366,39.8836485 58.5966825,39.8146477 58.1516269,39.5570445 C58.39773,39.122339 58.8853361,38.0390255 58.8899361,37.8147727 L58.6978837,37.4789685 C57.6410205,38.9762872 55.8711484,40.4299054 54.40028,41.2648158 C52.4751559,42.3561795 50.2567782,42.1871273 48.8123602,41.7409218 C44.7137089,40.477056 40.8370105,37.7066713 39.9020488,36.9787122 C39.9020488,36.9787122 39.8732984,37.5594695 40.0492506,37.6905711 C41.0819635,38.8566857 43.4498431,40.9646621 45.7395217,42.4355304 L40.8600108,42.9725872 L43.1669396,60.9323617 C42.1445768,61.0784135 41.9847248,61.1508644 40.8657608,61.3095664 C39.8790485,57.8238728 37.9918749,55.5479943 35.9287491,54.2220278 C34.1094264,53.0524632 31.600095,52.7891099 29.198865,53.2652158 L29.0447631,53.4446181 C30.7145839,53.2709659 32.6857086,53.5124689 34.7108839,54.7947349 C36.6981087,56.0517006 38.3000788,59.2981912 38.8900361,61.2520657 C39.6455956,63.7498969 40.1677021,66.4225303 38.1344767,69.2550157 C36.6889086,71.2686909 32.4683559,72.3807548 29.0574132,69.9737747 C29.9682246,71.438893 31.19874,72.636058 32.8570607,72.8614608 C35.3180915,73.196115 37.6537707,72.7683096 39.2614908,71.118039 C40.6334579,69.7069713 41.362567,66.7560345 41.1705146,63.6486956 L43.3428918,63.3335917 L44.1272016,68.9111614 L80.082401,64.5813573 L77.1487144,35.9643996 Z M55.2731409,20.8175602 C55.1730897,21.0464131 55.0143877,21.197065 55.2512906,21.9422743 L55.2650908,21.9848248 L55.3030413,22.081426 L55.4019425,22.3045288 C55.8285979,23.1773897 56.2966537,23.99965 57.0809635,24.4205553 C57.283366,24.3860548 57.4938187,24.3630545 57.7111714,24.3527044 C58.4471806,24.320504 58.9117864,24.4366555 59.2050401,24.5953574 C59.2314904,24.4481556 59.2372405,24.2342529 59.2211403,23.917999 C59.1636395,22.8128352 59.439643,20.9337117 57.3155664,19.9446993 C56.5140064,19.5732447 55.3892924,19.6870961 55.0143877,20.1517019 C55.0822385,20.160902 55.1431893,20.1747022 55.1914899,20.1908024 C55.759597,20.3874548 55.3754922,20.5829573 55.2731409,20.8175602 M61.2279153,31.1285891 C60.9496119,30.9744872 59.6477956,31.0354379 58.7323842,31.1446893 C56.9889624,31.3505419 55.1063888,31.9542994 54.6946837,32.2763035 C53.9448743,32.8559107 54.2852786,33.8656233 54.8395855,34.2807785 C56.3932549,35.441143 57.7548719,36.2197027 59.1912399,36.0299504 C60.0733009,35.9137989 60.8518606,34.5165315 61.4027175,33.2492156 C61.7799222,32.3763547 61.7799222,31.4344929 61.2279153,31.1285891 M45.7935724,22.1849273 C46.2846286,21.7180215 43.3451918,21.1050638 41.0635633,22.6610333 C39.3810923,23.8087476 39.3270416,26.2697784 40.9382117,27.6647458 C41.0992137,27.8027475 41.2326154,27.9004988 41.3556669,27.9809998 C41.8260228,27.759047 42.3619295,27.5359442 42.9794872,27.3358417 C44.0214003,26.9977375 44.8885111,26.8229353 45.60037,26.7297841 C45.9407743,26.3491294 46.3375292,25.678671 46.238628,24.4642558 C46.1029263,22.8162852 44.8563107,23.0773385 45.7935724,22.1849273" id="Shape"></path>
            </g>
        </g>
    </g>
</svg>