<?xml version="1.0" encoding="UTF-8"?>
<svg width="158px" height="61px" viewBox="0 0 158 61" version="1.1" xmlns="http://www.w3.org/2000/svg" xmlns:xlink="http://www.w3.org/1999/xlink">
    <title>Debian</title>
    <g  stroke="none" stroke-width="1" fill="none" fill-rule="evenodd">
        <g id="Partner" transform="translate(-1021.000000, -1225.000000)" fill="#0A2229" fill-rule="nonzero">
            <g id="Debian" transform="translate(1021.062928, 1225.519702)">
                <path d="M32.4777086,33.1143213 C31.4899128,33.1382316 32.6660025,33.6313823 33.9601494,33.8196762 L34.9240349,32.996264 C34.124533,33.1845579 33.3011208,33.1845579 32.4777086,33.1143213 M37.7932752,31.7977584 C38.3820672,30.9743462 38.8049813,30.1046077 38.9693649,29.1870486 C38.8273973,29.8460772 38.4747198,30.4109589 38.1459527,30.9982565 C36.2884184,32.1504359 37.9815691,30.3153176 38.1459527,29.6099626 C36.1464508,32.1026152 37.8635118,31.0924035 37.7932752,31.7977584 M39.7464508,26.6929016 C39.8645081,24.905604 39.3937733,25.4689913 39.2293898,26.1519303 C39.4176837,26.2699875 39.5581569,27.4221669 39.7464508,26.6929016 M28.7372354,2.37011208 C29.2542964,2.46425903 29.8894147,2.53449564 29.7952677,2.65255293 C30.3601494,2.53449564 30.5006227,2.41793275 28.7372354,2.37011208 M29.7952677,2.67646326 L29.41868,2.74669988 L29.7713574,2.72278954 L29.7952677,2.67496887 M42.7083437,26.0562889 C42.7785803,27.6552927 42.237609,28.4323786 41.7683686,29.7967621 L40.9210461,30.2196762 C40.2156912,31.5840598 40.9912827,31.0894147 40.498132,32.1713574 C39.4161893,33.1352428 37.1820672,35.2064757 36.4752179,35.3932752 C35.9581569,35.3932752 36.8278954,34.7820672 36.9459527,34.5459527 C35.4874222,35.5576588 35.769863,36.0508095 33.535741,36.6635118 L33.4655044,36.5230386 C27.9616438,39.1113325 20.2938979,33.9825654 20.4104608,26.9723537 C20.3641345,27.4191781 20.2460772,27.3011208 20.1280199,27.4894147 C19.8455791,23.8909091 21.7972603,20.2684932 25.0909091,18.7860523 C28.3128269,17.1870486 32.0772105,17.8460772 34.3815691,19.9860523 C33.1113325,18.3392279 30.5947696,16.5758406 27.607472,16.7402242 C24.690411,16.7880448 21.9392279,18.6455791 21.0455791,20.6689913 C19.5407223,21.6089664 19.3763387,24.3153176 18.7173101,24.8084682 C17.8475716,31.2537983 20.3641345,34.052802 24.6455791,37.3225405 C25.3270237,37.7693649 24.833873,37.8396015 24.9280199,38.192279 C23.5173101,37.5332503 22.1992528,36.5230386 21.1412204,35.2991283 C21.7061021,36.1225405 22.3173101,36.9459527 23.116812,37.581071 C21.7763387,37.1342466 19.9890411,34.3352428 19.4704857,34.2171856 C21.7763387,38.3566625 28.8552927,41.4859278 32.5494396,39.9332503 C30.8323786,40.0034869 28.6684932,39.9571606 26.7392279,39.2503113 C25.939726,38.8273973 24.833873,37.9800747 25.0221669,37.8156912 C30.079203,39.6971357 35.2782067,39.2503113 39.6537983,35.7459527 C40.7596513,34.8762142 41.9820672,33.4176837 42.3362391,33.3937733 C41.8191781,34.1932752 42.4303861,33.7703611 42.0298879,34.4757161 C43.135741,32.6884184 41.5591532,33.7464508 43.1820672,31.3942715 L43.7932752,32.2176837 C43.558655,30.7352428 45.6283935,28.9240349 45.4161893,26.5957659 C45.886924,25.890411 45.9332503,27.3728518 45.4400996,29.0181818 C46.1454545,27.1830635 45.6283935,26.9006227 45.7927771,25.3718555 C45.981071,25.8889166 46.2396015,26.4298879 46.3800747,26.9484433 C45.9332503,25.1835616 46.8508095,23.9611457 47.0630137,22.9494396 C46.8283935,22.8552927 46.3576588,23.7250311 46.2635118,21.6328767 C46.2874222,20.7153176 46.5220423,21.162142 46.6161893,20.9275218 C46.4278954,20.8333748 45.981071,20.1280199 45.6986301,18.7875467 C45.9108344,18.4811955 46.2396015,19.6109589 46.5220423,19.6348692 C46.3337484,18.5768369 46.0273973,17.777335 46.0273973,16.9524284 C45.2039851,15.2353674 45.7449564,17.1870486 45.0635118,16.2231631 C44.1937733,13.494396 45.7927771,15.5880448 45.886924,14.3656289 C47.2049813,16.2709838 47.9566625,19.2582814 48.30934,20.4806974 C48.0484542,18.9927366 47.6384162,17.5348236 47.0854296,16.1290162 C47.4859278,16.2933998 46.4503113,13.0475716 47.6024907,15.1890411 C46.3561644,10.6027397 42.2630137,6.29738481 38.5001245,4.29788294 C38.9708593,4.72079701 39.535741,5.23785803 39.3235367,5.33200498 C37.4420922,4.22615193 37.7708593,4.13200498 37.5123288,3.66276463 C35.9835616,3.05155666 35.8894147,3.70909091 34.8777086,3.66276463 C32.0084682,2.13399751 31.4435866,2.29838107 28.8089664,1.33449564 L28.9270237,1.89937733 C27.0216687,1.26425903 26.7153176,2.13399751 24.6455791,1.89937733 C24.5275218,1.80523039 25.3046077,1.54669988 25.9636364,1.45255293 C24.1285181,1.6871731 24.1987547,1.09987547 22.411457,1.52278954 C22.8582814,1.21643836 23.3290162,1.00572852 23.7997509,0.747198007 C22.2948941,0.841344956 20.2012453,1.61693649 20.8587796,0.911581569 C18.4124533,2.01743462 14.0607721,3.54620174 11.6144458,5.82814446 L11.5442092,5.31108344 C10.4159402,6.65155666 6.675467,9.33399751 6.36911582,11.0734745 L6.06276463,11.1437111 C5.475467,12.1315068 5.0988792,13.2373599 4.6505604,14.2729763 C3.89738481,15.5671233 3.54470735,14.766127 3.6388543,14.9783313 C2.13549191,18.0119552 1.40622665,20.5763387 0.747198007,22.6699875 C1.19402242,23.3514321 0.747198007,26.7855542 0.935491905,29.5382316 C0.182316314,43.1342466 10.4622665,56.3297634 21.7300125,59.3648817 C23.3768369,59.9521793 25.8231631,59.9297634 27.916812,60 C25.4465753,59.2946451 25.1417186,59.6234122 22.7417186,58.8 C21.0246575,57.9765878 20.6241594,57.0590286 19.4017435,56.0009963 L19.8963885,56.8483188 C17.4963885,56.0009963 18.5080946,55.7902864 16.5564134,55.1790785 L17.0734745,54.4976339 C16.2978829,54.4273973 15.003736,53.1795766 14.6510585,52.498132 L13.803736,52.5220423 C12.7920299,51.2518057 12.2271482,50.3581569 12.2749689,49.652802 L11.8983811,50.0757161 C11.5920299,49.5347447 8.13549191,45.3474471 9.92278954,46.3128269 C9.59402242,46.0064757 9.14719801,45.8181818 8.67646326,44.9484433 L9.02914072,44.5255293 C8.15940224,43.4196762 7.45255293,41.985056 7.5003736,41.5143213 C7.97110834,42.1255293 8.27745953,42.2435866 8.60622665,42.3616438 C6.41843088,36.9519303 6.3003736,42.0552927 4.65504359,36.8577833 L5.00772105,36.833873 C4.74919054,36.4333748 4.58480697,35.9865504 4.37260274,35.5636364 L4.51457036,34.0587796 C2.93798257,32.2475716 4.06774595,26.3671233 4.30236613,23.1212951 C4.46674969,21.8047323 5.61892902,20.4164384 6.49016189,18.2047323 L5.94919054,18.1105853 C6.96089664,16.3232877 11.7833126,10.9599004 13.9935243,11.2423412 C15.075467,9.87795766 13.78132,11.2423412 13.5706102,10.8896638 C15.9466999,8.44333748 16.6759651,9.1486924 18.2749689,8.72577833 C19.9920299,7.71407223 16.792528,9.12627646 17.6159402,8.3252802 C20.6032379,7.57210461 19.7334994,6.58430884 23.6144458,6.20772105 C24.014944,6.44234122 22.6744707,6.56039851 22.3202989,6.86674969 C24.7905355,5.64283935 30.1763387,5.9267746 33.6582814,7.54819427 C37.7036115,9.42963885 42.2435866,15.0276463 42.4318804,20.2968867 L42.6440847,20.343213 C42.5499377,22.4368618 42.9728518,24.8592777 42.2211706,27.0709838 L42.7158157,26.0592777" id="Shape"></path>
                <path d="M21.7046077,34.4787049 L21.5641345,35.1616438 C22.2231631,36.0552927 22.7402242,36.9967621 23.5636364,37.6782067 C22.9524284,36.5260274 22.505604,36.0552927 21.7046077,34.4787049 M23.2333748,34.4084682 C22.8806974,34.0318804 22.6924035,33.5611457 22.4577833,33.1143213 C22.6699875,33.9138232 23.116812,34.5967621 23.539726,35.3021171 L23.2333748,34.4084682 M50.4014944,28.5041096 L50.2610212,28.8806974 C50.0024907,30.762142 49.4136986,32.6435866 48.5439601,34.3845579 C49.5098422,32.5511582 50.1394636,30.5595504 50.4029888,28.5041096 M28.9270237,1.90087173 C29.5860523,1.66625156 30.5738481,1.76039851 31.279203,1.59452055 L28.5265255,1.82914072 L28.9270237,1.89937733 M5.4739726,14.3671233 C5.63835616,15.8017435 4.39202989,16.3427148 5.75641345,15.4012453 C6.46176837,13.8022416 5.45006227,14.9783313 5.4739726,14.3671233 M3.89738481,20.9768369 C4.20373599,20.0368618 4.2739726,19.4480697 4.39202989,18.9070984 C3.52229141,19.9890411 3.99153176,20.2251557 3.89738481,20.9768369" id="Shape"></path>
                <path d="M59.0405978,35.1048568 C59.0405978,46.8806974 65.2976339,46.8806974 66.2286426,46.8806974 C68.8273973,46.8806974 70.4966376,45.4684932 71.2019925,42.9982565 L71.2976339,46.720797 L74.184807,46.592279 L75.3399751,46.6251557 C75.6612702,46.6251557 76.0139477,46.6580324 76.3995019,46.720797 C75.7255293,45.3728518 75.2443337,42.388543 75.2443337,35.8430884 C75.2443337,29.490411 75.2443337,18.7412204 75.7897883,15.4684932 C74.2819427,16.1738481 72.9982565,16.656538 70.1424658,16.8806974 C71.2662516,18.1001245 71.2662516,18.7098381 71.2662516,24.2286426 C70.4637609,23.9716065 69.4684932,23.683188 67.7693649,23.683188 C60.2615193,23.7474471 59.0420922,30.2615193 59.0420922,35.1063512 M71.1706102,30.1972603 C71.1392279,30.2286426 71.1392279,36.9668742 71.0420922,38.7317559 C70.9464508,40.1439601 70.8179328,43.1910336 67.8336239,43.1910336 C64.7536737,43.1910336 63.9825654,39.6298879 63.7270237,38.0891656 C63.4386052,36.388543 63.4386052,34.9449564 63.4386052,34.3352428 C63.4386052,32.313325 63.5671233,26.7302615 68.2834371,26.7302615 C69.6956413,26.7302615 70.4966376,27.147198 71.1392279,27.4684932 L71.1706102,30.1972603 Z M92.988792,33.4057285 C92.988792,28.5280199 92.026401,23.7160648 85.8336239,23.7160648 C77.2991283,23.7160648 77.2991283,33.1501868 77.2991283,35.1706102 C77.2991283,43.6408468 81.1173101,47.0107098 87.5028643,47.0107098 C90.358655,47.0107098 91.7379826,46.5937733 92.4762142,46.3696139 C92.4433375,44.8617684 92.6361146,43.8993773 92.8931507,42.6156912 C92.026401,43.1611457 90.8712329,43.8665006 88.3696139,43.8665006 C81.8555417,43.8665006 81.7599004,37.9307597 81.7599004,35.8774595 L92.8946451,35.8774595 L92.9902864,33.4072229 M81.7285181,32.9902864 C81.7599004,29.5247821 82.4667497,26.4119552 85.4510585,26.4119552 C88.7237858,26.4119552 88.9479452,30.0059776 88.8836862,32.9902864 L81.7285181,32.9902864 Z M94.5937733,39.7613948 C94.5937733,42.841345 94.5937733,44.6062267 94.0797011,45.9541719 C95.7803238,46.6281445 97.9307597,47.0136986 100.465255,47.0136986 C102.101619,47.0136986 106.817933,47.0136986 109.385305,41.7833126 C110.604732,39.3444583 111.021669,36.1046077 111.021669,33.6343711 C111.021669,32.1265255 110.861768,28.8209215 109.642341,26.7362391 C108.487173,24.7785803 106.593773,23.784807 104.57335,23.784807 C100.562391,23.784807 99.3758406,27.1217933 98.766127,28.8537983 C98.766127,26.7362391 98.7975093,19.2926526 99.1516812,15.4744707 C96.4244085,16.7252802 94.7566625,16.950934 92.9589041,17.1108344 C94.5952677,17.784807 94.5952677,20.543462 94.5952677,29.5277709 L94.5952677,39.7628892 M106.595268,35.2064757 C106.595268,39.0889166 105.889913,44.3193026 101.045081,44.3193026 C100.371108,44.3193026 99.5372354,44.1907846 98.9917808,44.0622665 C98.8961395,42.5544209 98.8961395,39.9556663 98.8961395,36.9713574 C98.8961395,33.377335 99.2816936,31.4839352 99.5701121,30.5858032 C100.436862,27.6343711 102.425903,27.5701121 102.77858,27.5701121 C105.987049,27.5701121 106.596762,31.9337484 106.596762,35.2064757 L106.595268,35.2064757 Z M119.076463,46.7566625 C118.24259,46.6281445 117.664259,46.5325031 116.444832,46.5325031 C115.37132,46.5292576 114.298996,46.6041755 113.236364,46.7566625 C113.6533,45.9541719 113.8132,45.5686177 113.941719,42.8742217 C114.101619,39.1516812 114.165878,29.2049813 113.846077,27.1202989 C113.621918,25.5153176 113.26924,25.2911582 112.690909,24.8742217 C116.123537,24.5529265 117.087422,24.2973848 118.659527,23.5262765 C118.338232,25.3554172 118.273973,26.2849315 118.273973,29.0764633 C118.176837,43.4839352 118.145455,45.0231631 119.076463,46.7566625 M120.969863,40.0498132 C120.969863,42.6814446 121.772354,45.3115816 124.114072,46.4353674 C125.172105,46.8851806 126.200249,46.8851806 126.552927,46.8851806 C130.403985,46.8851806 131.686177,44.0293898 132.488667,42.2973848 C132.457285,44.1265255 132.488667,45.2488169 132.617186,46.7252802 C133.355417,46.6938979 134.125031,46.5967621 135.375841,46.5967621 C136.081196,46.5967621 136.755168,46.6924035 137.462017,46.7252802 C137.012204,46.0199253 136.756663,45.6029888 136.628144,43.9651308 C136.532503,42.3930262 136.532503,40.7895392 136.532503,38.5748443 L136.56538,30.0403487 C136.56538,26.8632628 135.731507,23.7190535 129.441594,23.7190535 C125.302117,23.7190535 122.864757,24.969863 121.676712,25.6124533 C122.316732,26.6888794 122.75196,27.8744828 122.960399,29.10934 C124.596762,27.6971357 126.714321,26.9275218 128.896139,26.9275218 C132.361644,26.9275218 132.361644,29.237858 132.361644,32.479203 C131.559153,32.4463263 130.885181,32.3506849 129.762889,32.3506849 C124.468244,32.414944 120.971357,34.4682441 120.971357,40.0513076 M132.45878,34.9180573 C132.363138,37.5496887 132.330262,39.377335 131.624907,40.8537983 C130.758157,42.747198 129.281694,43.2926526 128.192279,43.2926526 C125.689166,43.2926526 125.143711,41.2064757 125.143711,39.1531756 C125.143711,35.2393524 128.640598,34.9180573 130.245579,34.9180573 L132.45878,34.9180573 Z M156.555915,42.61868 C156.588792,44.0308842 156.588792,45.5387298 157.197011,46.7581569 C156.266002,46.6625156 155.720548,46.5339975 154.02142,46.5339975 C153.026152,46.5339975 152.480697,46.6296389 151.679701,46.7581569 C151.839601,46.2127024 151.936737,46.0199253 152.000996,45.2816936 C152.129514,44.3193026 152.225156,41.1108344 152.225156,39.9870486 L152.225156,35.4620174 C152.225156,33.5043587 152.225156,30.6485679 152.096638,29.6547945 C152.000996,28.9494396 151.808219,27.0231631 149.369365,27.0231631 C146.99477,27.0231631 146.193773,28.7880448 145.903861,30.1987547 C145.582565,31.6752179 145.582565,33.2473225 145.582565,39.4400996 C145.615442,44.7990037 145.615442,45.2801993 146.032379,46.7551681 C145.327024,46.6595268 144.460274,46.5952677 143.176588,46.5952677 C142.182814,46.5952677 141.508842,46.6281445 140.673474,46.7551681 C140.961893,46.0811955 141.123288,45.7599004 141.218929,43.4181818 C141.31457,41.1078456 141.475965,29.8132005 141.090411,27.1501868 C140.897634,25.5138232 140.449315,25.128269 139.999502,24.7113325 C143.400747,24.5514321 144.45878,24.0059776 145.518306,23.460523 L145.518306,27.8899128 C146.030884,26.6062267 147.057534,23.7190535 151.26127,23.7190535 C156.491656,23.7190535 156.523039,27.5372354 156.555915,30.0403487 L156.555915,42.61868" id="Shape"></path>
                <polyline  points="119.427646 17.5860523 115.962142 21.0515567 112.496638 17.5860523 115.962142 14.1205479 119.427646 17.5860523"></polyline>
                <path d="M31.7305106,32.3671233 C30.7427148,32.3910336 31.9188045,32.8841843 33.2129514,33.0724782 L34.1768369,32.249066 C33.377335,32.4373599 32.5539228,32.4373599 31.7305106,32.3671233 M37.0460772,31.0505604 C37.6348692,30.2271482 38.0577833,29.3574097 38.2221669,28.4398506 C38.0801993,29.0988792 37.7275218,29.6637609 37.3987547,30.2510585 C35.5412204,31.4032379 37.2343711,29.5681196 37.3987547,28.8627646 C35.3992528,31.3554172 37.1163138,30.3452055 37.0460772,31.0505604 M38.9992528,25.9457036 C39.1173101,24.158406 38.6465753,24.7217933 38.4821918,25.4047323 C38.6704857,25.5227895 38.8109589,26.6749689 38.9992528,25.9457036 M27.9900374,1.62291407 C28.5070984,1.71706102 29.1422167,1.78729763 29.0480697,1.90535492 C29.6129514,1.78729763 29.7534247,1.67073474 27.9900374,1.62291407 M29.0480697,1.92926526 L28.6714819,1.99950187 L29.0241594,1.97559153 L29.0480697,1.92777086 M41.9611457,25.3090909 C42.0313823,26.9080946 41.490411,27.6851806 41.0211706,29.0495641 L40.1738481,29.4724782 C39.4684932,30.8368618 40.2440847,30.3422167 39.750934,31.4241594 C38.6689913,32.3880448 36.4348692,34.4592777 35.7280199,34.6460772 C35.2109589,34.6460772 36.0806974,34.0348692 36.1987547,33.7987547 C34.7402242,34.8104608 35.022665,35.3036115 32.788543,35.9163138 L32.7183064,35.7758406 C27.2144458,38.3641345 19.5466999,33.2353674 19.6632628,26.2251557 C19.6169365,26.6719801 19.4988792,26.5539228 19.3808219,26.7422167 C19.0983811,23.1437111 21.0500623,19.5212951 24.3437111,18.0388543 C27.5656289,16.4398506 31.3300125,17.0988792 33.6343711,19.2388543 C32.3641345,17.5920299 29.8475716,15.8286426 26.860274,15.9930262 C23.943213,16.0408468 21.1920299,17.8983811 20.2983811,19.9217933 C18.7935243,20.8617684 18.6291407,23.5681196 17.9701121,24.0612702 C17.1003736,30.5066002 19.6169365,33.305604 23.8983811,36.5753425 C24.5798257,37.0221669 24.086675,37.0924035 24.1808219,37.4450809 C22.7701121,36.7860523 21.4520548,35.7758406 20.3940224,34.5519303 C20.9589041,35.3753425 21.5701121,36.1987547 22.3696139,36.833873 C21.0291407,36.3870486 19.2418431,33.5880448 18.7232877,33.4699875 C21.0291407,37.6094645 28.1080946,40.7387298 31.8022416,39.1860523 C30.0851806,39.2562889 27.9212951,39.2099626 25.9920299,38.5031133 C25.192528,38.0801993 24.086675,37.2328767 24.2749689,37.0684932 C29.332005,38.9499377 34.5310087,38.5031133 38.9066002,34.9987547 C40.0124533,34.1290162 41.2348692,32.6704857 41.5890411,32.6465753 C41.0719801,33.4460772 41.683188,33.0231631 41.2826899,33.7285181 C42.388543,31.9412204 40.8119552,32.9992528 42.4348692,30.6470735 L43.0460772,31.4704857 C42.811457,29.9880448 44.8811955,28.1768369 44.6689913,25.8485679 C45.139726,25.143213 45.1860523,26.6256538 44.6929016,28.2709838 C45.3982565,26.4358655 44.8811955,26.1534247 45.0455791,24.6246575 C45.233873,25.1417186 45.4924035,25.6826899 45.6328767,26.2012453 C45.1860523,24.4363636 46.1036115,23.2139477 46.3158157,22.2022416 C46.0811955,22.1080946 45.6104608,22.9778331 45.5163138,20.8856787 C45.5402242,19.9681196 45.7748443,20.414944 45.8689913,20.1803238 C45.6806974,20.0861768 45.233873,19.3808219 44.9514321,18.0403487 C45.1636364,17.7339975 45.4924035,18.8637609 45.7748443,18.8876712 C45.5865504,17.8296389 45.2801993,17.030137 45.2801993,16.2052304 C44.456787,14.4881694 44.9977584,16.4398506 44.3163138,15.4759651 C43.4465753,12.747198 45.0455791,14.8408468 45.139726,13.6184309 C46.4577833,15.5237858 47.2094645,18.5110834 47.562142,19.7334994 C47.3012562,18.2455386 46.8912182,16.7876256 46.3382316,15.3818182 C46.7387298,15.5462017 45.7031133,12.3003736 46.8552927,14.4418431 C45.6089664,9.85554172 41.5158157,5.5501868 37.7529265,3.55068493 C38.2236613,3.973599 38.788543,4.49066002 38.5763387,4.58480697 C36.6948941,3.47895392 37.0236613,3.38480697 36.7651308,2.91556663 C35.2363636,2.30435866 35.1422167,2.9618929 34.1305106,2.91556663 C31.2612702,1.3867995 30.6963885,1.55118306 28.0617684,0.587297634 L28.1798257,1.15217933 C26.2744707,0.517061021 25.9681196,1.3867995 23.8983811,1.15217933 C23.7803238,1.05803238 24.5574097,0.799501868 25.2164384,0.705354919 C23.38132,0.939975093 23.4515567,0.35267746 21.664259,0.775591532 C22.1110834,0.469240349 22.5818182,0.258530511 23.0525529,0 C21.5476961,0.0941469489 19.4540473,0.869738481 20.1115816,0.164383562 C17.6652553,1.27023661 13.3135741,2.79900374 10.8672478,5.08094645 L10.7970112,4.56388543 C9.66874222,5.90435866 5.92826899,8.5867995 5.62191781,10.3262765 L5.31556663,10.3965131 C4.72826899,11.3843088 4.3516812,12.4901619 3.90336239,13.5257783 C3.1501868,14.8199253 2.79750934,14.018929 2.89165629,14.2311333 C1.3882939,17.2647572 0.659028643,19.8291407 0,21.9227895 C0.446824408,22.6042341 0,26.0383562 0.188293898,28.7910336 C-0.564881694,42.3870486 9.71506849,55.5825654 20.9828144,58.6176837 C22.6296389,59.2049813 25.0759651,59.1825654 27.1696139,59.252802 C24.6993773,58.5474471 24.3945205,58.8762142 21.9945205,58.052802 C20.2774595,57.2293898 19.8769614,56.3118306 18.6545455,55.2537983 L19.1491905,56.1011208 C16.7491905,55.2537983 17.7608966,55.0430884 15.8092154,54.4318804 L16.3262765,53.7504359 C15.5506849,53.6801993 14.256538,52.4323786 13.9038605,51.750934 L13.056538,51.7748443 C12.0448319,50.5046077 11.4799502,49.6109589 11.5277709,48.905604 L11.1511831,49.3285181 C10.8448319,48.7875467 7.3882939,44.6002491 9.17559153,45.5656289 C8.84682441,45.2592777 8.4,45.0709838 7.92926526,44.2012453 L8.28194271,43.7783313 C7.41220423,42.6724782 6.70535492,41.237858 6.75317559,40.7671233 C7.22391034,41.3783313 7.53026152,41.4963885 7.85902864,41.6144458 C5.67123288,36.2047323 5.55317559,41.3080946 3.90784558,36.1105853 L4.26052304,36.086675 C4.00199253,35.6861768 3.83760897,35.2393524 3.62540473,34.8164384 L3.76737235,33.3115816 C2.19078456,31.5003736 3.32054795,25.6199253 3.55516812,22.3740971 C3.71955168,21.0575342 4.87173101,19.6692403 5.74296389,17.4575342 L5.20199253,17.3633873 C6.21369863,15.5760897 11.0361146,10.2127024 13.2463263,10.4951432 C14.328269,9.13075965 13.034122,10.4951432 12.8234122,10.1424658 C15.1995019,7.69613948 15.9287671,8.4014944 17.5277709,7.97858032 C19.2448319,6.96687422 16.04533,8.37907846 16.8687422,7.57808219 C19.8560399,6.8249066 18.9863014,5.83711083 22.8672478,5.46052304 C23.267746,5.69514321 21.9272727,5.8132005 21.5731009,6.11955168 C24.0433375,4.89564134 29.4291407,5.17957659 32.9110834,6.80099626 C36.9564134,8.68244085 41.4963885,14.2804483 41.6846824,19.5496887 L41.8968867,19.5960149 C41.8027397,21.6896638 42.2256538,24.1120797 41.4739726,26.3237858 L41.9686177,25.3120797" id="Shape"></path>
                <path d="M20.9574097,33.7315068 L20.8169365,34.4144458 C21.4759651,35.3080946 21.9930262,36.2495641 22.8164384,36.9310087 C22.2052304,35.7788294 21.758406,35.3080946 20.9574097,33.7315068 M22.4861768,33.6612702 C22.1334994,33.2846824 21.9452055,32.8139477 21.7105853,32.3671233 C21.9227895,33.1666252 22.3696139,33.8495641 22.792528,34.5549191 L22.4861768,33.6612702 M49.6542964,27.7569116 L49.5138232,28.1334994 C49.2552927,30.014944 48.6665006,31.8963885 47.7967621,33.6373599 C48.7626442,31.8039602 49.3922656,29.8123524 49.6557908,27.7569116 M28.1798257,1.15367372 C28.8388543,0.919053549 29.8266501,1.0132005 30.532005,0.84732254 L27.7793275,1.08194271 L28.1798257,1.15217933 M4.7267746,13.6199253 C4.89115816,15.0545455 3.64483188,15.5955168 5.00921544,14.6540473 C5.71457036,13.0550436 4.70286426,14.2311333 4.7267746,13.6199253 M3.1501868,20.2296389 C3.45653798,19.2896638 3.5267746,18.7008717 3.64483188,18.1599004 C2.7750934,19.2418431 3.24433375,19.4779577 3.1501868,20.2296389" id="Shape"></path>
                <path d="M58.2933998,34.3576588 C58.2933998,46.1334994 64.5504359,46.1334994 65.4814446,46.1334994 C68.0801993,46.1334994 69.7494396,44.7212951 70.4547945,42.2510585 L70.5504359,45.973599 L73.437609,45.8450809 L74.5927771,45.8779577 C74.9140722,45.8779577 75.2667497,45.9108344 75.6523039,45.973599 C74.9783313,44.6256538 74.4971357,41.641345 74.4971357,35.0958904 C74.4971357,28.743213 74.4971357,17.9940224 75.0425903,14.7212951 C73.5347447,15.4266501 72.2510585,15.90934 69.3952677,16.1334994 C70.5190535,17.3529265 70.5190535,17.9626401 70.5190535,23.4814446 C69.7165629,23.2244085 68.7212951,22.93599 67.0221669,22.93599 C59.5143213,23.0002491 58.2948941,29.5143213 58.2948941,34.3591532 M70.4234122,29.4500623 C70.3920299,29.4814446 70.3920299,36.2196762 70.2948941,37.9845579 C70.1992528,39.3967621 70.0707347,42.4438356 67.0864259,42.4438356 C64.0064757,42.4438356 63.2353674,38.8826899 62.9798257,37.3419676 C62.6914072,35.641345 62.6914072,34.1977584 62.6914072,33.5880448 C62.6914072,31.566127 62.8199253,25.9830635 67.5362391,25.9830635 C68.9484433,25.9830635 69.7494396,26.4 70.3920299,26.7212951 L70.4234122,29.4500623 Z M92.241594,32.6585305 C92.241594,27.7808219 91.279203,22.9688667 85.0864259,22.9688667 C76.5519303,22.9688667 76.5519303,32.4029888 76.5519303,34.4234122 C76.5519303,42.8936488 80.3701121,46.2635118 86.7556663,46.2635118 C89.611457,46.2635118 90.9907846,45.8465753 91.7290162,45.6224159 C91.6961395,44.1145704 91.8889166,43.1521793 92.1459527,41.8684932 C91.279203,42.4139477 90.1240349,43.1193026 87.6224159,43.1193026 C81.1083437,43.1193026 81.0127024,37.1835616 81.0127024,35.1302615 L92.1474471,35.1302615 L92.2430884,32.6600249 M80.98132,32.2430884 C81.0127024,28.7775841 81.7195517,25.6647572 84.7038605,25.6647572 C87.9765878,25.6647572 88.2007472,29.2587796 88.1364882,32.2430884 L80.98132,32.2430884 Z M93.8465753,39.0141968 C93.8465753,42.0941469 93.8465753,43.8590286 93.3325031,45.2069738 C95.0331258,45.8809465 97.1835616,46.2665006 99.7180573,46.2665006 C101.354421,46.2665006 106.070735,46.2665006 108.638107,41.0361146 C109.857534,38.5972603 110.274471,35.3574097 110.274471,32.8871731 C110.274471,31.3793275 110.11457,28.0737235 108.895143,25.9890411 C107.739975,24.0313823 105.846575,23.037609 103.826152,23.037609 C99.815193,23.037609 98.6286426,26.3745953 98.018929,28.1066002 C98.018929,25.9890411 98.0503113,18.5454545 98.4044832,14.7272727 C95.6772105,15.9780822 94.0094645,16.203736 92.2117061,16.3636364 C93.8480697,17.037609 93.8480697,19.796264 93.8480697,28.7805729 L93.8480697,39.0156912 M105.84807,34.4592777 C105.84807,38.3417186 105.142715,43.5721046 100.297883,43.5721046 C99.6239103,43.5721046 98.7900374,43.4435866 98.2445828,43.3150685 C98.1489415,41.8072229 98.1489415,39.2084682 98.1489415,36.2241594 C98.1489415,32.630137 98.5344956,30.7367372 98.8229141,29.8386052 C99.6896638,26.8871731 101.678705,26.8229141 102.031382,26.8229141 C105.239851,26.8229141 105.849564,31.1865504 105.849564,34.4592777 L105.84807,34.4592777 Z M118.329265,46.0094645 C117.495392,45.8809465 116.917061,45.7853051 115.697634,45.7853051 C114.624122,45.7820596 113.551798,45.8569775 112.489166,46.0094645 C112.906102,45.2069738 113.066002,44.8214197 113.194521,42.1270237 C113.354421,38.4044832 113.41868,28.4577833 113.098879,26.3731009 C112.87472,24.7681196 112.522042,24.5439601 111.943711,24.1270237 C115.376339,23.8057285 116.340224,23.5501868 117.912329,22.7790785 C117.591034,24.6082192 117.526775,25.5377335 117.526775,28.3292653 C117.429639,42.7367372 117.398257,44.2759651 118.329265,46.0094645 M120.222665,39.3026152 C120.222665,41.9342466 121.025156,44.5643836 123.366874,45.6881694 C124.424907,46.1379826 125.453051,46.1379826 125.805729,46.1379826 C129.656787,46.1379826 130.938979,43.2821918 131.741469,41.5501868 C131.710087,43.3793275 131.741469,44.5016189 131.869988,45.9780822 C132.608219,45.9466999 133.377833,45.8495641 134.628643,45.8495641 C135.333998,45.8495641 136.00797,45.9452055 136.714819,45.9780822 C136.265006,45.2727273 136.009465,44.8557908 135.880946,43.2179328 C135.785305,41.6458281 135.785305,40.0423412 135.785305,37.8276463 L135.818182,29.2931507 C135.818182,26.1160648 134.984309,22.9718555 128.694396,22.9718555 C124.554919,22.9718555 122.117559,24.222665 120.929514,24.8652553 C121.569534,25.9416814 122.004762,27.1272848 122.2132,28.362142 C123.849564,26.9499377 125.967123,26.1803238 128.148941,26.1803238 C131.614446,26.1803238 131.614446,28.49066 131.614446,31.732005 C130.811955,31.6991283 130.137983,31.6034869 129.015691,31.6034869 C123.721046,31.667746 120.224159,33.7210461 120.224159,39.3041096 M131.711582,34.1708593 C131.61594,36.8024907 131.583064,38.630137 130.877709,40.1066002 C130.010959,42 128.534496,42.5454545 127.445081,42.5454545 C124.941968,42.5454545 124.396513,40.4592777 124.396513,38.4059776 C124.396513,34.4921544 127.8934,34.1708593 129.498381,34.1708593 L131.711582,34.1708593 Z M155.808717,41.8714819 C155.841594,43.2836862 155.841594,44.7915318 156.449813,46.0109589 C155.518804,45.9153176 154.97335,45.7867995 153.274222,45.7867995 C152.278954,45.7867995 151.733499,45.8824408 150.932503,46.0109589 C151.092403,45.4655044 151.189539,45.2727273 151.253798,44.5344956 C151.382316,43.5721046 151.477958,40.3636364 151.477958,39.2398506 L151.477958,34.7148194 C151.477958,32.7571606 151.477958,29.9013699 151.34944,28.9075965 C151.253798,28.2022416 151.061021,26.2759651 148.622167,26.2759651 C146.247572,26.2759651 145.446575,28.0408468 145.156663,29.4515567 C144.835367,30.9280199 144.835367,32.5001245 144.835367,38.6929016 C144.868244,44.0518057 144.868244,44.5330012 145.285181,46.0079701 C144.579826,45.9123288 143.713076,45.8480697 142.42939,45.8480697 C141.435616,45.8480697 140.761644,45.8809465 139.926276,46.0079701 C140.214695,45.3339975 140.37609,45.0127024 140.471731,42.6709838 C140.567372,40.3606476 140.728767,29.0660025 140.343213,26.4029888 C140.150436,24.7666252 139.702117,24.381071 139.252304,23.9641345 C142.653549,23.8042341 143.711582,23.2587796 144.771108,22.713325 L144.771108,27.1427148 C145.283686,25.8590286 146.310336,22.9718555 150.514072,22.9718555 C155.744458,22.9718555 155.775841,26.7900374 155.808717,29.2931507 L155.808717,41.8714819" id="Shape"></path>
                <polyline  points="118.680448 16.8388543 115.214944 20.3043587 111.74944 16.8388543 115.214944 13.3733499 118.680448 16.8388543"></polyline>
            </g>
        </g>
    </g>
</svg>