<?xml version="1.0" encoding="UTF-8"?>
<svg width="115px" height="79px" viewBox="0 0 115 79" version="1.1" xmlns="http://www.w3.org/2000/svg" xmlns:xlink="http://www.w3.org/1999/xlink">
    <title>Dockers</title>
    <g  stroke="none" stroke-width="1" fill="none" fill-rule="evenodd">
        <g id="Partner" transform="translate(-1042.000000, -2012.000000)" fill="#061D2F" fill-rule="nonzero">
            <path d="M1065.05786,2075.19992 C1061.81326,2075.19992 1058.86362,2072.66834 1058.86362,2069.57418 C1058.86362,2066.48003 1061.51829,2063.94845 1065.05786,2063.94845 C1068.59743,2063.94845 1071.25211,2066.48003 1071.25211,2069.57418 C1071.25211,2072.66834 1068.30247,2075.19992 1065.05786,2075.19992 Z M1141.15858,2044.53967 C1140.56865,2040.03908 1137.61901,2036.38235 1133.78448,2033.56948 L1132.30966,2032.44434 L1131.1298,2033.85077 C1128.77009,2036.38235 1127.8852,2040.88294 1128.18016,2044.25838 C1128.47513,2046.78996 1129.36002,2049.32154 1130.83484,2051.29055 C1129.65498,2051.85312 1128.18016,2052.41569 1127.00031,2052.97827 C1124.34563,2053.82213 1121.69096,2054.10341 1119.03628,2054.10341 L1042.6406,2054.10341 L1042.34563,2055.79113 C1041.7557,2061.13558 1042.6406,2066.76131 1045.00031,2071.82448 L1046.18016,2073.79348 L1046.18016,2074.07477 C1053.2593,2085.32624 1065.94275,2090.3894 1079.80606,2090.3894 C1106.35283,2090.3894 1128.18016,2079.41922 1138.50391,2055.79113 C1145.28808,2056.07242 1152.07225,2054.3847 1155.31686,2048.19639 L1156.20175,2046.78996 L1154.72693,2045.9461 C1150.89239,2043.69581 1145.58304,2043.41452 1141.15858,2044.53967 L1141.15858,2044.53967 Z M1103.10822,2040.03908 L1091.60463,2040.03908 L1091.60463,2051.00926 L1103.10822,2051.00926 L1103.10822,2040.03908 Z M1103.10822,2026.25603 L1091.60463,2026.25603 L1091.60463,2037.22621 L1103.10822,2037.22621 L1103.10822,2026.25603 Z M1103.10822,2012.19169 L1091.60463,2012.19169 L1091.60463,2023.16188 L1103.10822,2023.16188 L1103.10822,2012.19169 Z M1117.2665,2040.03908 L1105.7629,2040.03908 L1105.7629,2051.00926 L1117.2665,2051.00926 L1117.2665,2040.03908 Z M1074.49671,2040.03908 L1062.99311,2040.03908 L1062.99311,2051.00926 L1074.49671,2051.00926 L1074.49671,2040.03908 L1074.49671,2040.03908 Z M1088.94995,2040.03908 L1077.44635,2040.03908 L1077.44635,2051.00926 L1088.94995,2051.00926 L1088.94995,2040.03908 Z M1060.33844,2040.03908 L1048.83484,2040.03908 L1048.83484,2051.00926 L1060.33844,2051.00926 L1060.33844,2040.03908 L1060.33844,2040.03908 Z M1088.94995,2026.25603 L1077.44635,2026.25603 L1077.44635,2037.22621 L1088.94995,2037.22621 L1088.94995,2026.25603 Z M1074.49671,2026.25603 L1062.99311,2026.25603 L1062.99311,2037.22621 L1074.49671,2037.22621 L1074.49671,2026.25603 L1074.49671,2026.25603 Z" id="Dockers"></path>
        </g>
    </g>
</svg>