<?xml version="1.0" encoding="UTF-8"?>
<svg width="91px" height="85px" viewBox="0 0 91 85" version="1.1" xmlns="http://www.w3.org/2000/svg" xmlns:xlink="http://www.w3.org/1999/xlink">
    <title>F5Networks</title>
    <g  stroke="none" stroke-width="1" fill="none" fill-rule="evenodd">
        <g id="Partner" transform="translate(-232.000000, -942.000000)">
            <g id="F5Networks" transform="translate(232.766839, 942.519702)">
                <path d="M42,0 C55.3775591,0 67.294343,6.2543222 74.9858202,15.9984352 L75.4675676,16.0621622 L77.1702703,18.1432432 C77.1153309,18.3630006 77.0639369,18.582758 77.0154019,18.8026869 C81.429833,25.4489797 84,33.4243425 84,42 C84,65.1959595 65.1959595,84 42,84 C29.8027504,84 18.8198777,78.8006349 11.1468284,70.4973514 C10.8921128,70.4517105 10.6381406,70.4058168 10.3864865,70.3594595 L10.3864865,70.3594595 L7.92702703,67.3324324 C8.12015021,67.3324324 8.30735922,67.3284897 8.48805034,67.3206041 C3.1603639,60.2807531 0,51.5094478 0,42 C0,18.8040405 18.8040405,0 42,0 Z M52.0081081,13.4135135 C48.7918919,22.4945946 45.0081081,34.0351351 41.0351351,46.1432432 C61.6567568,47.8459459 69.6027027,53.5216216 69.2243243,61.2783784 C68.8459459,65.4405405 64.872973,69.4135135 59.7648649,69.7918919 C53.7108108,70.1702703 50.872973,67.7108108 49.1702703,65.0621622 C47.6567568,62.6027027 45.9540541,60.1432432 44.2513514,57.4945946 C43.872973,56.7378378 43.1162162,57.3054054 42.5486486,57.6837838 C41.2243243,58.8189189 40.0891892,60.1432432 38.9540541,61.2783784 C38.1972973,62.0351351 38.3864865,62.6027027 38.5756757,63.1702703 C39.7108108,65.8189189 40.8459459,68.4675676 41.9810811,70.927027 C43.872973,72.0621622 52.3864865,73.5756757 58.6297297,73.0081081 C62.9810811,72.6297297 68.2783784,70.927027 72.8189189,67.7108108 C77.1702703,64.3054054 80.3864865,59.7648649 80.9540541,52.3864865 C81.1432432,47.8459459 80.3864865,43.1162162 76.4135135,38.7648649 C72.4405405,34.4135135 65.6297297,30.8189189 51.8189189,29.872973 C52.5756757,27.6027027 53.1432432,25.5216216 53.9,23.4405405 C62.2243243,23.8189189 69.6027027,24.3864865 75.8459459,25.1432432 C76.3585742,22.9218543 76.5625311,20.8548009 77.0154019,18.8026869 C76.3783953,17.8389611 75.7003399,16.9036398 74.9858202,15.9984352 L75.4675676,16.0621622 C72.2513514,15.6837838 69.2243243,14.927027 65.8189189,14.5486486 C61.4675676,13.9810811 56.927027,13.6027027 52.0081081,13.4135135 Z M35.5486486,10.7648649 C34.0351351,10.7648649 31.9540541,11.1432432 28.5486486,11.9 C21.1702703,13.9810811 12.0891892,19.0891892 11.1432432,27.6027027 C10.9540541,28.927027 10.9540541,30.4405405 10.7648649,31.7648649 C8.68378378,31.9540541 6.79189189,32.1432432 4.9,32.3324324 C4.71081081,34.0351351 4.71081081,35.5486486 4.52162162,37.2513514 C6.41351351,37.0621622 8.30540541,37.0621622 10.3864865,36.872973 C10.0081081,45.7648649 10.3864865,54.6567568 11.1432432,62.9810811 C11.3324324,64.3054054 11.3324324,65.4405405 11.3324324,66.1972973 C11.1625556,66.8768048 10.077463,67.2512404 8.48805034,67.3206041 C9.32244021,68.4234465 10.2099629,69.4835355 11.1468284,70.4973514 C18.2121288,71.7490813 26.994503,72.6363522 36.3054054,72.8189189 L36.3054054,69.9810811 C30.6297297,69.6027027 27.9810811,68.8459459 27.6027027,67.7108108 C27.2243243,66.7648649 27.2243243,65.4405405 27.0351351,64.1162162 C26.6567568,55.4135135 26.4675676,45.9540541 26.6567568,36.3054054 C29.872973,36.3054054 33.0891892,36.3054054 36.3054054,36.1162162 C38.0081081,35.3594595 39.5216216,34.6027027 41.0351351,33.8459459 L41.0351351,30.6297297 C36.1162162,30.6297297 31.3864865,30.8189189 26.6567568,30.8189189 C26.8459459,26.8459459 27.0351351,23.0621622 27.2243243,19.4675676 C27.4135135,17.0081081 29.1162162,15.3054054 30.6297297,15.3054054 C33.2783784,15.1162162 35.7378378,16.2513514 38.1972973,17.3864865 C39.5216216,17.9540541 40.8459459,18.7108108 42.1702703,19.2783784 C42.7378378,19.4675676 43.4945946,19.6567568 44.0621622,19.0891892 C44.8189189,18.1432432 45.5756757,17.1972973 46.3324324,16.4405405 C46.7108108,15.872973 46.5216216,15.4945946 46.3324324,15.3054054 C44.6297297,13.9810811 43.1162162,12.8459459 41.4135135,11.5216216 C40.4675676,10.7648649 38.7648649,10.7648649 37.2513514,10.7648649 C36.6837838,10.5756757 36.1162162,10.7648649 35.5486486,10.7648649 Z" id="Combined-Shape" fill="#0A2229" fill-rule="nonzero"></path>
                <text id="R" fill="#E21D38" fill-rule="nonzero" font-family="Helvetica" font-size="2.2" font-weight="normal">
                    <tspan x="85.5042432" y="64.7265648">R</tspan>
                </text>
                <circle id="Oval" stroke="#E21D38" stroke-width="0.2742" cx="86.8945946" cy="68.0513514" r="2.89459459"></circle>
            </g>
        </g>
    </g>
</svg>