<?xml version="1.0" encoding="UTF-8"?>
<svg width="158px" height="109px" viewBox="0 0 158 109" version="1.1" xmlns="http://www.w3.org/2000/svg" xmlns:xlink="http://www.w3.org/1999/xlink">
    <title>fortinet</title>
    <g  stroke="none" stroke-width="1" fill="none" fill-rule="evenodd">
        <g id="Partner" transform="translate(-202.000000, -1732.000000)" fill-rule="nonzero">
            <g id="fortinet" transform="translate(202.249503, 1732.987304)">
                <g id="Fortinet" transform="translate(0.000000, 89.034247)" fill="#0A2229">
                    <path d="M101.81484,17.8352704 L97.4927648,17.8352704 L97.4927648,0.19856703 L111.39499,0.210015028 C111.39499,0.210015028 113.940396,0.11508783 115.558819,1.71446421 C115.558819,1.71446421 117.211383,3.094809 117.211383,6.4671053 L117.211383,17.831522 L112.900655,17.831522 L112.900655,6.17320583 C112.900655,6.17320583 112.953842,4.98413377 112.548603,4.56623122 C112.548603,4.56623122 112.190271,4.11287027 111.508963,4.11287027 L101.806026,4.11287027 L101.815144,17.8352704 L101.81484,17.8352704 Z M120.211265,17.8321298 L120.211265,0.20565871 L137.560654,0.20565871 L137.560654,4.12502744 L124.514496,4.12401434 L124.514496,7.120249 L133.579182,7.120249 L133.579182,10.9054837 L124.514394,10.9054837 L124.514394,13.9118493 L137.646666,13.9118493 L137.646666,17.8325351 L120.211265,17.8325351 L120.211265,17.8321298 Z M89.9633259,17.8322311 L89.9633259,0.20565871 L94.2665571,0.20565871 L94.2665571,17.8322311 L89.9633259,17.8322311 Z M144.858701,3.0164966 L144.858701,2.42251777 L144.858701,3.0164966 Z M143.74936,17.8318259 L143.74936,4.12452089 L139.68684,4.12452089 L139.68684,0.205253471 L155.841889,0.205253471 L155.841889,4.1246222 L148.05249,4.1246222 L148.05249,17.8318259 L143.74936,17.8318259 Z M76.8510128,3.01659791 L76.8510128,2.42261908 L76.8510128,3.01659791 Z M75.7416715,17.8318259 L75.7416715,4.1246222 L71.6791522,4.1246222 L71.6791522,0.205152162 L87.8343023,0.205152162 L87.8343023,4.12452089 L80.0448014,4.12452089 L80.0448014,17.8318259 L75.7416715,17.8318259 Z M62.7603519,7.1171084 C63.8114401,7.10900362 64.440776,7.11812149 64.6940503,6.96392812 C64.6940503,6.96392812 65.1360646,6.71946779 65.1411301,6.19519004 L65.1421432,5.0427921 C65.1421432,4.51598161 64.6951647,4.27405402 64.6951647,4.27405402 C64.3595256,4.09169654 63.7908742,4.12593923 62.4410237,4.1246222 L54.0563282,4.1246222 L54.0563282,7.1171084 L62.9526377,7.1171084 L62.7601493,7.1171084 L62.7603519,7.1171084 Z M65.0790272,17.8318259 L65.0790272,11.8167645 C65.0790272,11.2759733 64.6269833,11.0493435 64.6269833,11.0493435 C64.4230468,10.9227063 63.8126558,10.8999116 62.9135322,10.8999116 L63.1225341,10.8999116 L54.0565308,10.8999116 L54.0565308,17.8320285 L49.7534009,17.8320285 L49.7534009,0.205354781 L63.1870684,0.205354781 C65.5070607,0.212446461 67.1090712,0.553556252 68.21203,1.62500774 C69.2960439,2.72928357 69.4404102,4.17416265 69.4454757,5.67739612 L69.4454757,6.93231949 C69.4594564,8.21003754 68.7882796,9.3750992 67.9879329,10.0538743 L68.1488127,10.1337063 C68.4755365,10.2920534 68.6540442,10.5161505 68.6540442,10.5161505 C69.2631182,11.2937025 69.2556213,11.9623466 69.2543043,12.7854879 L69.2543043,17.8320285 L65.0791285,17.8320285 L65.0790272,17.8318259 Z M0,0.203632516 L0,17.8304075 L4.30312991,17.8304075 L4.30312991,10.9045719 L17.3404738,10.9045719 L17.3404738,7.11812149 L4.30312991,7.11812149 L4.30312991,4.12320386 L19.4602782,4.12320386 L19.4602782,0.203632516 L0,0.203632516 Z M154.362869,14.7116895 L154.362869,15.5208501 L155.116309,15.5208501 C155.320246,15.5208501 155.5178,15.4651298 155.548192,15.1625177 C155.591249,14.7611286 155.301199,14.7116895 155.116309,14.7116895 L154.362869,14.7116895 Z M154.060155,14.4457515 L155.110028,14.4457515 C155.474743,14.4457515 155.826693,14.5141355 155.857086,15.0447958 C155.869851,15.3487249 155.777355,15.4588486 155.548091,15.6323921 C155.790019,15.7868894 155.7963,15.8235635 155.833075,16.2313351 C155.857187,16.5403297 155.814029,16.5897688 155.944516,16.793604 L155.586184,16.793604 L155.536846,16.4972731 C155.487407,16.2186714 155.622959,15.7867881 155.135355,15.7867881 L154.362869,15.7867881 L154.362869,16.793604 L154.060257,16.793604 L154.060257,14.4457515 L154.060155,14.4457515 Z M154.850371,13.7973693 C153.813264,13.7973693 152.967328,14.6433054 152.973574,15.6880111 C152.973574,16.7252199 153.813264,17.571156 154.856754,17.5661131 C155.895178,17.5661131 156.741114,16.7252199 156.741114,15.6817299 C156.741114,14.6433054 155.895178,13.7973693 154.850371,13.7973693 M154.85645,17.8117666 C153.677509,17.8117666 152.725177,16.8607723 152.725177,15.6817299 C152.720132,14.5078543 153.677509,13.5504776 154.85645,13.5504776 C156.030427,13.5504776 156.987702,14.5078543 156.987702,15.6817299 C156.987702,16.8607723 156.030325,17.8067011 154.85645,17.8117666" id="Shape"></path>
                    <path d="M43.8431951,17.9997974 C45.2412691,17.5249588 46.3290314,15.9153501 46.591221,13.8904729 L46.591221,13.3054094 L39.423559,13.3054094 L39.423559,17.9997974 L43.8431951,17.9997974 Z M46.5915249,4.69702206 L46.5915249,4.16757752 C46.3167729,2.05527007 45.1479628,0.391359407 43.6573931,0 L39.4239642,0 L39.4239642,4.69702206 L46.5915249,4.69702206 Z M21.3611522,13.3055107 L21.3611522,13.8855088 C21.6207077,15.911703 22.7085714,17.5250601 24.1103938,18 L28.5072352,18 L28.5072352,13.3055107 L21.3611522,13.3055107 Z M24.2940683,0.000607858256 C22.8061326,0.391967266 21.6334727,2.05719496 21.3611522,4.17203514 L21.3611522,4.69762992 L28.5073365,4.69762992 L28.5073365,0.000607858256 L24.2940683,0.000607858256 Z M46.5920314,6.652806 L39.4243695,6.652806 L39.4243695,11.3497267 L46.5920314,11.3497267 L46.5920314,6.652806 Z M30.4596759,17.9994935 L37.4716248,17.9994935 L37.4716248,13.3050041 L30.4597772,13.3050041 L30.4596759,17.9994935 Z M37.4717261,0.000506548547 L30.4597772,0.000506548547 L30.4597772,4.6974273 L37.4716248,4.6974273 L37.4717261,0.000506548547 Z M21.3609496,11.3497267 L28.5070326,11.3497267 L28.5070326,6.652806 L21.3609496,6.652806 L21.3609496,11.3497267 Z" id="Shape"></path>
                </g>
                <path d="M115.97505,73.999167 C121.722687,72.0470527 126.194599,65.4297727 127.27249,57.1052777 L127.27249,54.7000163 L97.8054349,54.7000163 L97.8054349,73.999167 L115.97505,73.999167 Z M127.273739,19.3099796 L127.273739,17.1333742 C126.144203,8.44944364 121.339095,1.60892201 115.211197,2.27373675e-13 L97.8071009,2.27373675e-13 L97.8071009,19.3099796 L127.273739,19.3099796 Z M23.5488737,54.7004328 L23.5488737,57.0848694 C24.6159351,65.4147788 29.0882635,72.0474692 34.8513113,74 L52.9272148,74 L52.9272148,54.7004328 L23.5488737,54.7004328 Z M35.6064176,0.00249897283 C29.4893486,1.61142098 24.6684135,8.45735705 23.5488737,17.1517 L23.5488737,19.3124785 L52.9276313,19.3124785 L52.9276313,0.00249897283 L35.6064176,0.00249897283 Z M127.275822,27.3504247 L97.8087669,27.3504247 L97.8087669,46.6599877 L127.275822,46.6599877 L127.275822,27.3504247 Z M60.9539156,73.9979175 L89.7808167,73.9979175 L89.7808167,54.6983503 L60.954332,54.6983503 L60.9539156,73.9979175 Z M89.7812332,0.00208247736 L60.954332,0.00208247736 L60.954332,19.3116456 L89.7808167,19.3116456 L89.7812332,0.00208247736 Z M23.5480407,46.6599877 L52.9263818,46.6599877 L52.9263818,27.3504247 L23.5480407,27.3504247 L23.5480407,46.6599877 Z" id="Shape" fill="#061D2F"></path>
            </g>
        </g>
    </g>
</svg>