<?xml version="1.0" encoding="UTF-8"?>
<svg width="159px" height="64px" viewBox="0 0 159 64" version="1.1" xmlns="http://www.w3.org/2000/svg" xmlns:xlink="http://www.w3.org/1999/xlink">
    <title>HewlettPackardEnterprise</title>
    <g  stroke="none" stroke-width="1" fill="none" fill-rule="evenodd">
        <g id="Partner" transform="translate(-201.000000, -1228.000000)" fill="#0A2229" fill-rule="nonzero">
            <g id="HewlettPackardEnterprise" transform="translate(201.189948, 1228.068828)">
                <path d="M50.7006867,11.5916389 L3.38256027,11.5916389 L3.38256027,3.22898262 L50.7006867,3.22898262 L50.7006867,11.5916389 Z M54.0815326,0 L0,0 L0,14.8124469 L54.0815326,14.8124469 L54.0815326,0 Z" id="Shape"></path>
                <polyline  transform="translate(6.402627, 31.895400) scale(-1, 1) rotate(-180.000000) translate(-6.402627, -31.895400) " points="3.38256027 24.4871327 0.00192872798 24.4871327 0.00192872798 39.3036669 3.38256027 39.3036669 3.38256027 33.450625 9.4226934 33.450625 9.4226934 39.3036669 12.8033249 39.3036669 12.8033249 24.4871327 9.4226934 24.4871327 9.4226934 30.6252652 3.38256027 30.6252652 3.38256027 24.4871327"></polyline>
                <path d="M17.9551717,35.2061288 L21.9819271,35.2061288 C21.906921,36.2953996 21.4354542,37.0546192 20.1174901,37.0546192 C19.1231236,37.0546192 18.253053,36.6509964 17.9551717,35.2061288 Z M20.5150223,28.475335 C17.0851011,28.475335 14.7491972,30.5373878 14.7491972,33.9247541 C14.7491972,37.2201557 17.0358113,39.4947491 20.0682003,39.4947491 C23.3738258,39.4947491 25.0143161,37.3856921 25.0143161,34.2333467 L25.0143161,33.048024 L17.9551717,33.048024 C18.3537755,31.4141179 19.6953129,30.9880148 21.0379219,30.9880148 C22.2058739,30.9880148 23.0502281,31.2240576 24.0938842,31.8412428 L24.2192516,31.8412428 L24.2192516,29.4000911 C23.3245361,28.7829058 22.0558617,28.475335 20.5150223,28.475335" id="Shape" transform="translate(19.881757, 33.985042) scale(-1, 1) rotate(-180.000000) translate(-19.881757, -33.985042) "></path>
                <polyline  transform="translate(33.826460, 34.028981) scale(-1, 1) rotate(-180.000000) translate(-33.826460, -34.028981) " points="33.8136018 34.9670206 32.0734605 28.7583819 29.1160776 28.7583819 25.7354461 39.1810473 25.7354461 39.2995796 28.9671369 39.2995796 30.8058576 33.0664169 32.5459989 39.2995796 35.1808556 39.2995796 36.9456417 33.0664169 38.8100787 39.2995796 41.9174738 39.2995796 41.9174738 39.1810473 38.5368423 28.7583819 35.5783879 28.7583819 33.8136018 34.9670206"></polyline>
                <path d="M47.3575582,24.4166265 C44.6734118,24.4166265 43.5793944,25.4353909 43.5793944,27.8285167 L43.5793944,39.4671597 L46.860375,39.4671597 L46.860375,28.043101 C46.860375,27.3084052 47.1582564,27.0478386 47.8043802,27.0478386 C48.028327,27.0478386 48.3519247,27.1183449 48.550155,27.1898729 L48.6005163,27.1898729 L48.6005163,24.6066869 C48.3272798,24.5126785 47.8547415,24.4176483 47.3575582,24.4176483"  transform="translate(46.089955, 31.941893) scale(-1, 1) rotate(-180.000000) translate(-46.089955, -31.941893) "></path>
                <path d="M52.7579966,35.2061288 L56.784752,35.2061288 C56.7097459,36.2953996 56.2382791,37.0546192 54.920315,37.0546192 C53.9270201,37.0546192 53.0558779,36.6509964 52.7579966,35.2061288 Z M55.3178472,28.475335 C51.887926,28.475335 49.5520221,30.5373878 49.5520221,33.9247541 C49.5520221,37.2201557 51.8386363,39.4947491 54.8710252,39.4947491 C58.1766507,39.4947491 59.817141,37.3856921 59.817141,34.2333467 L59.817141,33.048024 L52.7579966,33.048024 C53.1555289,31.4141179 54.4981378,30.9880148 55.8396753,30.9880148 C57.0086988,30.9880148 57.853053,31.2240576 58.8977807,31.8412428 L59.0220765,31.8412428 L59.0220765,29.4000911 C58.127361,28.7829058 56.8597581,28.475335 55.3178472,28.475335" id="Shape" transform="translate(54.684582, 33.985042) scale(-1, 1) rotate(-180.000000) translate(-54.684582, -33.985042) "></path>
                <path d="M73.3310951,36.6499746 L75.7666499,36.6499746 L75.7666499,34.1383166 L73.3310951,34.1383166 L73.3310951,29.8486745 C73.3310951,28.9239184 73.7039825,28.4967934 74.6983489,28.4967934 C74.9715854,28.4967934 75.3198279,28.5213174 75.6927153,28.6398496 L75.7666499,28.6398496 L75.7666499,26.1751958 C75.3444728,26.0321396 74.6983489,25.867625 73.7543437,25.867625 C71.0937706,25.867625 70.0501145,27.0284238 70.0501145,29.7066401 L70.0501145,34.1383166 L65.8497735,34.1383166 L65.8497735,29.8486745 C65.8497735,28.9239184 66.2226609,28.4967934 67.2159558,28.4967934 C67.4902638,28.4967934 67.8385064,28.5213174 68.2113938,28.6398496 L68.2853284,28.6398496 L68.2853284,26.1751958 C67.8631512,26.0321396 67.2159558,25.867625 66.2730222,25.867625 C63.6124491,25.867625 62.5687929,27.0284238 62.5687929,29.7066401 L62.5687929,34.1383166 L60.8779414,34.1383166 L60.8779414,36.6499746 L62.5687929,36.6499746 L62.5687929,39.5407315 L65.8497735,39.5407315 L65.8497735,36.6499746 L70.0501145,36.6499746 L70.0501145,39.5407315 L73.3310951,39.5407315 L73.3310951,36.6499746"  transform="translate(68.322296, 32.704178) scale(-1, 1) rotate(-180.000000) translate(-68.322296, -32.704178) "></path>
                <path d="M86.7893303,31.9567096 C88.5058982,31.9567096 89.3245361,32.8804439 89.3245361,34.207801 C89.3245361,35.5831841 88.5058982,36.5069184 86.7893303,36.5069184 L84.6516568,36.5069184 L84.6516568,31.9567096 L86.7893303,31.9567096 Z M92.7555289,34.207801 C92.7555289,30.9839275 90.4935595,29.2314892 87.0625668,29.2314892 L84.6516568,29.2314892 L84.6516568,24.4207138 L81.2731683,24.4207138 L81.2731683,39.237248 L87.0625668,39.237248 C90.4935595,39.237248 92.7555289,37.4837878 92.7555289,34.2129101" id="Shape" transform="translate(87.014349, 31.828981) scale(-1, 1) rotate(-180.000000) translate(-87.014349, -31.828981) "></path>
                <path d="M99.9904018,31.9955392 L99.9904018,32.8957713 C99.4932186,33.1553162 98.8481662,33.2503463 98.176326,33.2503463 C97.108025,33.2503463 96.4619011,32.8722693 96.4619011,32.0190413 C96.4619011,31.1412893 97.108025,30.7621904 98.0766751,30.7621904 C98.9960354,30.7621904 99.6925205,31.2128174 99.9904018,31.9955392 Z M100.090053,29.7199239 C99.3689228,28.890198 98.3016933,28.487597 97.1562432,28.487597 C94.9949963,28.487597 93.2291387,29.7424041 93.2291387,31.9720371 C93.2291387,34.0330681 94.9949963,35.4074293 97.5291306,35.4074293 C98.3241951,35.4074293 99.1460476,35.2888971 99.9904018,35.0528544 L99.9904018,35.2408711 C99.9904018,36.3791896 99.3196331,36.875799 97.5559185,36.875799 C96.4361848,36.875799 95.3678838,36.56925 94.4474519,36.070597 L94.3242276,36.070597 L94.3242276,38.5832768 C95.1685819,39.0563841 96.661203,39.4600069 98.1259648,39.4600069 C101.457307,39.4600069 103.271382,37.9436113 103.271382,35.2888971 L103.271382,28.6776573 L100.090053,28.6776573 L100.090053,29.7199239" id="Shape" transform="translate(98.250261, 33.973802) scale(-1, 1) rotate(-180.000000) translate(-98.250261, -33.973802) "></path>
                <path d="M104.876513,33.9656273 C104.876513,37.3550372 107.388145,39.4875963 110.669126,39.4875963 C111.837078,39.4875963 112.930024,39.2505318 113.750804,38.6823943 L113.750804,36.004178 L113.625437,36.004178 C112.904307,36.5253113 112.059953,36.8339039 111.091303,36.8339039 C109.450813,36.8339039 108.207855,35.7660917 108.207855,33.9656273 C108.207855,32.1651629 109.450813,31.1218746 111.091303,31.1218746 C112.059953,31.1218746 112.904307,31.4304672 113.625437,31.9526223 L113.750804,31.9526223 L113.750804,29.274406 C112.930024,28.7052468 111.837078,28.4681822 110.669126,28.4681822 C107.388145,28.4681822 104.876513,30.5762174 104.876513,33.9656273"  transform="translate(109.313659, 33.977889) scale(-1, 1) rotate(-180.000000) translate(-109.313659, -33.977889) "></path>
                <polyline  transform="translate(120.983534, 31.858614) scale(-1, 1) rotate(-180.000000) translate(-120.983534, -31.858614) " points="119.106239 29.2365983 119.106239 24.4503469 115.82633 24.4503469 115.82633 39.266881 119.106239 39.266881 119.106239 30.830653 122.412936 35.0017629 126.140739 35.0017629 126.140739 34.8832306 122.164345 30.0959573 126.140739 24.5739883 126.140739 24.455456 122.38722 24.455456 119.106239 29.2417075"></polyline>
                <path d="M133.507408,31.9955392 L133.507408,32.8957713 C133.011296,33.1553162 132.364101,33.2503463 131.693332,33.2503463 C130.625031,33.2503463 129.978907,32.8722693 129.978907,32.0190413 C129.978907,31.1412893 130.625031,30.7621904 131.59261,30.7621904 C132.514113,30.7621904 133.209527,31.2128174 133.507408,31.9955392 Z M133.607059,29.7199239 C132.885929,28.890198 131.816557,28.487597 130.674321,28.487597 C128.510931,28.487597 126.747216,29.7424041 126.747216,31.9720371 C126.747216,34.0330681 128.510931,35.4074293 131.04828,35.4074293 C131.843344,35.4074293 132.661982,35.2888971 133.507408,35.0528544 L133.507408,35.2408711 C133.507408,36.3791896 132.836639,36.875799 131.071853,36.875799 C129.954263,36.875799 128.883818,36.56925 127.964458,36.070597 L127.840162,36.070597 L127.840162,38.5832768 C128.685588,39.0563841 130.177138,39.4600069 131.642971,39.4600069 C134.975384,39.4600069 136.78946,37.9436113 136.78946,35.2888971 L136.78946,28.6776573 L133.607059,28.6776573 L133.607059,29.7199239" id="Shape" transform="translate(131.768338, 33.973802) scale(-1, 1) rotate(-180.000000) translate(-131.768338, -33.973802) "></path>
                <path d="M142.336696,37.4081724 C142.932459,38.569993 143.803601,39.2331607 145.021914,39.2331607 C145.468736,39.2331607 145.915558,39.1381305 146.088072,39.0431003 L146.088072,36.0573132 L145.964848,36.0573132 C145.59196,36.2003694 145.145138,36.2943777 144.523659,36.2943777 C143.504648,36.2943777 142.709584,35.7252185 142.435276,34.6359477 L142.435276,28.5683215 L139.155367,28.5683215 L139.155367,39.1136066 L142.336696,39.1136066 L142.336696,37.4071505"  transform="translate(142.621719, 33.900741) scale(-1, 1) rotate(-180.000000) translate(-142.621719, -33.900741) "></path>
                <path d="M154.766276,28.2903838 L154.766276,31.6797937 C154.219804,32.4379915 153.499745,32.7690644 152.677893,32.7690644 C151.237776,32.7690644 150.268054,31.7727802 150.268054,29.9723159 C150.268054,28.1718515 151.237776,27.2000912 152.677893,27.2000912 C153.499745,27.2000912 154.219804,27.532186 154.766276,28.2903838 Z M154.864856,25.8012061 C154.169442,24.9479781 153.075425,24.4748708 151.584947,24.4748708 C148.750788,24.4748708 146.936712,26.9385028 146.936712,29.9723159 C146.936712,33.006129 148.750788,35.4942849 151.584947,35.4942849 C153.026135,35.4942849 154.069791,35.06716 154.766276,34.2854601 L154.766276,39.5223385 L158.047257,39.5223385 L158.047257,24.7160227 L154.864856,24.7160227 L154.864856,25.8052934" id="Shape" transform="translate(152.491985, 31.998605) scale(-1, 1) rotate(-180.000000) translate(-152.491985, -31.998605) "></path>
                <polyline  transform="translate(4.836607, 51.531906) scale(-1, 1) rotate(-180.000000) translate(-4.836607, -51.531906) " points="0.0394317721 58.9371074 9.63378196 58.9371074 9.63378196 57.1366431 2.20175014 57.1366431 2.20175014 52.6109583 8.93729686 52.6109583 8.93729686 50.8564763 2.20175014 50.8564763 2.20175014 45.9271686 9.63378196 45.9271686 9.63378196 44.1267043 0.0394317721 44.1267043 0.0394317721 58.9330201"></polyline>
                <path d="M17.5265655,58.9360856 C19.9867652,58.9360856 21.354019,57.3951661 21.354019,54.8610278 L21.354019,48.2957704 L19.2913516,48.2957704 L19.2913516,54.8130018 C19.2913516,56.163861 18.5702216,57.1356213 17.0047374,57.1356213 C15.7124897,57.1356213 14.6184723,56.3528995 14.2455849,55.2401267 L14.2455849,48.2957704 L12.1829174,48.2957704 L12.1829174,58.7184358 L14.2455849,58.7184358 L14.2455849,57.2020402 C14.8917087,58.1738005 15.9857261,58.9319983 17.5265655,58.9319983"  transform="translate(16.768468, 53.615928) scale(-1, 1) rotate(-180.000000) translate(-16.768468, -53.615928) "></path>
                <path d="M26.870181,56.3283756 L29.6786233,56.3283756 L29.6786233,54.6454217 L26.870181,54.6454217 L26.870181,49.0294443 C26.870181,47.8451434 27.5163049,47.4415206 28.6842568,47.4415206 C29.006783,47.4415206 29.3550256,47.4885248 29.6036172,47.5835549 L29.6786233,47.5835549 L29.6786233,45.9016229 C29.3807419,45.7830906 28.9574933,45.6880604 28.3863755,45.6880604 C25.8254534,45.6880604 24.8075136,46.8028769 24.8075136,48.8393839 L24.8075136,54.6454217 L22.9184317,54.6454217 L22.9184317,56.3283756 L24.8075136,56.3283756 L24.8075136,59.0995784 L26.870181,59.0995784 L26.870181,56.3283756"  transform="translate(26.298527, 52.393819) scale(-1, 1) rotate(-180.000000) translate(-26.298527, -52.393819) "></path>
                <path d="M33.1278318,54.7496483 L38.5711308,54.7496483 C38.4971962,56.2895461 37.7010602,57.473847 36.0112801,57.473847 C34.4457959,57.473847 33.4257131,56.3600523 33.1278318,54.7496483 Z M36.3841675,48.3029232 C33.1771215,48.3029232 30.9901583,50.341474 30.9901583,53.6113298 C30.9901583,56.8822074 33.0281809,59.1568009 35.9866353,59.1568009 C38.9943794,59.1568009 40.5598636,57.0947481 40.5598636,54.0384547 L40.5598636,53.1372007 L33.0528257,53.1372007 C33.2767725,51.0281437 34.6943875,50.0093792 36.657404,50.0093792 C37.8757172,50.0093792 38.7447163,50.2699459 39.7144379,50.9576374 L39.7894439,50.9576374 L39.7894439,49.2266575 C38.8947285,48.5634899 37.725705,48.3029232 36.3841675,48.3029232" id="Shape" transform="translate(35.775011, 53.729862) scale(-1, 1) rotate(-180.000000) translate(-35.775011, -53.729862) "></path>
                <path d="M45.1288059,57.1325558 C45.6013443,58.2463504 46.6460719,58.909518 47.8375972,58.909518 C48.3112071,58.909518 48.7333842,58.8390118 48.9069697,58.7439816 L48.9069697,56.8014829 L48.8330351,56.8014829 C48.5340823,56.9424954 48.0368991,57.0140235 47.5397159,57.0140235 C46.4221252,57.0140235 45.4770485,56.3038517 45.1288059,55.1185289 L45.1288059,48.3172288 L43.0661385,48.3172288 L43.0661385,58.7398943 L45.1288059,58.7398943 L45.1288059,57.1284684"  transform="translate(45.986554, 53.613373) scale(-1, 1) rotate(-180.000000) translate(-45.986554, -53.613373) "></path>
                <path d="M55.5010764,53.8637218 C57.539099,53.8637218 58.7327673,55.4036195 58.7327673,57.5136983 C58.7327673,59.5982314 57.539099,61.1616312 55.5010764,61.1616312 C54.3824142,61.1616312 53.338758,60.5219657 52.7922851,59.5042231 L52.7922851,55.4976279 C53.338758,54.4798852 54.3824142,53.8637218 55.5010764,53.8637218 Z M55.8493189,62.9396153 C59.1045832,62.9396153 60.8447244,60.4034334 60.8447244,57.5136983 C60.8447244,54.6208978 59.1045832,52.0857377 55.8493189,52.0857377 C54.50671,52.0857377 53.3634029,52.7489053 52.7922851,53.4611208 L52.7922851,48.2937268 L50.7285461,48.2937268 L50.7285461,62.7219655 L52.7922851,62.7219655 L52.7922851,61.5376646 C53.3634029,62.2723604 54.50671,62.935528 55.8493189,62.935528" id="Shape" transform="translate(55.786635, 55.616671) scale(-1, 1) rotate(-180.000000) translate(-55.786635, -55.616671) "></path>
                <path d="M65.3590194,57.1325558 C65.8304862,58.2463504 66.8752139,58.909518 68.0678107,58.909518 C68.5403491,58.909518 68.9625262,58.8390118 69.1361117,58.7439816 L69.1361117,56.8014829 L69.0621771,56.8014829 C68.7642958,56.9424954 68.2671126,57.0140235 67.7699294,57.0140235 C66.6512671,57.0140235 65.707262,56.3038517 65.3590194,55.1185289 L65.3590194,48.3172288 L63.296352,48.3172288 L63.296352,58.7398943 L65.3590194,58.7398943 L65.3590194,57.1284684"  transform="translate(66.216232, 53.613373) scale(-1, 1) rotate(-180.000000) translate(-66.216232, -53.613373) "></path>
                <path d="M72.1309976,46.7548509 C72.8521276,46.7548509 73.4478903,46.2102155 73.4478903,45.522524 C73.4478903,44.8348324 72.8521276,44.290197 72.1309976,44.290197 C71.4355841,44.290197 70.8130335,44.8348324 70.8130335,45.522524 C70.8130335,46.2102155 71.4355841,46.7548509 72.1309976,46.7548509"  transform="translate(72.130462, 45.522524) scale(-1, 1) rotate(-180.000000) translate(-72.130462, -45.522524) "></path>
                <polygon  points="71.1023427 58.9228018 73.1665103 58.9228018 73.1665103 48.4919618 71.1023427 48.4919618"></polygon>
                <path d="M80.5316795,54.5452823 C82.0971637,54.0721751 83.8362335,53.4560116 83.8362335,51.4654869 C83.8362335,49.331906 81.9975128,48.2416134 79.636964,48.2416134 C78.1947041,48.2416134 76.7535157,48.5737082 75.9327348,49.1898716 L75.9327348,51.0618641 L76.0323857,51.0618641 C76.9528176,50.2566621 78.3189999,49.9010653 79.6112477,49.9010653 C80.7791996,49.9010653 81.8239273,50.3281902 81.8239273,51.2284224 C81.8239273,52.1521566 80.9549282,52.3657191 79.2383603,52.9103544 C77.6975209,53.3844835 75.983096,53.9301407 75.983096,55.8961415 C75.983096,57.9111902 77.7221658,59.0954911 79.9348454,59.0954911 C81.2270931,59.0954911 82.3704002,58.8349244 83.2897605,58.2422631 L83.2897605,56.3457467 L83.215826,56.3457467 C82.322182,57.0334383 81.2763828,57.4370611 79.9841351,57.4370611 C78.6918873,57.4370611 77.9707574,56.8914039 77.9707574,56.1567082 C77.9707574,55.3269823 78.7658219,55.0909395 80.5316795,54.5452823"  transform="translate(79.884484, 53.668552) scale(-1, 1) rotate(-180.000000) translate(-79.884484, -53.668552) "></path>
                <path d="M87.732264,54.7496483 L93.1744914,54.7496483 C93.1005569,56.2895461 92.3054923,57.473847 90.6146408,57.473847 C89.0491566,57.473847 88.0301453,56.3600523 87.732264,54.7496483 Z M90.9875282,48.3029232 C87.7815537,48.3029232 85.5945905,50.341474 85.5945905,53.6113298 C85.5945905,56.8822074 87.632613,59.1568009 90.5899959,59.1568009 C93.5988116,59.1568009 95.1632243,57.0947481 95.1632243,54.0384547 L95.1632243,53.1372007 L87.6572579,53.1372007 C87.8812046,51.0281437 89.2977482,50.0093792 91.2607647,50.0093792 C92.4801494,50.0093792 93.3491485,50.2699459 94.3177985,50.9576374 L94.3928046,50.9576374 L94.3928046,49.2266575 C93.4991606,48.5634899 92.3301372,48.3029232 90.9875282,48.3029232" id="Shape" transform="translate(90.378907, 53.729862) scale(-1, 1) rotate(-180.000000) translate(-90.378907, -53.729862) "></path>
            </g>
        </g>
    </g>
</svg>