<?xml version="1.0" encoding="UTF-8"?>
<svg width="157px" height="41px" viewBox="0 0 157 41" version="1.1" xmlns="http://www.w3.org/2000/svg" xmlns:xlink="http://www.w3.org/1999/xlink">
    <title>Imperva</title>
    <g  stroke="none" stroke-width="1" fill="none" fill-rule="evenodd">
        <g id="Partner" transform="translate(-199.000000, -716.000000)" fill="#0A2229">
            <g id="Imperva" transform="translate(199.349978, 716.380593)">
                <polygon  fill-rule="nonzero" points="0 6.1118272 6.40900955 6.1118272 6.40900955 0 0 0"></polygon>
                <path d="M150.213902,23.3778884 C149.643795,22.1830053 147.939737,21.4481522 146.141706,21.4481522 C144.124403,21.4481522 142.069511,22.2905448 142.069511,24.1665113 C142.069511,26.0962475 144.136933,26.8848704 146.141706,26.8848704 C147.949135,26.8848704 149.656325,26.1440429 150.213902,24.9581214 L150.213902,23.3778884 Z M150.213902,17.1973554 C150.213902,15.0734507 148.303103,13.7381688 145.045346,13.7381688 C142.804524,13.7322555 140.611466,14.3556136 138.739708,15.5304935 L138.739708,10.2431356 C140.393646,9.25436983 143.391408,8.41197723 146.442422,8.41197723 C152.79818,8.41197723 156.622912,11.527635 156.622912,16.9135707 L156.622912,30.9982556 L150.213902,30.9982556 L150.213902,29.8033724 C149.440185,30.5442 147.16602,31.3836054 144.631862,31.3836054 C139.980161,31.3836054 136.10531,28.8146067 136.10531,24.2143066 C136.10531,20.0113052 139.980161,17.1465729 145.045346,17.1465729 C147.062649,17.1465729 149.283562,17.7888226 150.213902,18.4310723 L150.213902,17.1943682 L150.213902,17.1973554 Z M121.395286,30.9892939 L112.65886,8.88395606 L119.377983,8.88395606 L124.703162,23.5630953 L129.921838,8.88395606 L136.384099,8.88395606 L127.597554,30.9892939 L121.395286,30.9892939 Z M111.443467,14.9360391 C110.462215,14.42432 109.357058,14.1677959 108.238962,14.1922244 C106.068168,14.1922244 104.310859,15.279568 103.85352,17.3078821 L103.85352,30.9982556 L97.4382458,30.9982556 L97.4382458,8.89291769 L103.844123,8.89291769 L103.844123,11.067605 C104.953596,9.37153882 106.916881,8.35712035 109.012679,8.39704119 C110.099642,8.39704119 111.080101,8.59718411 111.443467,8.79433983 L111.443467,14.9360391 Z M79.31071,17.3556774 L88.047136,17.3556774 C87.8905131,14.9838344 86.4965692,13.3050236 83.9749403,13.3050236 C81.8448687,13.296062 80.0343079,14.5805614 79.31071,17.3467158 L79.31071,17.3556774 Z M79.1071002,21.3585359 C79.6239558,24.967083 82.3617243,26.4367892 85.7729714,26.4367892 C88.3039976,26.4367892 90.1145585,25.8961046 92.3887232,24.5100402 L92.3887232,29.552447 C90.4747912,30.8877289 87.8905131,31.479196 84.7893795,31.479196 C77.7632757,31.479196 72.9549523,27.1298214 72.9549523,20.1278063 C72.9549523,13.2064458 77.5032816,8.41197723 83.80892,8.41197723 C90.528043,8.41197723 93.9894093,12.8629169 93.9894093,19.3839916 L93.9894093,21.3615231 L79.1071002,21.3615231 L79.1071002,21.3585359 Z M54.1664678,23.5840058 C54.9859502,25.155978 56.6671868,26.1507974 58.5080549,26.1530045 C61.9725537,26.1530045 64.0399761,23.4854279 64.0399761,19.9754587 C64.0399761,16.4176942 61.9725537,13.7471304 58.5080549,13.7471304 C56.6687889,13.757539 54.9912329,14.7513347 54.1664678,16.3191163 L54.1664678,23.5840058 Z M54.1664678,40.0524825 L47.7574582,40.0524825 L47.7574582,8.89291769 L54.1664678,8.89291769 L54.1664678,10.7240761 C55.2033115,9.52919295 57.4774761,8.4000284 59.9552506,8.4000284 C66.6743735,8.4000284 70.499105,13.7381688 70.499105,19.9664971 C70.499105,26.1948254 66.6743735,31.4821832 59.9552506,31.4821832 C57.4743437,31.4821832 55.2033115,30.3440571 54.1696002,29.1611228 L54.1696002,40.0435209 L54.1664678,40.0524825 Z M36.0420644,8.4000284 C40.797136,8.4000284 43.6414081,11.5634815 43.6414081,16.558093 L43.6414081,30.9892939 L37.2323986,30.9892939 L37.2323986,17.8455795 C37.2323986,15.4737365 36.1454356,13.8905164 33.9245227,13.8905164 C32.2705847,13.8905164 30.7701372,14.8792822 30.3566527,16.7582359 L30.3566527,30.9922812 L23.8975239,30.9922812 L23.8975239,17.8485667 C23.8975239,15.4767237 22.8638126,13.8935036 20.6397673,13.8935036 C18.8591174,13.8729165 17.326133,15.0880028 17.021778,16.7612231 L17.021778,30.9952684 L10.615901,30.9952684 L10.615901,8.88993048 L17.021778,8.88993048 L17.021778,10.7181017 C18.1619928,9.33502444 20.2795346,8.39405398 22.8638126,8.39405398 C25.2821852,8.34418552 27.5825674,9.38896985 29.06608,11.210991 C30.5665274,9.63673243 32.7874403,8.4000284 36.0420644,8.4000284 Z M6.40900955,30.9892939 L0,30.9892939 L0,8.88395606 L6.40900955,8.88395606 L6.40900955,30.9892939 Z" id="Shape"></path>
                <polygon  fill-rule="nonzero" points="153.258652 33.6538833 150.044749 33.6538833 150.044749 39.7806466 156.466289 39.7806466 156.466289 33.6538833"></polygon>
            </g>
        </g>
    </g>
</svg>