<?xml version="1.0" encoding="UTF-8"?>
<svg width="179px" height="33px" viewBox="0 0 179 33" version="1.1" xmlns="http://www.w3.org/2000/svg" xmlns:xlink="http://www.w3.org/1999/xlink">
    <title>Kaspersky</title>
    <g  stroke="none" stroke-width="1" fill="none" fill-rule="evenodd">
        <g id="Partner" transform="translate(-188.000000, -2044.000000)" fill="#0A2229" fill-rule="nonzero">
            <g id="Kaspersky" transform="translate(188.401917, 2044.075473)">
                <path d="M80.4257998,16.3096078 C80.4257998,22.7625838 76.2972846,25.8132394 71.1298587,25.8132394 L67.971822,25.8132394 L67.971822,21.9412535 L70.8837825,21.9412535 C74.0006898,21.9412535 76.0783363,20.3379819 76.0783363,16.3096078 C76.0783363,12.320289 74.1134018,10.3252958 70.7913726,10.3252958 C67.5923815,10.3252958 65.3059378,12.2029561 65.3059378,16.2313302 L65.3059378,32.4232713 L60.9996036,32.4232713 L60.9996036,6.96169681 L65.3059378,6.96169681 L65.3059378,9.1523005 L65.9211284,9.1523005 C67.3566314,7.31402933 69.4789077,6.49236518 71.6935938,6.49236518 C76.451126,6.49236518 80.4257998,9.77768656 80.4257998,16.3096078 L80.4257998,16.3096078 Z M52.1240573,14.627558 L49.2530512,14.3536699 C46.9974108,14.1580594 45.8079839,13.5713949 45.8079839,12.3197883 C45.8079839,10.8335158 47.3255707,9.97313014 49.4991275,9.97313014 C51.754943,9.97313014 53.190271,10.990071 53.3133091,12.4371212 L57.4556508,12.4371212 C57.2916583,8.76074574 54.2977891,6.49219828 49.5402569,6.49219828 C44.7417703,6.49219828 41.5016498,8.91730088 41.5016498,12.4761765 C41.5016498,15.4487214 43.4702597,17.3651032 47.9407613,17.7953795 L50.8525468,18.0691007 C52.6162098,18.2254889 53.8056366,18.5774876 53.8056366,20.181093 C53.8056366,21.6283101 52.6981185,22.6841394 49.7863331,22.6841394 C47.1048722,22.6841394 45.7836563,21.5238287 45.3200319,19.9684584 L40.8386791,19.9684584 C41.2851517,23.523829 44.4171106,26.2824041 49.7863331,26.2824041 C54.8308959,26.2824041 58.1117957,23.7401355 58.1117957,19.9856494 C58.1117957,16.6611058 55.8152009,14.9793898 52.1240573,14.6273911 L52.1240573,14.627558 Z M97.104203,19.9686253 C96.428631,21.4482216 94.8144339,22.5671403 92.5237897,22.5671403 C89.365928,22.5671403 87.0282037,20.6115362 87.0282037,16.3875516 C87.0282037,12.3590105 89.2017605,10.1296853 92.564744,10.1296853 C95.5587883,10.1296853 97.2813219,11.8506235 97.4454894,14.4319475 L89.693913,14.4319475 L89.693913,17.4046593 L101.66974,17.4046593 L101.66974,15.4488883 C101.66974,10.0123524 97.8965125,6.49236518 92.5237897,6.49236518 C87.5203562,6.49236518 82.7216946,9.73863123 82.7216946,16.3875516 C82.7216946,23.036305 87.5203562,26.282571 92.5237897,26.282571 C97.1003526,26.282571 100.363751,23.5942622 101.377634,19.9686253 L97.104203,19.9686253 Z M29.2184902,6.49236518 C24.5020874,6.49236518 20.9749363,8.83935712 20.5648676,12.4372881 L25.1991867,12.4372881 C25.5273467,11.1077377 26.7986822,10.1300191 29.2184902,10.1300191 C32.3355725,10.1300191 33.3608319,11.694736 33.3608319,13.6109509 L33.3608319,20.063927 C31.5973438,21.9806426 29.5466502,22.8799167 27.4959566,22.8799167 C25.3633542,22.8799167 23.8868968,21.9021982 23.8868968,20.1425384 C23.8868968,18.4603216 25.0351942,17.4046593 27.2498803,17.4046593 L30.6949476,17.4046593 L30.6949476,14.4319475 L27.1268422,14.4319475 C22.2053175,14.4319475 19.4575245,16.7789394 19.4575245,20.3768704 C19.4575245,23.7403024 22.1232337,26.282571 26.5116516,26.282571 C28.972414,26.282571 31.1461457,25.3442416 32.7456413,24.209634 L33.3608319,24.209634 L33.3608319,25.8132394 L37.667166,25.8132394 L37.667166,13.2195631 C37.667166,8.56530216 34.3451368,6.49236518 29.2184902,6.49236518 Z M0,25.8132394 L4.30633413,25.8132394 L4.30633413,0 L0,0 L0,25.8132394 Z M18.0866034,6.96169681 L12.8370937,6.96169681 L6.5617996,14.8233353 L6.5617996,17.2873264 L13.0007361,25.8132394 L18.3325046,25.8132394 L10.7864,16.0355528 L18.0866034,6.96169681 Z M173.761501,6.96169681 L170.23435,14.4321144 C169.373083,16.2314971 168.553296,17.9911569 168.307045,19.1648198 L167.691329,19.1648198 C167.445253,17.9911569 166.584336,16.2703856 165.723069,14.4715035 L162.195918,6.96169681 L157.438386,6.96169681 L165.723069,23.8970245 L161.621682,32.4234382 L166.215221,32.4234382 L178.519033,6.96169681 L173.761501,6.96169681 Z M156.485934,6.96169681 L151.236249,6.96169681 L144.961305,14.8233353 L144.961305,17.2873264 L151.400242,25.8132394 L156.73201,25.8132394 L149.185556,16.0355528 L156.485934,6.96169681 Z M129.52361,14.627558 L126.652778,14.3536699 C124.396963,14.1580594 123.207711,13.5713949 123.207711,12.3197883 C123.207711,10.8335158 124.725123,9.97313014 126.898855,9.97313014 C129.154495,9.97313014 130.589998,10.990071 130.713036,12.4371212 L134.855203,12.4371212 C134.69121,8.76074574 131.697341,6.49219828 126.939809,6.49219828 C122.141322,6.49219828 118.901377,8.91730088 118.901377,12.4761765 C118.901377,15.4487214 120.869987,17.3651032 125.340313,17.7953795 L128.252274,18.0691007 C130.015762,18.2254889 131.205189,18.5774876 131.205189,20.181093 C131.205189,21.6283101 130.097846,22.6841394 127.185885,22.6841394 C124.504424,22.6841394 123.183209,21.5238287 122.719584,19.9684584 L118.238231,19.9684584 C118.684704,23.523829 121.816663,26.2824041 127.185885,26.2824041 C132.230448,26.2824041 135.511523,23.7401355 135.511523,19.9856494 C135.511523,16.6611058 133.214753,14.9793898 129.52361,14.6273911 L129.52361,14.627558 Z M138.399156,25.8132394 L142.70549,25.8132394 L142.70549,0 L138.399156,0 L138.399156,25.8132394 Z M110.002028,9.1523005 L109.386838,9.1523005 L109.386838,6.96152991 L105.080503,6.96152991 L105.080503,25.8132394 L109.386838,25.8132394 L109.386838,15.9572753 C109.386838,12.5936763 111.016611,10.6380722 114.226454,10.6380722 L116.952544,10.6380722 L116.952544,6.49253209 L115.374751,6.49253209 C112.396458,6.49253209 111.130723,7.56371643 110.002028,9.15246741 L110.002028,9.1523005 Z" id="Shape"></path>
            </g>
        </g>
    </g>
</svg>