<?xml version="1.0" encoding="UTF-8"?>
<svg width="114px" height="85px" viewBox="0 0 114 85" version="1.1" xmlns="http://www.w3.org/2000/svg" xmlns:xlink="http://www.w3.org/1999/xlink">
    <title>Kubernetes</title>
    <g  stroke="none" stroke-width="1" fill="none" fill-rule="evenodd">
        <g id="Partner" transform="translate(-1043.000000, -2271.000000)" fill-rule="nonzero">
            <g id="Kubernetes" transform="translate(1043.924974, 2271.775272)">
                <path d="M3.11706642,76.5298221 C3.42502067,76.1836971 3.73297493,75.8372485 4.07909999,75.4908 C4.40107177,75.1328139 4.72185746,74.7737496 5.04145705,74.413607 C5.34908782,74.0283407 5.65704208,73.6818922 5.92682554,73.3739379 C6.19660899,73.0659837 6.46542201,72.7583529 6.65789342,72.5273872 L10.3908683,72.5273872 C9.65980047,73.3739379 8.92808562,74.2208121 8.19734122,74.9903743 C7.50444414,75.76026 6.73477415,76.5684242 5.88833125,77.4148671 C6.35242682,77.8495996 6.78940868,78.3124007 7.19681337,78.8006613 C7.65842127,79.3392578 8.08185838,79.8778542 8.50529548,80.4164507 C8.9248846,80.9564722 9.31036107,81.5221546 9.65947699,82.1101991 C10.005602,82.6872899 10.3142033,83.1873921 10.5448455,83.6496469 L6.92735339,83.6496469 C6.69606422,83.2647041 6.42692772,82.8797613 6.15746775,82.4560007 C5.87594456,81.9896481 5.56746672,81.5401087 5.23360497,81.1096713 C4.92083643,80.6479616 4.57361436,80.2105548 4.19490632,79.8011891 C3.8881584,79.417193 3.53955684,79.0685914 3.1555607,78.7618435 L3.1555607,83.6108292 L0,83.6108292 L0,67.7168959 L3.1555607,67.2164702 L3.1555607,76.5294986 M21.5128046,83.2647041 C20.8309997,83.4547786 20.1365776,83.596279 19.4347603,83.6881412 C18.5570233,83.8314498 17.6682029,83.8957567 16.7789783,83.8802891 C15.9662043,83.9096619 15.1555904,83.7788646 14.3933033,83.4953463 C13.2260368,83.0543325 12.3777404,82.0305986 12.1612818,80.801717 C12.004134,80.1201925 11.9265195,79.4227483 11.9299927,78.7233492 L11.9299927,72.5273872 L15.0862003,72.5273872 L15.0862003,78.3387299 C15.0862003,79.3392578 15.2016832,80.0706491 15.4711432,80.5325805 C15.7406031,80.9945119 16.2403818,81.2248306 16.9717732,81.2248306 C17.216073,81.230327 17.4604421,81.217568 17.7028411,81.1866598 C17.9723011,81.1478421 18.1650959,81.1478421 18.3957382,81.1096713 L18.3957382,72.5277107 L21.5512989,72.5277107 L21.5128046,83.2647041 M31.6348599,77.9922814 C31.6348599,75.9527314 30.9031451,74.9522035 29.4021915,74.9522035 C29.0780948,74.9525232 28.7551734,74.9911782 28.440158,75.0673629 C28.1702488,75.1327423 27.9110963,75.2364468 27.6705958,75.3753171 L27.6705958,81.1096713 C27.8242495,81.1481655 28.0167209,81.1481655 28.2476866,81.1866598 C28.4786523,81.1866598 28.7477887,81.2254776 29.0175722,81.2254776 C29.7755657,81.2596149 30.5045013,80.9307049 30.9804571,80.3397856 C31.4406687,79.6458782 31.6696137,78.8241898 31.6345364,77.9922814 M34.8285914,78.0692699 C34.8447926,78.8939539 34.7144559,79.7149652 34.4436486,80.4940862 C34.2119135,81.1843158 33.8308682,81.8149735 33.3276379,82.3411648 C32.8033168,82.8467256 32.1901846,83.2511669 31.5190536,83.5341641 C30.7273735,83.8079381 29.8932043,83.9382942 29.055743,83.9191069 C28.6711237,83.9191069 28.2861808,83.8802891 27.8627437,83.8421183 C27.4393066,83.8039475 27.0550108,83.7651298 26.6315737,83.726312 C26.2466308,83.6881412 25.861688,83.6111526 25.4767452,83.5338406 C25.1476806,83.4773827 24.825303,83.387195 24.5147116,83.2647041 L24.5147116,67.7159254 L27.6705958,67.2158232 L27.6705958,72.7577059 C28.0289172,72.6021214 28.403131,72.4860609 28.7866065,72.4115809 C29.1923857,72.333225 29.6048278,72.2945484 30.0181001,72.296098 C30.733434,72.2829775 31.4428917,72.4274312 32.0961443,72.7192117 C32.6924746,72.9787441 33.219792,73.3742322 33.6359156,73.8740401 C34.0785665,74.412565 34.3942255,75.0438831 34.5594549,75.7211187 C34.733743,76.4915938 34.8239824,77.2786945 34.8285914,78.068623 M36.7148112,78.1847528 C36.6940231,77.3030945 36.8510137,76.4262798 37.1764191,75.6066063 C37.4546266,74.9212225 37.8594602,74.2943833 38.3697419,73.7588808 C38.8414235,73.2625492 39.4204754,72.8807932 40.0625199,72.6428701 C40.6972908,72.3823421 41.3777743,72.2514588 42.0638991,72.2579272 C43.4592536,72.1939591 44.8161531,72.725431 45.796874,73.720063 C46.7204133,74.6824201 47.1820212,76.107032 47.1820212,77.9537871 C47.1873436,78.1598113 47.174571,78.3659051 47.1438504,78.5696956 C47.1438504,78.762167 47.1053561,78.9543149 47.1053561,79.1467863 L39.9467135,79.1467863 C40.0100655,79.7719056 40.3487483,80.3362583 40.8705763,80.6862342 C41.511409,81.0980682 42.2647257,81.299797 43.0256092,81.2633249 C43.5938959,81.2712496 44.1614546,81.2197519 44.7190341,81.1096713 C45.1929986,81.029936 45.6573405,80.900922 46.1045048,80.7247284 L46.5276184,83.3028749 C46.3736413,83.3801869 46.1426756,83.4571755 45.8353683,83.5723349 C45.5239334,83.6771056 45.2004506,83.7418891 44.8726877,83.7651298 C44.5044004,83.8404397 44.1316132,83.8917655 43.756677,83.9187834 C43.3717342,83.9576012 42.9489441,83.995772 42.5636778,83.995772 C41.6694216,84.0163702 40.7799543,83.8594765 39.9467135,83.5341641 C39.2590297,83.2609179 38.6315244,82.855622 38.099635,82.3411648 C37.6243405,81.8010419 37.2584996,81.1737291 37.022442,80.4940862 C36.820359,79.7407391 36.7166303,78.9644047 36.7138408,78.1844293 M44.1416199,76.9532592 C44.131361,76.6900991 44.0793884,76.4302363 43.9876427,76.1833736 C43.9115358,75.9348935 43.7945591,75.7008308 43.6415177,75.4908 C43.2709271,75.0238884 42.6969783,74.7656114 42.1017464,74.7979029 C41.7839823,74.7982797 41.4696677,74.8637848 41.1782071,74.9903743 C40.93702,75.0894118 40.7251276,75.2484146 40.5626221,75.4523057 C40.3897747,75.6555603 40.2589383,75.8910658 40.1776792,76.1452028 C40.0954852,76.3969824 40.0311682,76.6542504 39.9852078,76.9150884 L44.1419433,76.9150884 M56.3035487,75.2983286 C55.9762468,75.2048387 55.6413291,75.1404315 55.3026973,75.1058572 C54.8969182,75.0275013 54.4844761,74.9888247 54.0712038,74.9903743 C53.8263023,75.0028069 53.5822548,75.0285075 53.3401359,75.0673629 C53.1329745,75.0951828 52.9273956,75.1337289 52.7242274,75.1828457 L52.7242274,83.6881412 L49.5683432,83.6881412 L49.5683432,73.1048014 C50.2233102,72.8830791 50.8916677,72.7030785 51.5693989,72.5658815 C52.4150062,72.3732142 53.2807014,72.2828544 54.1478689,72.296745 C54.3538721,72.2925077 54.5598738,72.3052746 54.7637774,72.3349158 C55.0089643,72.3434932 55.2532503,72.3692189 55.4948453,72.4119044 C55.7261344,72.4507221 55.9567766,72.4888929 56.2262366,72.5273872 C56.4568788,72.566205 56.688168,72.6431935 56.8418217,72.6813643 L56.3032252,75.2983286 M58.5355701,72.91233 C60.0804334,72.5047714 61.671354,72.2978745 63.2690729,72.296745 C64.0696229,72.2633988 64.8685249,72.3942923 65.6165771,72.6813643 C66.2047252,72.8795127 66.7249926,73.2396632 67.1175306,73.7203865 C67.4799465,74.2021268 67.7417669,74.7518397 67.8874163,75.3368228 C68.0486714,76.0175208 68.1261263,76.715376 68.1180585,77.4148671 L68.1180585,83.6881412 L64.9621743,83.6881412 L64.9621743,77.8004569 C64.9621743,76.7996056 64.8470149,76.0685377 64.5772315,75.6451006 C64.307448,75.2216635 63.8076693,75.0291921 63.076278,75.0291921 C62.8319621,75.0239101 62.5875929,75.0368855 62.3452101,75.0680098 C62.1126044,75.0723921 61.8808879,75.0980542 61.65296,75.1446749 L61.65296,83.7266355 L58.5352466,83.7266355 L58.5352466,72.9126535 M70.4655627,78.1847528 C70.4447569,77.3030932 70.6017481,76.4262749 70.9271707,75.6066063 C71.2054749,74.921197 71.6104195,74.294356 72.1208169,73.7588808 C72.5925912,73.2625082 73.1717578,72.8807495 73.8139183,72.6428701 C74.4486893,72.3823421 75.1291728,72.2514588 75.8152975,72.2579272 C77.2106521,72.1939591 78.5675516,72.725431 79.5482725,73.720063 C80.4714883,74.6824201 80.9334197,76.107032 80.9334197,77.9537871 C80.9386384,78.1598208 80.9257575,78.365915 80.8949254,78.5696956 C80.8949254,78.762167 80.8561076,78.9543149 80.8561076,79.1467863 L73.6984355,79.1467863 C73.7617875,79.7719056 74.1004703,80.3362583 74.6222983,80.6862342 C75.2629484,81.0979378 76.0160185,81.299661 76.7766841,81.2633249 C77.3451868,81.2712948 77.9129647,81.2197969 78.470756,81.1096713 C78.9446112,81.0299163 79.4088438,80.9009026 79.8559032,80.7247284 L80.2793403,83.3028749 C80.1253632,83.3801869 79.8943975,83.4571755 79.5864433,83.5723349 C79.275218,83.6770587 78.951955,83.7418418 78.6244097,83.7651298 C78.2561216,83.8404353 77.8833347,83.891761 77.508399,83.9187834 C77.1234562,83.9576012 76.7000191,83.995772 76.3153997,83.995772 C75.4211436,84.0163702 74.5316762,83.8594765 73.6984355,83.5341641 C73.0107478,83.2609254 72.3832411,82.8556286 71.8513569,82.3411648 C71.3758313,81.8010964 71.0097686,81.17378 70.773517,80.4940862 C70.571631,79.7407147 70.4681194,78.9643781 70.4655627,78.1844293 M77.8930183,76.9532592 C77.8828578,76.6901173 77.8309947,76.4302558 77.7393647,76.1833736 C77.6631527,75.9348747 77.5460665,75.7008117 77.3929161,75.4908 C77.0223256,75.0238884 76.4483768,74.7656114 75.8531449,74.7979029 C75.5353807,74.7982797 75.2210661,74.8637848 74.9296056,74.9903743 C74.6884185,75.0894118 74.476526,75.2484146 74.3140205,75.4523057 C74.1411732,75.6555603 74.0103367,75.8910658 73.9290777,76.1452028 C73.8469838,76.3969878 73.7827748,76.6542564 73.7369298,76.9150884 L77.8930183,76.9150884 M83.2809239,69.7564459 L86.4368081,69.2563437 L86.4368081,72.5273872 L90.2086008,72.5273872 L90.2086008,75.1443514 L86.4368081,75.1443514 L86.4368081,79.0697978 C86.4104307,79.6171474 86.5298761,80.1616848 86.7829331,80.6477399 C87.0142223,81.0326827 87.5143245,81.2251541 88.2072216,81.2251541 C88.5547159,81.218646 88.9015852,81.192944 89.2462437,81.1481655 C89.586629,81.0861607 89.9212853,80.9960318 90.2467716,80.8787056 L90.7083795,83.3416927 C90.3002292,83.5155909 89.8744048,83.6446614 89.4383917,83.7266355 C88.869131,83.845746 88.2878114,83.8973199 87.7064724,83.8802891 C86.9730399,83.9003159 86.2423362,83.7829206 85.5520866,83.5341641 C85.0336228,83.3236719 84.5720513,82.9939779 84.2047867,82.571807 C83.8481605,82.1204115 83.5981379,81.5942692 83.4733953,81.0326827 C83.3446555,80.3863425 83.2802916,79.728834 83.2812474,79.0697978 L83.2812474,69.7564459 M91.8247137,78.1847528 C91.8040018,77.3030705 91.9611034,76.4262497 92.2866451,75.6066063 C92.5647556,74.921248 92.9694784,74.2944106 93.4796443,73.7588808 C93.9514187,73.2625082 94.5305853,72.8807495 95.1727458,72.6428701 C95.8075167,72.3823421 96.4880003,72.2514588 97.174125,72.2579272 C98.5694795,72.1939591 99.926379,72.725431 100.9071,73.720063 C101.830963,74.6824201 102.292571,76.107032 102.292571,77.9537871 C102.297681,78.1598303 102.284692,78.3659244 102.253753,78.5696956 C102.253753,78.762167 102.215259,78.9543149 102.215259,79.1467863 L95.0572629,79.1467863 C95.1206149,79.7719056 95.4592977,80.3362583 95.9811257,80.6862342 C96.6218671,81.098003 97.3750606,81.299729 98.1358351,81.2633249 C98.7042297,81.2712698 99.2718977,81.2197721 99.8295835,81.1096713 C100.303439,81.0299163 100.767671,80.9009026 101.214731,80.7247284 L101.638491,83.3028749 C101.484514,83.3801869 101.253548,83.4571755 100.945271,83.5723349 C100.634045,83.6770587 100.310782,83.7418418 99.9832371,83.7651298 C99.6149498,83.8404397 99.2421626,83.8917655 98.8672264,83.9187834 C98.4822836,83.9576012 98.0594935,83.995772 97.6742272,83.995772 C96.779971,84.0163702 95.8905037,83.8594765 95.0572629,83.5341641 C94.3695752,83.2609254 93.7420685,82.8556286 93.2101844,82.3411648 C92.7348899,81.8010419 92.369049,81.1737291 92.1329914,80.4940862 C91.9122737,79.7445913 91.8082958,78.9655755 91.8247137,78.1844293 M99.2139985,76.9532592 C99.2036358,76.6900816 99.151554,76.4302182 99.0596978,76.1833736 C98.9835909,75.9348935 98.8666142,75.7008308 98.7135728,75.4908 C98.3430497,75.0239845 97.7692453,74.7657183 97.174125,74.7979029 C96.8562519,74.7982355 96.5418227,74.8637415 96.2502622,74.9903743 C96.0089578,75.0893642 95.7969493,75.2483706 95.6343537,75.4523057 C95.4617373,75.6556151 95.3311228,75.891117 95.2500578,76.1452028 C95.1677502,76.396973 95.103325,76.6542415 95.0572629,76.9150884 L99.2139985,76.9150884 M107.872948,81.3788077 C108.289565,81.4094316 108.708121,81.3572083 109.104441,81.2251541 C109.339981,81.0955506 109.475999,80.8383882 109.450566,80.5707513 C109.450566,80.3012913 109.296913,80.1091434 108.988958,79.916672 C108.539058,79.6480525 108.061543,79.4286538 107.56467,79.2622692 C107.064568,79.0697978 106.602636,78.8773264 106.21834,78.684855 C105.849973,78.508596 105.512018,78.2748119 105.217166,77.9922814 C104.9344,77.705764 104.711985,77.3654325 104.563086,76.99143 C104.399058,76.5485113 104.32068,76.07846 104.332121,75.6062828 C104.289127,74.64551 104.720666,73.7248784 105.486626,73.1432957 C106.256511,72.5273872 107.334028,72.219433 108.681004,72.219433 C109.339757,72.2243975 109.996718,72.288816 110.643889,72.4119044 C111.143556,72.4879249 111.633701,72.6169675 112.106025,72.7968472 L111.567428,75.2601578 C111.182485,75.1443514 110.797543,75.0288686 110.373782,74.9137092 C109.908326,74.7991489 109.429657,74.7472567 108.950464,74.7594086 C107.949613,74.7594086 107.487681,75.0288686 107.487681,75.5674651 C107.494798,75.6864063 107.520785,75.8034589 107.56467,75.9142371 C107.618766,76.0433634 107.713327,76.1514334 107.83413,76.2221913 C107.949613,76.2991799 108.142084,76.4143393 108.334555,76.5294986 C108.565521,76.645305 108.834658,76.7222935 109.181106,76.8762707 C109.776781,77.0892786 110.355701,77.346516 110.913025,77.6458328 C111.317379,77.8312046 111.67317,78.1079306 111.952371,78.4542127 C112.218058,78.7184242 112.404609,79.0516375 112.490968,79.4162463 C112.606152,79.8162124 112.658105,80.2317263 112.644945,80.6477399 C112.69457,81.638574 112.228716,82.5847171 111.413128,83.1495447 C110.605071,83.7266355 109.450566,83.995772 107.911118,83.995772 C107.081696,84.0213522 106.252773,83.930762 105.448455,83.7266355 C104.98637,83.6309775 104.535099,83.489007 104.101478,83.3028749 L104.640075,80.7247284 C105.178704,80.9317998 105.731841,81.0989519 106.295005,81.2248306 C106.81346,81.3350288 107.342646,81.3866779 107.872624,81.3788077" id="Shape" fill="#000000"></path>
                <polygon  fill="#FFFFFF" points="22.4230811 38.8138361 25.8581297 38.8138361 25.8581297 41.5414309 22.4227577 41.5414309"></polygon>
                <path d="M62.5881446,36.567258 C62.4971235,36.5492249 62.4042692,36.5421658 62.311568,36.5462317 C62.1514278,36.5547148 61.9946456,36.5954232 61.8506071,36.6659198 C61.2698556,36.9462908 61.0127973,37.6342034 61.2673702,38.2267174 L61.2589597,38.2386862 L64.0176087,44.9033727 C66.6569034,43.2192039 68.6596385,40.7034636 69.7092633,37.7537876 L62.6004369,36.5523778 L62.5881446,36.567258 Z M51.5270229,37.5118236 C51.4039603,36.9711055 50.9273163,36.5845002 50.3728414,36.5756685 C50.2932981,36.5746849 50.2138585,36.5817293 50.1357295,36.5966948 L50.1237607,36.5821381 L43.0767192,37.7783722 C44.1349573,40.7048141 46.1293785,43.2002284 48.7505823,44.8774942 L51.481412,38.2784744 L51.4600622,38.2525959 C51.5608643,38.0191451 51.5843284,37.7595662 51.5270229,37.5118236 L51.5270229,37.5118236 Z M57.4289403,40.0996745 C57.2192165,39.7087152 56.8112899,39.4649654 56.3676314,39.4655058 C55.9239728,39.466048 55.5166422,39.7107925 55.307873,40.1022623 L55.3020504,40.1022623 L51.8365945,46.3687433 C54.3178998,47.2135245 56.9854151,47.3507366 59.5403032,46.765008 C60.0140956,46.6571808 60.4768896,46.5277883 60.9286852,46.3768303 L57.4551423,40.099351 L57.4289403,40.0996745 Z M68.3994873,25.5430131 L63.067544,30.3150102 L63.0704553,30.3302138 C62.7367159,30.6219754 62.5901235,31.0734219 62.6887896,31.5055929 C62.7874557,31.937764 63.1154452,32.2808618 63.5427381,32.3988771 L63.5492077,32.427667 L70.4555348,34.4170774 C70.7540496,31.3142379 70.0321821,28.1987144 68.3994873,25.5433366 L68.3994873,25.5430131 Z M58.4935175,26.0774043 C58.5139627,26.5202379 58.77591,26.916083 59.1755135,27.1080116 C59.575117,27.2999403 60.0478345,27.2569529 60.4062628,26.9960914 L60.4272891,27.0051489 L66.261599,22.8678223 C64.0407364,20.692578 61.1667812,19.3071423 58.0817257,18.9245844 L58.4870479,26.0754635 L58.4935175,26.0774043 Z M52.3150235,27.0226169 C52.6736104,27.2832977 53.1464858,27.3257012 53.5457303,27.1329765 C53.9449749,26.9402517 54.2059164,26.5436174 54.2248574,26.100695 L54.2546177,26.0864618 L54.6599399,18.9245844 C54.1706478,18.983381 53.6846832,19.0671643 53.2039502,19.175606 C50.6464995,19.7504575 48.3006563,21.0287555 46.4312209,22.8662049 L52.3037016,27.0290865 L52.3150235,27.0226169 Z M49.1843708,32.4338131 C49.6126723,32.3169792 49.9418542,31.9738155 50.0407811,31.5410271 C50.139708,31.1082387 49.9923081,30.6561377 49.6573006,30.3648263 L49.6631232,30.3366835 L44.3017431,25.5410722 C42.6661293,28.2032101 41.9640846,31.3344117 42.3065101,34.4400445 L49.1788716,32.4571038 L49.1843708,32.4338131 Z M54.3917738,34.5403238 L56.3695389,35.491359 L58.3414813,34.5425881 L58.831232,32.4134338 L57.4664642,30.7067461 L55.2700257,30.7067461 L53.9013761,32.410846 L54.3917738,34.5403238 Z" id="Shape" fill="#000000"></path>
                <path d="M89.0650942,38.7349066 L83.4294019,14.2554544 C83.1225201,12.973064 82.2566843,11.8959041 81.0702523,11.320508 L58.2580231,0.42856706 C57.0605845,-0.142855687 55.6691123,-0.142855687 54.4716737,0.42856706 L31.6639732,11.3263307 C30.4772514,11.9013598 29.6111193,12.9784743 29.3041767,14.2609536 L23.6775419,38.7397588 C23.5387681,39.3585011 23.5383262,40.0002527 23.6762479,40.6191855 C23.7168659,40.8077354 23.7699251,40.9933885 23.8350773,41.1749265 C23.9451931,41.48472 24.0909854,41.7806471 24.2695128,42.0567367 C24.3468248,42.1748074 24.4283421,42.2896433 24.516976,42.4009209 L40.3041604,62.029123 C40.373062,62.1145221 40.4490801,62.1924811 40.5244513,62.2717341 C40.7721648,62.5355241 41.0518801,62.7673162 41.3570923,62.9617198 C41.7431154,63.2046757 42.1638025,63.3875879 42.6047599,63.5041981 C42.9663582,63.6033375 43.3393663,63.6547756 43.714301,63.6572047 L43.9598233,63.6572047 L69.0309229,63.6513821 C69.1833334,63.6507057 69.3355944,63.6417429 69.4870316,63.6245331 C69.7042635,63.5999728 69.919339,63.5590987 70.1304361,63.5022572 C70.2817362,63.4624186 70.4308492,63.4146939 70.5771638,63.3592784 C70.6913527,63.3156084 70.8052182,63.2719384 70.9152018,63.219211 C71.0799146,63.1403452 71.2396851,63.0515478 71.3936308,62.9533093 C71.7908572,62.7035345 72.1445615,62.3904783 72.44074,62.0265352 L72.9220802,61.4280947 L88.2224252,42.3944513 C88.515681,42.0267168 88.7460904,41.6130074 88.9043239,41.1700743 C88.970394,40.9879235 89.0244239,40.8016283 89.0660646,40.6123924 C89.2043386,39.9934983 89.2038967,39.3516688 89.0647707,38.7329657 L89.0650942,38.7349066 Z M65.4034029,48.2556101 C65.4674638,48.4438698 65.5434193,48.6278699 65.6308103,48.8064988 C65.4912447,49.0507135 65.4532543,49.3399981 65.5250319,49.6119674 C65.8569834,50.3721022 66.2623978,51.0979911 66.7354991,51.7792926 C67.0002971,52.1275995 67.2447184,52.4909373 67.4675375,52.8674839 C67.5225293,52.9693805 67.5943422,53.1272394 67.6464227,53.2349587 C67.9144733,53.6829289 67.9049756,54.244227 67.6219225,54.682872 C67.3388694,55.121517 66.8313451,55.3614436 66.3127229,55.3017819 C65.7941007,55.2421203 65.3543148,54.8932162 65.1782599,54.401756 C65.1261794,54.2950071 65.0537195,54.1526753 65.0094026,54.0517492 C64.8534178,53.642622 64.7211108,53.2248558 64.6131379,52.8005232 C64.3764128,52.0065804 64.0626538,51.237676 63.6763359,50.504776 C63.5082937,50.2781589 63.2581645,50.126386 62.979557,50.0819859 C62.9358871,50.0066147 62.7741464,49.7099823 62.6874534,49.5569756 C58.6265309,51.0948554 54.1414731,51.0833399 50.0885012,49.5246275 L49.7795765,50.0842502 C49.5590395,50.1185182 49.3539688,50.2185169 49.1911639,50.3711782 C48.725625,51.1351621 48.3697659,51.9607815 48.1340268,52.8238139 C48.0270582,53.2481739 47.8955027,53.6659544 47.7400265,54.0750398 C47.6963566,54.175319 47.6232498,54.3157099 47.5711693,54.4221353 L47.5711693,54.4250466 L47.5689049,54.4276345 C47.3931435,54.9198197 46.9528299,55.269255 46.4335871,55.328629 C45.9143444,55.388003 45.4065141,55.1469852 45.1241824,54.7071816 C44.8418508,54.2673781 44.8341399,53.705309 45.1043004,53.2579259 C45.1557339,53.1495596 45.2246355,52.9926712 45.2789803,52.8907745 C45.501668,52.513285 45.7459801,52.1489771 46.0106952,51.7996719 C46.4923625,51.100358 46.9061406,50.3566405 47.246394,49.5786489 C47.2825982,49.3149057 47.240294,49.046341 47.124765,48.8064988 L47.3731987,48.2112931 C43.6366747,46.0060065 40.8362994,42.5096222 39.5003093,38.381665 L38.905427,38.4829146 C38.6746223,38.3191192 38.4025244,38.2233022 38.1200143,38.2063381 C37.3060145,38.3621108 36.5090889,38.59666 35.7404854,38.9066752 C35.3413912,39.0861814 34.932386,39.2427849 34.5154615,39.3757232 C34.4167996,39.4028956 34.2744678,39.4300681 34.1618963,39.4546526 C34.1528388,39.4578875 34.1450753,39.4617692 34.1360178,39.4640336 C34.1290493,39.4650604 34.1220302,39.4657083 34.1149915,39.4659745 C33.620769,39.6285351 33.0771164,39.4971829 32.7116326,39.126908 C32.3461488,38.7566332 32.2218876,38.2113161 32.3908706,37.7192525 C32.5598536,37.2271888 32.9929277,36.8732702 33.5087874,36.8056638 L33.5285198,36.8008115 L33.5404886,36.7975767 C33.6546775,36.7707278 33.8008911,36.7328804 33.9050521,36.7128246 C34.3393626,36.652526 34.7767881,36.6173159 35.2151516,36.6073697 C36.0418779,36.5533138 36.8613614,36.4187556 37.6619647,36.2056058 C37.8992324,36.0544752 38.0997186,35.8522206 38.2487599,35.6136349 L38.8203514,35.4467185 C38.2001043,31.1383668 39.1922465,26.7526904 41.6064964,23.1308126 L41.1688261,22.7406941 C41.1528699,22.4575448 41.0578349,22.1845434 40.8945139,21.9526935 C40.26574,21.4122052 39.585681,20.9344196 38.8640214,20.5261407 C38.4743526,20.3274178 38.0964409,20.1064383 37.7321601,19.8642978 C37.6493489,19.8025129 37.5393652,19.7096737 37.4494374,19.6365669 L37.4290581,19.6223337 C36.7825985,19.1579831 36.6325717,18.25869 37.0932844,17.6096327 C37.3584847,17.284997 37.7625449,17.1062157 38.1811523,17.1282924 C38.5286001,17.143202 38.8621305,17.2690411 39.1328344,17.4873567 C39.2256736,17.5601401 39.3528018,17.6575079 39.4352895,17.7283504 C39.7531024,18.0289302 40.053358,18.3475467 40.3345677,18.6826204 C40.8925298,19.2956273 41.5089882,19.852715 42.1751766,20.3459616 C42.4248121,20.4772282 42.715946,20.5054474 42.9861444,20.4245675 C43.1487477,20.5431774 43.3128606,20.6598463 43.4784831,20.7745744 C45.8775606,18.2246176 48.9840687,16.4499528 52.3991286,15.678449 C53.2119572,15.4943697 54.0367052,15.3675768 54.8672914,15.2990053 L54.8996396,14.7219146 C55.111671,14.5334657 55.2654313,14.288347 55.342809,14.0154313 C55.3726006,13.1871442 55.3216816,12.3579241 55.1907728,11.5395049 C55.1039511,11.1105947 55.041741,10.6770682 55.0044475,10.2410507 C55.0008892,10.141742 55.0063884,10.0045859 55.0076823,9.89136738 C55.0076823,9.87842812 55.0044475,9.86548887 55.0044475,9.85319658 C54.9515803,9.33256024 55.199442,8.82718136 55.643475,8.55024847 C56.087508,8.27331559 56.6503963,8.27304885 57.0946916,8.54956078 C57.5389869,8.8260727 57.7873275,9.33121644 57.7349537,9.85190265 C57.7349537,9.97159075 57.7420703,10.1300966 57.737865,10.2400803 C57.7004918,10.6760372 57.6379557,11.10947 57.5505693,11.538211 C57.4188689,12.3567713 57.3670838,13.1861994 57.3959452,14.0147843 C57.4499146,14.2917766 57.6099932,14.5367119 57.842026,14.69733 C57.8468783,14.7959918 57.8630523,15.1252958 57.8750211,15.3067689 C62.1908639,15.6991821 66.2175865,17.6447264 69.2072202,20.7820144 L69.7267313,20.4109813 C70.0057525,20.4588561 70.2926031,20.4277059 70.5548436,20.3210535 C71.2209306,19.8269608 71.8373703,19.26924 72.3954526,18.6557714 C72.6772567,18.3205119 72.9782768,18.0018864 73.2969951,17.7015014 C73.3807768,17.6296885 73.507258,17.5332911 73.5997737,17.4601843 C73.9735333,17.0916584 74.5247743,16.9686311 75.0197584,17.1432686 C75.5147425,17.3179061 75.8667388,17.7596085 75.926493,18.2810843 C75.9862472,18.8025601 75.7432893,19.3124363 75.3006387,19.5945143 C75.2090935,19.6685916 75.0881114,19.7717821 75.0001245,19.8371254 C74.6350636,20.0794469 74.2562801,20.3004309 73.8656754,20.4989682 C73.1441587,20.9074733 72.464121,21.3852439 71.8351828,21.925521 C71.6521087,22.1398882 71.5601573,22.4173678 71.5789856,22.6986415 C71.5029675,22.7685135 71.2360954,23.0049784 71.094734,23.133077 C73.5158139,26.7420204 74.5278424,31.1141631 73.9387821,35.4198696 L74.4899944,35.5803164 C74.6277742,35.8282468 74.8315587,36.033151 75.0787305,36.1722872 C75.8797437,36.3858081 76.6996506,36.5207981 77.5268374,36.575345 C77.9647427,36.5853897 78.4017197,36.6203824 78.835643,36.680153 C78.9504789,36.7011793 79.1164248,36.7471136 79.2335251,36.7739626 C79.7493941,36.8417703 80.1823538,37.1958967 80.3511255,37.6880703 C80.5198971,38.1802439 80.3953599,38.725542 80.029657,39.0956503 C79.6639541,39.4657585 79.1201862,39.5968162 78.6260271,39.4339498 L78.6062947,39.431362 C78.5972373,39.4290976 78.5888267,39.4242454 78.5794458,39.4216575 C78.4668743,39.3973964 78.3255129,39.3728119 78.2268511,39.3469333 C77.8099569,39.2130047 77.4011499,39.0550983 77.0024741,38.8740036 C76.2331732,38.563755 75.4354735,38.3292011 74.6206809,38.1736664 C74.338707,38.1647542 74.0644489,38.266585 73.8566179,38.4573596 C73.6625291,38.4204827 73.4680089,38.3864094 73.2730575,38.3551395 C71.9530242,42.5087825 69.1521941,46.03227 65.4034029,48.2552866 L65.4034029,48.2556101 Z" id="Shape" fill="#000000"></path>
            </g>
        </g>
    </g>
</svg>