<?xml version="1.0" encoding="UTF-8"?>
<svg width="93px" height="107px" viewBox="0 0 93 107" version="1.1" xmlns="http://www.w3.org/2000/svg" xmlns:xlink="http://www.w3.org/1999/xlink">
    <title>Netapp</title>
    <g  stroke="none" stroke-width="1" fill="none" fill-rule="evenodd">
        <g id="Partner" transform="translate(-505.000000, -931.000000)" fill="#0A2229" fill-rule="nonzero">
            <g id="Netapp" transform="translate(505.502269, 931.519702)">
                <path d="M0,84.989386 L3.45580549,84.989386 L11.4412543,95.5813322 L11.4412543,84.989386 L15.145995,84.989386 L15.145995,102.114659 L11.96353,102.114659 L3.70962172,91.3006239 L3.70962172,102.112219 L0,102.112219 L0,84.989386 Z M26.1455115,94.5831511 C25.9307439,92.9382267 24.9545277,91.8180186 23.4047844,91.8180186 C21.8672438,91.8180186 20.8666222,92.9162618 20.5688762,94.5831511 L26.1455115,94.5831511 Z M16.9446734,95.6813943 L16.9446734,95.6325835 C16.9446734,91.9131996 19.6048627,88.8625239 23.4047844,88.8625239 C27.7538277,88.8625239 29.755071,92.235351 29.755071,95.9156862 C29.755071,96.2158727 29.7306656,96.5502268 29.7087008,96.894343 L20.6298897,96.894343 C20.9959708,98.5636728 22.1527871,99.4447079 23.8099141,99.4447079 C25.0619114,99.4447079 25.9551493,99.0542214 26.9801764,98.1097322 L29.0888034,99.9816269 C27.8856169,101.482559 26.1211061,102.400203 23.7611033,102.400203 C19.8415951,102.400203 16.9446734,99.6594755 16.9446734,95.6789538 M32.0687035,98.4196809 L32.0687035,92.2597564 L30.5067575,92.2597564 L30.5067575,89.1016969 L32.0687035,89.1016969 L32.0687035,85.77524 L35.763682,85.77524 L35.763682,89.1016969 L38.8387632,89.1016969 L38.8387632,92.2597564 L35.763682,92.2597564 L35.763682,97.8119863 C35.763682,98.6710566 36.1322036,99.0761863 36.9546658,99.0761863 C37.6453388,99.0761863 38.2530334,98.907789 38.7899523,98.6222458 L38.7899523,101.5753 C38.0040983,102.041443 37.0986577,102.329427 35.8588631,102.329427 C33.6062441,102.329427 32.0687035,101.433749 32.0687035,98.4196809 M68.2838855,95.6325835 L68.2838855,95.5837727 C68.2838855,93.4287754 66.8195612,91.9864159 65.0892179,91.9864159 C63.3588746,91.9864159 61.9311583,93.4263348 61.9311583,95.5837727 L61.9311583,95.6325835 C61.9311583,97.7900214 63.3613151,99.2323809 65.0892179,99.2323809 C66.8171206,99.2323809 68.2838855,97.8144268 68.2838855,95.6325835 Z M58.272788,89.1016969 L61.9799691,89.1016969 L61.9799691,90.9735915 C62.873207,89.7582023 64.1130016,88.8649644 66.0434693,88.8649644 C69.0819423,88.8649644 71.978864,91.2347294 71.978864,95.5837727 L71.978864,95.6325835 C71.978864,99.9816269 69.1307531,102.353832 66.0434693,102.353832 C64.0666314,102.353832 62.8488016,101.460594 61.9799691,100.423365 L61.9799691,106 L58.272788,106 L58.272788,89.1016969 Z M83.5006562,95.6325835 L83.5006562,95.5837727 C83.5006562,93.4287754 82.0363318,91.9864159 80.3059885,91.9864159 C78.5756452,91.9864159 77.1381668,93.4263348 77.1381668,95.5837727 L77.1381668,95.6325835 C77.1381668,97.7900214 78.5780858,99.2323809 80.3059885,99.2323809 C82.0338913,99.2323809 83.5006562,97.8144268 83.5006562,95.6325835 Z M73.4895586,89.1016969 L77.1967398,89.1016969 L77.1967398,90.9735915 C78.0899777,89.7582023 79.3297723,88.8649644 81.2602399,88.8649644 C84.298713,88.8649644 87.1956347,91.2347294 87.1956347,95.5837727 L87.1956347,95.6325835 C87.1956347,99.9816269 84.3475238,102.353832 81.2602399,102.353832 C79.283402,102.353832 78.0655723,101.460594 77.1967398,100.423365 L77.1967398,106 L73.4895586,106 L73.4895586,89.1016969 Z M50.7534824,95.0004835 L48.4886607,89.4848617 L46.2262796,95.0004835 L50.7534824,95.0004835 Z M46.855939,84.989386 L50.2287661,84.989386 L57.342942,102.114659 L53.4478392,102.114659 L51.8736905,98.3025349 L45.1158336,98.3025349 L43.5538876,102.114659 L39.732001,102.114659 L46.855939,84.989386 Z" id="Shape"></path>
                <polygon  points="0 0 0 72.1545829 33.7599982 72.1545829 33.7599982 28.8618332 53.0524716 28.8618332 53.0524716 72.1570235 86.8124698 72.1570235 86.8124698 3.45466907e-15"></polygon>
                <path d="M92.3183294,92.0083807 L91.8790321,92.0083807 L91.8790321,89.5776023 L91.8643888,89.5776023 L91.0077591,92.0083807 L90.731978,92.0083807 L89.8753482,89.5776023 L89.8631455,89.5776023 L89.8631455,92.0083807 L89.4238482,92.0083807 L89.4238482,89.1016969 L90.1023185,89.1016969 L90.8759699,91.305505 L91.6496213,89.1016969 L92.3183294,89.1016969 L92.3183294,92.0083807 Z M88.899132,89.4824212 L88.0766698,89.4824212 L88.0766698,92.0083807 L87.6373725,92.0083807 L87.634932,89.4824212 L86.8124698,89.4824212 L86.8124698,89.1016969 L88.899132,89.1016969 L88.899132,89.4824212 Z" id="Shape"></path>
            </g>
        </g>
    </g>
</svg>