<?xml version="1.0" encoding="UTF-8"?>
<svg width="175px" height="31px" viewBox="0 0 175 31" version="1.1" xmlns="http://www.w3.org/2000/svg" xmlns:xlink="http://www.w3.org/1999/xlink">
    <title>PaloAltoNetworks</title>
    <g  stroke="none" stroke-width="1" fill="none" fill-rule="evenodd">
        <g id="Partner" transform="translate(-190.000000, -450.000000)" fill="#0A2229" fill-rule="nonzero">
            <g id="PaloAltoNetworks" transform="translate(190.534661, 450.025774)">
                <path d="M74.0650404,5.8443949 C71.814018,5.8443949 69.4755273,6.4319551 66.5813557,7.91625289 L68.1892288,11.7236923 C70.7026561,10.3798177 72.7787419,9.79225748 74.2991467,9.79225748 C76.024073,9.79225748 76.7842754,10.4081487 76.7842754,11.2198933 L76.7842754,11.2753235 C76.7842754,11.8357845 76.3160628,12.1437301 75.1764023,12.2558223 L73.1890711,12.4516757 C68.2188137,12.9554747 66.1723127,15.0273327 66.1723127,17.8826043 L66.1723127,18.0784577 C66.1723127,20.7945379 68.5108034,22.9218261 71.814018,22.9218261 C73.9891488,22.9218261 75.8787213,22.0423334 77.0273858,20.4902876 L77.3978398,22.6422115 L81.8998846,22.6422115 L81.8998846,12.8717135 C81.8998846,8.25252948 79.1227661,5.8443949 74.0650404,5.8443949 M73.6264126,19.1969161 C71.960656,19.1969161 71.1708687,18.5810249 71.1708687,17.6288571 L71.1708687,17.5734269 C71.1708687,16.7333513 71.66738,16.1174601 73.4797746,15.8661765 L74.2695618,15.7540843 C75.4233716,15.6001115 76.1321221,15.3968674 76.7842754,15.0187102 L76.7842754,16.2578833 C76.7842754,18.1338879 75.5558603,19.1969161 73.6264126,19.1969161" id="Shape"></path>
                <polygon  points="17.2878243 19.7820127 31.7329565 5.95648709 25.9703392 0.441797299 20.2077219 5.95648709 23.0761676 8.70089828 8.63746685 22.5288875 14.3936527 28.0472726 20.15627 22.5288875"></polygon>
                <polygon id="Rectangle" transform="translate(10.113410, 10.113410) rotate(-45.000000) translate(-10.113410, -10.113410) " points="0.0422742216 5.8820242 19.9949221 6.35560074 20.1845458 14.3447958 0.231897946 13.8712193"></polygon>
                <polygon id="Rectangle" transform="translate(30.254491, 18.379952) rotate(-45.000000) translate(-30.254491, -18.379952) " points="20.1833552 14.1485661 40.136003 14.6221427 40.3256267 22.6113377 20.3729789 22.1377612"></polygon>
                <rect id="Rectangle" x="84.8184959" y="0.245943897" width="5.11560916" height="22.393804"></rect>
                <path d="M57.5746935,5.8443949 C55.2490658,5.8443949 53.3813604,6.82982081 52.3536079,8.37324416 L51.9625731,6.1240095 L47.4605284,6.1240095 L47.4605284,28.2345035 L52.5761375,28.2345035 L52.5761375,20.5691217 C53.5498655,22.0066117 55.391845,22.9156672 57.5746935,22.9156672 C61.6676954,22.9156672 65.0004948,19.4445044 65.0004948,14.6565662 L65.0004948,14.0961052 C65.0004948,9.31186235 61.6676954,5.83946777 57.5746935,5.83946777 M59.7382476,14.5186065 C59.7382476,17.0376015 58.3644808,18.8581759 56.0838736,18.8581759 C53.8032663,18.8581759 52.4294995,17.0388333 52.4294995,14.5186065 L52.4294995,14.2389919 C52.4294995,11.7187652 53.8032663,9.89942255 56.0838736,9.89942255 C58.3644808,9.89942255 59.7382476,11.7187652 59.7382476,14.2389919 L59.7382476,14.5186065 Z" id="Shape"></path>
                <path d="M158.999331,5.8443949 C153.766668,5.8443949 150.082709,9.31555769 150.082709,14.1034959 L150.082709,14.6639569 C150.082709,19.4506633 153.766668,22.9230578 158.999331,22.9230578 C164.231993,22.9230578 167.915952,19.451895 167.915952,14.6639569 L167.915952,14.1034959 C167.915952,9.31678948 164.231993,5.8443949 158.999331,5.8443949 M162.653705,14.5235337 C162.653705,17.0425287 161.279938,18.8631031 158.999331,18.8631031 C156.718723,18.8631031 155.344957,17.0437605 155.344957,14.5235337 L155.344957,14.2439191 C155.344957,11.7236923 156.718723,9.90434968 158.999331,9.90434968 C161.279938,9.90434968 162.653705,11.7236923 162.653705,14.2439191 L162.653705,14.5235337 Z" id="Shape"></path>
                <path d="M172.634095,6.85322468 L172.634095,6.76946348 C172.634095,6.29399547 172.254637,5.95771888 171.581903,5.95771888 L170.412657,5.95771888 L170.412657,8.53337587 L170.968338,8.53337587 L170.968338,7.66496928 L171.585762,7.66496928 L172.050115,8.53337587 L172.66368,8.53337587 L172.092563,7.51469183 C172.439864,7.41245389 172.634095,7.16363384 172.634095,6.85322468 M170.967052,6.43318688 L171.580616,6.43318688 C171.931776,6.43318688 172.077128,6.54527908 172.077128,6.79779447 L172.077128,6.82612547 C172.077128,7.05030986 171.93049,7.18950127 171.580616,7.18950127 L170.967052,7.18950127 L170.967052,6.43318688 Z" id="Shape"></path>
                <path d="M171.476426,4.58551329 C169.898138,4.58551329 168.699308,5.73353448 168.699308,7.24493148 C168.699308,8.75632849 169.898138,9.90434968 171.476426,9.90434968 C173.054715,9.90434968 174.253545,8.75632849 174.253545,7.24493148 C174.253545,5.73353448 173.054715,4.58551329 171.476426,4.58551329 M171.476426,9.53974209 C170.102659,9.53974209 169.108351,8.5875743 169.108351,7.2436997 C169.108351,5.8998251 170.102659,4.94765731 171.476426,4.94765731 C172.850193,4.94765731 173.844502,5.8998251 173.844502,7.2436997 C173.844502,8.5875743 172.850193,9.53974209 171.476426,9.53974209" id="Shape"></path>
                <rect id="Rectangle" x="129.928985" y="0.245943897" width="5.11560916" height="22.393804"></rect>
                <path d="M145.107307,18.8581759 C143.616487,18.8581759 143.060806,18.1585235 143.060806,16.6471265 L143.060806,9.89942255 L149.083256,9.89942255 L149.083256,6.12031415 L143.060806,6.12031415 L143.060806,2.33997397 L137.945197,3.06795737 L137.945197,17.1225945 C137.945197,20.9583649 139.991698,22.9181307 144.0847,22.9181307 C145.897094,22.9181307 148.031063,22.3860007 149.785575,21.4338329 L148.324339,17.9626701 C147.29916,18.4948001 145.867509,18.8594077 145.107307,18.8594077" ></path>
                <path d="M119.111214,5.8443949 C116.860192,5.8443949 114.521701,6.4319551 111.627529,7.91625289 L113.235402,11.7236923 C115.74883,10.3798177 117.824916,9.79225748 119.34532,9.79225748 C121.070247,9.79225748 121.830449,10.4081487 121.830449,11.2198933 L121.830449,11.2753235 C121.830449,11.8357845 121.362236,12.1437301 120.222576,12.2558223 L118.235245,12.4516757 C113.264987,12.9554747 111.218486,15.0273327 111.218486,17.8826043 L111.218486,18.0784577 C111.218486,20.7945379 113.556977,22.9218261 116.860192,22.9218261 C119.034036,22.9218261 120.924895,22.0423334 122.07356,20.4902876 L122.444013,22.6422115 L126.946058,22.6422115 L126.946058,12.8717135 C126.946058,8.25252948 124.16894,5.8443949 119.111214,5.8443949 M118.672586,19.1969161 C117.005543,19.1969161 116.217042,18.5810249 116.217042,17.6288571 L116.217042,17.5734269 C116.217042,16.7333513 116.713554,16.1174601 118.525948,15.8661765 L119.315736,15.7540843 C120.469545,15.6001115 121.178296,15.3968674 121.829163,15.0187102 L121.829163,16.2578833 C121.829163,18.1338879 120.602034,19.1969161 118.672586,19.1969161" id="Shape"></path>
                <path d="M101.128761,5.8443949 C95.8960986,5.8443949 92.2121397,9.31555769 92.2121397,14.1034959 L92.2121397,14.6639569 C92.2121397,19.4506633 95.8960986,22.9230578 101.128761,22.9230578 C106.361423,22.9230578 110.045382,19.451895 110.045382,14.6639569 L110.045382,14.1034959 C110.044096,9.31678948 106.361423,5.8443949 101.128761,5.8443949 M104.781849,14.5235337 C104.781849,17.0425287 103.408082,18.8631031 101.127475,18.8631031 C98.8468674,18.8631031 97.4731006,17.0437605 97.4731006,14.5235337 L97.4731006,14.2439191 C97.4731006,11.7236923 98.8468674,9.90434968 101.127475,9.90434968 C103.408082,9.90434968 104.781849,11.7236923 104.781849,14.2439191 L104.781849,14.5235337 Z" id="Shape"></path>
                <polygon  points="125.143954 30.6463335 123.291684 28.3059469 123.278821 28.3059469 123.278821 30.6463335 122.069701 30.6463335 122.069701 26.618405 123.381725 26.618405 125.195406 28.8972025 125.208269 28.8972025 125.208269 26.618405 126.41739 26.618405 126.41739 30.6463335"></polygon>
                <polygon  points="129.285835 29.0326985 129.285835 29.6609076 131.858432 29.6609076 131.729802 30.6463335 128.0124 30.6463335 128.0124 26.618405 131.729802 26.618405 131.729802 27.5915131 129.285835 27.5915131 129.285835 28.1458152 131.215283 28.1458152 131.215283 29.0326985"></polygon>
                <polygon  points="134.431029 30.6463335 134.431029 27.6531023 132.887471 27.6531023 132.887471 26.618405 137.003626 26.618405 137.132256 27.6531023 135.588698 27.6531023 135.588698 30.6463335"></polygon>
                <polygon  points="143.306489 29.4145511 143.949638 26.618405 145.235937 26.618405 144.078268 30.6463335 142.53471 30.6463335 141.762931 28.2074043 141.634301 28.2074043 140.862522 30.6463335 139.190334 30.6463335 138.161295 26.618405 139.447593 26.618405 140.219373 29.4145511 140.219373 29.4145511 141.119782 26.618405 142.40608 26.618405 143.177859 29.4145511"></polygon>
                <path d="M146.136346,28.6262103 C146.136346,27.3131303 147.067626,26.4902997 148.540438,26.4902997 C150.013249,26.4902997 150.945816,27.3131303 150.945816,28.6262103 C150.945816,29.9392904 150.014536,30.762121 148.540438,30.762121 C147.067626,30.762121 146.136346,29.9380586 146.136346,28.6262103 M149.689102,28.6262103 C149.689102,27.9302533 149.268483,27.5151426 148.540438,27.5151426 C147.812393,27.5151426 147.391773,27.9302533 147.391773,28.6262103 C147.391773,29.3233992 147.812393,29.7372781 148.534006,29.7372781 C149.262051,29.7372781 149.689102,29.3221674 149.689102,28.6262103" id="Shape"></path>
                <path d="M152.310579,26.618405 L154.76355,26.618405 C155.881343,26.618405 156.429306,27.1246676 156.429306,28.0632858 C156.429306,28.707508 156.152752,29.1460225 155.61122,29.352962 L156.609388,30.648797 L155.179024,30.648797 L154.403386,29.5894642 L153.573724,29.5894642 L153.573724,30.648797 L152.310579,30.648797 L152.310579,26.618405 Z M154.60019,28.6446871 C155.020809,28.6446871 155.171306,28.4205027 155.171306,28.1150207 C155.171306,27.8095386 155.020809,27.5915131 154.60019,27.5915131 L153.572437,27.5915131 L153.572437,28.6446871 L154.60019,28.6446871 Z" id="Shape"></path>
                <polygon  points="160.928779 28.5523034 162.600967 30.6340157 162.600967 30.6463335 161.186038 30.6463335 159.89974 29.0942877 159.38522 29.0942877 159.38522 30.6463335 158.098922 30.6463335 158.098922 26.618405 159.38522 26.618405 159.38522 28.0965439 159.89974 28.0965439 161.057408 26.618405 162.600967 26.618405 162.600967 26.618405"></polygon>
                <path d="M163.630005,30.3753414 L163.630005,29.2704325 L163.636437,29.2704325 C164.340042,29.6104045 165.025639,29.7766951 165.619909,29.7766951 C166.0714,29.7766951 166.299075,29.6732254 166.299075,29.4712131 C166.299075,29.2692008 166.148578,29.2174659 165.246883,29.0795063 C164.261578,28.9304606 163.605566,28.6471506 163.605566,27.835406 C163.605566,27.0815552 164.297594,26.5001539 165.649494,26.5001539 C166.191026,26.5001539 166.755711,26.6097826 167.279234,26.8228809 L167.279234,27.9167037 L167.272803,27.9228626 C166.773719,27.6469433 166.100985,27.473262 165.559453,27.473262 C165.078377,27.473262 164.886719,27.5828907 164.886719,27.7664262 C164.886719,28.0029285 165.181281,28.0251005 165.920903,28.147047 C166.906208,28.3084105 167.56222,28.5732437 167.56222,29.4256371 C167.56222,30.0871043 167.045128,30.7498032 165.560739,30.7498032 C164.827549,30.7498032 164.24357,30.6056847 163.630005,30.3753414" ></path>
            </g>
        </g>
    </g>
</svg>