<?xml version="1.0" encoding="UTF-8"?>
<svg width="157px" height="81px" viewBox="0 0 157 81" version="1.1" xmlns="http://www.w3.org/2000/svg" xmlns:xlink="http://www.w3.org/1999/xlink">
    <title>PureStorage</title>
    <g  stroke="none" stroke-width="1" fill="none" fill-rule="evenodd">
        <g id="Partner" transform="translate(-473.000000, -696.000000)" fill="#0A2229" fill-rule="nonzero">
            <g id="PureStorage" transform="translate(473.978467, 696.132794)">
                <path d="M74.1521168,60 L59.5213325,60 C56.4986872,60 53.6828028,58.3656055 52.176403,55.7367903 L39.8692156,34.2730555 C38.3529701,31.6343945 38.3529701,28.3656055 39.8692156,25.7367903 L52.176403,4.27305546 C53.6926485,1.63439449 56.508533,0 59.5213325,0 L84.1357073,0 C87.1681982,0 89.9840827,1.63439449 91.4904824,4.27305546 L103.79767,25.7367903 C105.30407,28.3656055 105.30407,31.6442402 103.79767,34.2730555 L100.607647,39.3928454 C99.1307844,41.9527404 96.3148999,43.5969806 93.2922547,43.5969806 L78.6220873,43.5969806 L86.6463735,29.9901543 L79.2325238,17.0725304 L64.4245159,17.0725304 L57.0008205,30 L74.1521168,60 Z" id="Path-Copy"></path>
                <path d="M5.02133246,72.0590745 C6.5986216,72.0590745 7.60288809,71.5746636 7.60288809,69.9205776 C7.60288809,68.2960289 6.74040039,67.8411552 5.23990811,67.8411552 L4.09977027,67.8411552 L4.09977027,72.0649819 L5.02723991,72.0649819 L5.02133246,72.0590745 Z M4.10567772,80.5480801 L0,80.5480801 L0,64.5979652 L5.81293075,64.5979652 C9.55234657,64.5979652 11.8148999,66.3465704 11.8148999,69.6606498 C11.8148999,73.3823433 9.12110272,75.2490975 5.31670496,75.2490975 L4.09977027,75.2490975 L4.09977027,80.5480801 L4.10567772,80.5480801 Z M18.2244831,64.5979652 L18.2244831,74.8473909 C18.2244831,76.6373482 19.1460453,77.1808336 20.4397768,77.1808336 C21.662619,77.1808336 22.5310141,76.4483098 22.5310141,74.9655399 L22.5310141,64.5979652 L26.5835248,64.5979652 L26.5835248,75.4381359 C26.5835248,78.6163439 24.0433213,80.5480801 20.3452576,80.5480801 C16.2691172,80.5480801 14.1778799,78.8939941 14.1778799,75.0836889 L14.1778799,64.5979652 L18.2244831,64.5979652 Z M33.5720381,72.0590745 L33.5720381,67.8352478 L34.6944536,67.8352478 C36.171316,67.8352478 37.0160814,68.2901214 37.0160814,69.9205776 C37.0160814,71.5746636 36.0295372,72.0649819 34.4758779,72.0649819 L33.5720381,72.0649819 L33.5720381,72.0590745 Z M39.8103052,75.4972104 C39.5740072,74.9241877 39.2018379,74.4693141 38.7824089,74.2566459 C40.2592714,73.3468986 41.1572038,71.8168691 41.1572038,69.6606498 C41.1572038,66.3524778 38.9300952,64.5979652 35.2497539,64.5979652 L29.5372498,64.5979652 L29.5372498,80.5480801 L33.5720381,80.5480801 L33.5720381,75.2490975 L34.6058418,75.2490975 C35.1493272,75.2845422 35.4919593,75.5917296 35.7282573,76.1529373 L37.6304562,80.5362652 L41.9428947,80.5362652 L39.8162127,75.4972104 L39.8103052,75.4972104 Z M44.3058746,64.5979652 L54.7738759,64.5979652 L54.7738759,68.2015097 L48.4410896,68.2015097 L48.4410896,70.6235642 L53.8759436,70.6235642 L53.8759436,74.2152937 L48.4410896,74.2152937 L48.4410896,76.9504431 L54.9392845,76.9504431 L54.9392845,80.5480801 L44.3058746,80.5480801 L44.3058746,64.5979652 Z M58.6905153,77.5234657 C59.434854,78.0255989 61.1480144,78.8939941 63.0620282,78.8939941 C64.6688546,78.8939941 66.4292747,78.3859534 66.4292747,75.9402691 C66.4292747,74.0203479 64.739744,73.4000656 62.8139153,72.8683951 C60.4981949,72.2422054 58.2297342,71.3797178 58.2297342,68.4259928 C58.2297342,65.7676403 60.2973416,64.0072202 63.3101411,64.0072202 C65.4958976,64.0072202 67.3862816,65.0114867 68.5264194,66.1457171 L67.4630784,67.4158188 C66.210699,66.3347555 64.804726,65.6435839 63.2924188,65.6435839 C61.9455202,65.6435839 60.2087299,66.2166065 60.2087299,68.2310469 C60.2087299,70.1214309 61.8450935,70.6826387 63.9304234,71.3029209 C66.1398096,72 68.4082704,72.8388579 68.4082704,75.8634723 C68.4082704,78.8762717 66.3820151,80.5480801 63.0029537,80.5480801 C60.6872333,80.5480801 58.542829,79.6028881 57.8930095,79.0830325 L58.6905153,77.5234657 Z M81.5228093,64.5979652 L81.5228093,66.2284214 L76.7968494,66.2284214 L76.7968494,80.5480801 L74.9360026,80.5480801 L74.9360026,66.2284214 L70.2986544,66.2284214 L70.2986544,64.5979652 L81.5228093,64.5979652 Z M89.3324582,78.9412537 C92.7410568,78.9412537 93.7984903,75.6508041 93.7984903,72.3839842 C93.7984903,69.5484083 92.8828356,65.6376764 89.3088284,65.6376764 C85.8825074,65.6376764 84.6064982,68.9753856 84.6064982,72.2422054 C84.6064982,75.4085986 85.4512635,78.9412537 89.3324582,78.9412537 M89.1434198,80.5480801 C85.1263538,80.5480801 82.7042993,77.789301 82.7042993,72.3130948 C82.7042993,66.1457171 86.1896948,64.0072202 89.3797178,64.0072202 C92.7646866,64.0072202 95.7006892,66.1929767 95.7006892,72.3130948 C95.7006892,77.8070233 93.1604857,80.5480801 89.1434198,80.5480801 M103.008205,73.1342304 L100.574335,73.1342304 L100.574335,66.1634394 L102.701017,66.1634394 C105.442074,66.1634394 107.391533,66.4706268 107.391533,69.63702 C107.391533,72.2008533 105.583853,73.1342304 103.002297,73.1342304 L103.008205,73.1342304 Z M107.574664,75.54447 C107.208402,74.7410568 106.972104,74.3334427 106.464063,74.0853298 C108.248113,73.299639 109.358713,71.7341648 109.358713,69.347555 C109.358713,66.2284214 107.314736,64.5979652 103.912045,64.5979652 L98.6544142,64.5979652 L98.6544142,80.5480801 L100.574335,80.5480801 L100.574335,74.6701674 L103.350837,74.6701674 C103.545783,74.6701674 103.740729,74.6701674 103.929767,74.652445 L103.906137,74.6642599 C104.892681,74.6642599 105.35937,75.3022645 105.772891,76.1647522 L107.828684,80.5362652 L109.878569,80.5362652 L107.574664,75.54447 Z M115.679685,74.0971447 L121.043649,74.0971447 L118.338037,66.2993108 L115.679685,74.0971447 Z M111.650804,80.5480801 L117.262882,64.5979652 L119.507713,64.5979652 L125.237939,80.5480801 L123.247128,80.5480801 L121.498523,75.6330817 L115.224811,75.6330817 L113.511651,80.5480801 L111.650804,80.5480801 Z M137.596324,79.0830325 C136.314408,79.96915 134.465376,80.5480801 132.43912,80.5480801 C128.345258,80.5480801 125.822777,77.8897276 125.822777,72.3130948 C125.828684,66.0984575 129.331802,64.0072202 132.445028,64.0072202 C134.022317,64.0072202 136.048572,64.5093535 137.643584,66.6064982 L136.314408,67.6816541 C135.286511,66.4410896 134.069577,65.6376764 132.415491,65.6376764 C129.473581,65.6376764 127.719068,68.1188054 127.719068,72.1476862 C127.719068,76.4601247 129.213653,78.9885133 132.598622,78.9885133 C133.815556,78.9885133 135.1979,78.5572694 135.7532,78.1496554 L135.7532,73.4000656 L132.226452,73.4000656 L132.226452,71.763702 L137.602232,71.763702 L137.602232,79.0889399 L137.596324,79.0830325 Z M141.188054,64.5979652 L149.88382,64.5979652 L149.88382,66.2284214 L143.031178,66.2284214 L143.031178,71.6042009 L148.926813,71.6042009 L148.926813,73.234657 L143.037086,73.234657 L143.037086,78.9176239 L150.049229,78.9176239 L150.049229,80.5480801 L141.188054,80.5480801 L141.188054,64.5979652 Z M153.316049,65.9566787 C153.611421,65.9566787 153.847719,65.9330489 153.847719,65.6022317 C153.847719,65.3245816 153.581884,65.2891369 153.351493,65.2891369 L152.878897,65.2891369 L152.878897,65.9566787 L153.310141,65.9566787 L153.316049,65.9566787 Z M152.884805,67.2563177 L152.506728,67.2563177 L152.506728,64.9701346 L153.392845,64.9701346 C153.954053,64.9701346 154.237611,65.159173 154.237611,65.6199541 C154.237611,66.0334755 153.977683,66.210699 153.623236,66.2520512 L154.273055,67.2563177 L153.847719,67.2563177 L153.239252,66.275681 L152.884805,66.275681 L152.884805,67.2563177 Z M153.298326,64.3616672 C152.394486,64.3616672 151.679685,65.0705612 151.679685,66.0748277 C151.679685,67.0200197 152.299967,67.7879882 153.304234,67.7879882 C154.213981,67.7879882 154.922875,67.0790942 154.922875,66.0748277 C154.922875,65.0705612 154.213981,64.3616672 153.310141,64.3616672 L153.298326,64.3616672 Z M153.298326,68.1424352 C152.093206,68.1424352 151.230719,67.2563177 151.230719,66.0748277 C151.230719,64.8342632 152.187726,64.0072202 153.298326,64.0072202 C154.408927,64.0072202 155.365934,64.8342632 155.365934,66.0748277 C155.365934,67.3153922 154.408927,68.1424352 153.298326,68.1424352 Z" id="Shape"></path>
            </g>
        </g>
    </g>
</svg>