<?xml version="1.0" encoding="UTF-8"?>
<svg width="177px" height="39px" viewBox="0 0 177 39" version="1.1" xmlns="http://www.w3.org/2000/svg" xmlns:xlink="http://www.w3.org/1999/xlink">
    <title>Solarwinds</title>
    <g  stroke="none" stroke-width="1" fill="none" fill-rule="evenodd">
        <g id="Partner" transform="translate(-737.000000, -717.000000)" fill="#0A2229" fill-rule="nonzero">
            <g id="Solarwinds" transform="translate(737.858403, 717.334224)">
                <path d="M4.5959596,38.0970583 C1.91919192,38.0970583 0.0505050505,37.3264477 0.0505050505,37.3264477 L0.0505050505,35.1109424 C0.0505050505,35.1109424 2.87878788,35.9778793 4.54545455,35.9778793 C6.01010101,35.9778793 7.47474747,35.7370635 7.47474747,34.0031898 C7.47474747,32.7027845 6.46464646,32.4138056 5.2020202,32.0766635 L4.04040404,31.7876845 C2.52525253,31.3542161 0,30.7762582 0,27.8383055 C0,24.5632108 2.77777778,23.7444371 5.65656566,23.7444371 C8.23232323,23.7444371 9.6969697,24.5632108 9.6969697,24.5632108 L9.6969697,26.7305529 C9.6969697,26.7305529 7.77777778,25.863616 5.55555556,25.863616 C3.73737374,25.863616 2.57575758,26.2007581 2.57575758,27.693816 C2.57575758,28.9942213 3.63636364,29.2832003 4.8989899,29.6203424 L6.31313131,30.0056476 C7.97979798,30.4391161 10.1010101,31.3542161 10.1010101,33.9550266 C10.1515152,37.2301214 7.62626263,38.0970583 4.5959596,38.0970583 L4.5959596,38.0970583 Z M19.8989899,38.0970583 C17.0707071,38.0970583 13.1313131,37.2301214 13.1313131,30.9207477 C13.1313131,24.7558634 17.1212121,23.7444371 19.8989899,23.7444371 C22.5252525,23.7444371 26.6666667,24.6113739 26.6666667,30.9207477 C26.6666667,37.3264477 22.5757576,38.0970583 19.8989899,38.0970583 Z M19.8989899,25.6709634 C18.3838384,25.6709634 15.8585859,26.1044318 15.8585859,30.9207477 C15.8585859,35.7852267 18.7878788,36.1223688 19.8989899,36.1223688 C21.2626263,36.1223688 23.9393939,35.592574 23.9393939,30.9207477 C23.8888889,26.0562687 21.3636364,25.6709634 19.8989899,25.6709634 L19.8989899,25.6709634 Z M30.2020202,37.8562425 L30.2020202,19.457916 L32.9292929,19.457916 L32.9292929,37.8562425 L30.2020202,37.8562425 Z M46.4646465,37.8562425 L46.2121212,36.0742056 C46.2121212,36.0742056 44.5454545,38.1452214 41.4646465,38.1452214 C39.2424242,38.1452214 36.8181818,37.3746109 36.8181818,33.9068635 C36.8181818,30.0538108 40.6060606,29.3313634 42.9292929,29.3313634 L46.1111111,29.3313634 L46.1111111,28.1272845 C46.1111111,26.3452476 45,25.9117792 43.0808081,25.9117792 C40.7575758,25.9117792 38.030303,26.8750424 38.030303,26.8750424 L38.030303,24.7558634 C38.030303,24.7558634 40.5050505,23.7926002 43.4848485,23.7926002 C46.6666667,23.7926002 48.8383838,24.9003529 48.8383838,28.5607529 L48.8383838,37.9044056 L46.4646465,37.9044056 L46.4646465,37.8562425 Z M46.1111111,30.8725845 L43.4848485,30.9207477 C41.010101,30.9689108 39.4949495,31.5950319 39.4949495,33.8105372 C39.4949495,35.592574 40.6565657,36.1223688 42.1212121,36.1223688 C44.1414141,36.1223688 46.1111111,34.3403319 46.1111111,34.3403319 L46.1111111,30.8725845 Z M58.7373737,26.1044318 C57.1212121,26.1044318 55.8585859,27.7901424 55.8585859,27.7901424 L55.8585859,37.8562425 L53.1313131,37.8562425 L53.1313131,23.9852529 L55.3030303,23.9852529 L55.6565657,25.9117792 C55.6565657,25.9117792 56.5656566,23.7444371 59.040404,23.7444371 C60.4545455,23.7444371 61.010101,24.1297423 61.010101,24.1297423 L61.010101,26.4897371 C61.010101,26.4897371 60.1515152,26.1044318 58.7373737,26.1044318 Z M82.6262626,37.8562425 L78.8383838,37.8562425 L76.5656566,30.4872792 C75.959596,28.5125897 75.1010101,25.2856581 75.1010101,25.2856581 C75.1010101,25.2856581 74.1919192,28.5607529 73.5858586,30.4391161 L71.3636364,37.8562425 L67.5757576,37.8562425 L63.7373737,23.9852529 L66.8686869,23.9852529 L68.6363636,31.932174 C69.040404,33.762374 69.4949495,36.6521635 69.4949495,36.6521635 C69.4949495,36.6521635 70.0505051,33.762374 70.6565657,31.932174 L73.1313131,23.9852529 L77.0707071,23.9852529 L79.5454545,31.932174 C80.1010101,33.7142108 80.7070707,36.6521635 80.7070707,36.6521635 C80.7070707,36.6521635 81.1616162,34.0031898 81.6161616,31.932174 L83.3838384,23.9852529 L86.4646465,23.9852529 L82.6262626,37.8562425 Z M89.8989899,37.8562425 L89.8989899,23.9370897 L92.6262626,23.9370897 L92.6262626,37.8562425 L89.8989899,37.8562425 Z M107.070707,37.8562425 L107.070707,28.3681003 C107.070707,26.6342266 106.313131,26.0081055 104.444444,26.0081055 C102.020202,26.0081055 99.6464646,27.7419792 99.6464646,27.7419792 L99.6464646,37.8562425 L96.9191919,37.8562425 L96.9191919,23.9852529 L99.040404,23.9852529 L99.5959596,25.9599423 C99.5959596,25.9599423 102.020202,23.7444371 105.10101,23.7444371 C107.777778,23.7444371 109.79798,24.8521897 109.79798,28.4162634 L109.79798,37.8562425 L107.070707,37.8562425 Z M124.040404,37.8562425 L123.737374,36.1223688 C123.737374,36.1223688 122.222222,38.1452214 119.040404,38.1452214 C116.767677,38.1452214 113.030303,37.1819582 113.030303,30.9689108 C113.030303,24.6595371 117.676768,23.7926002 119.59596,23.7926002 C122.222222,23.7926002 123.434343,25.1893318 123.434343,25.1893318 L123.434343,19.457916 L126.161616,19.457916 L126.161616,37.8562425 L124.040404,37.8562425 Z M123.434343,27.2121845 C123.434343,27.2121845 121.919192,25.8154529 119.848485,25.8154529 C117.828283,25.8154529 115.757576,26.5860634 115.757576,30.9207477 C115.757576,35.4962477 117.878788,36.0260424 119.59596,36.0260424 C121.565657,36.0260424 123.434343,34.4366582 123.434343,34.4366582 L123.434343,27.2121845 Z M134.59596,38.0970583 C131.919192,38.0970583 130.050505,37.3264477 130.050505,37.3264477 L130.050505,35.1109424 C130.050505,35.1109424 132.878788,35.9778793 134.545455,35.9778793 C136.010101,35.9778793 137.474747,35.7370635 137.474747,34.0031898 C137.474747,32.7027845 136.464646,32.4138056 135.20202,32.0766635 L134.040404,31.7876845 C132.525253,31.3542161 130,30.7762582 130,27.8383055 C130,24.5632108 132.777778,23.7444371 135.656566,23.7444371 C138.232323,23.7444371 139.69697,24.5632108 139.69697,24.5632108 L139.69697,26.7305529 C139.69697,26.7305529 137.777778,25.863616 135.555556,25.863616 C133.737374,25.863616 132.575758,26.2007581 132.575758,27.693816 C132.575758,28.9942213 133.636364,29.2832003 134.89899,29.6203424 L136.313131,30.0056476 C137.979798,30.4391161 140.10101,31.3542161 140.10101,33.9550266 C140.151515,37.2301214 137.676768,38.0970583 134.59596,38.0970583 L134.59596,38.0970583 Z" id="Shape"></path>
                <path d="M152.929293,15.5567001 C153.080808,15.508537 153.181818,15.508537 153.282828,15.4603738 C156.060606,14.6897633 158.737374,13.678337 161.464646,12.6187475 C164.090909,11.559158 166.666667,10.3069159 168.989899,8.52487903 C171.313131,6.69467901 173.181818,4.33468425 174.242424,1.44489475 C174.393939,1.05958948 174.69697,0.433468425 174.69697,0 C171.060606,4.76815268 156.565657,5.24978426 156.565657,5.24978426 L160,2.26366844 C146.262626,2.3118316 136.666667,7.85059481 132.272727,10.8367106 C137.878788,11.4146685 142.979798,13.678337 146.969697,17.0979212 C148.939394,16.5199633 150.959596,16.0864949 152.929293,15.5567001 Z M175.606061,15.0750686 C175.606061,15.0750686 162.272727,14.1118054 148.383838,18.3501633 C150.20202,20.1803633 151.767677,22.2995423 152.979798,24.5632108 C160.252525,20.7583212 170.40404,15.7975159 175.606061,15.0750686 L175.606061,15.0750686 Z M153.888889,26.5860634 C154.747475,28.6570792 155.30303,30.8725845 155.555556,33.1844161 L168.282828,20.7101581 L153.888889,26.5860634 Z" id="Shape"></path>
            </g>
        </g>
    </g>
</svg>