<?xml version="1.0" encoding="UTF-8"?>
<svg width="168px" height="51px" viewBox="0 0 168 51" version="1.1" xmlns="http://www.w3.org/2000/svg" xmlns:xlink="http://www.w3.org/1999/xlink">
    <title>Splunk</title>
    <g  stroke="none" stroke-width="1" fill="none" fill-rule="evenodd">
        <g id="Partner" transform="translate(-1016.000000, -1501.000000)" fill="#000000" fill-rule="nonzero">
            <g id="Splunk" transform="translate(1016.316385, 1501.519702)">
                <path d="M49.611688,18.5821697 L49.611688,37.1106337 L56.5934281,37.1106337 L56.4860167,18.6895811 L56.3248996,0.322234157 L52.9951467,0.161117078 L49.611688,0 L49.611688,18.5821697 Z M117.817918,18.5821697 L117.817918,37.1106337 L124.745952,37.1106337 L124.907069,30.9344791 L125.068186,24.8120301 L129.364642,30.773362 C131.727692,34.0494092 133.822214,37.0032223 134.037037,37.2717508 C134.359271,37.8088077 138.977961,36.4124597 140.052075,35.4994629 C140.266897,35.2309345 138.279787,32.3308271 135.540796,29.0547798 L130.653578,22.9860365 L132.425866,21.0526316 C133.392569,19.9785177 135.325974,17.8839957 136.776027,16.433942 L139.300195,13.6949517 L136.668616,12.5671321 L133.983331,11.4393126 L129.525759,16.6487648 L125.068186,21.8045113 L124.799658,11.0633727 L124.531129,0.322234157 L121.201377,0.161117078 L117.817918,0 L117.817918,18.5821697 Z M147.46346,5.80021482 C145.261527,6.65950591 145.744878,10.2577873 148.054223,10.2577873 C150.417273,10.2577873 151.383976,7.94844253 149.719099,6.28356606 C148.859808,5.37056928 148.59128,5.31686359 147.46346,5.80021482 L147.46346,5.80021482 Z M149.396865,6.60580021 C150.202451,7.41138561 150.256156,8.64661654 149.450571,8.64661654 C149.128337,8.64661654 148.96722,8.27067669 149.182042,7.84103115 C149.34316,7.41138561 149.074631,6.82062299 148.537574,6.55209452 C148.054223,6.22986037 147.893106,5.9613319 148.21534,5.9613319 C148.483868,5.9613319 149.020925,6.22986037 149.396865,6.60580021 Z M147.8394,8.70032223 C148.161634,8.16326531 148.376457,8.216971 148.644986,8.91514501 C148.859808,9.55961332 148.698691,9.77443609 148.000517,9.61331901 C147.46346,9.50590763 147.08752,8.91514501 147.033815,8.10955961 L146.980109,6.76691729 L147.194932,8.05585392 C147.356049,8.9688507 147.570872,9.12996778 147.8394,8.70032223 L147.8394,8.70032223 Z M5.89525407,11.8689581 C3.69332067,12.5671321 1.86732711,14.4468314 1.27656449,16.7561762 C0.417273406,19.8711063 1.54509295,21.9119227 6.16378254,25.6176155 C9.3861241,28.1954887 10.1917095,29.1621912 10.2991209,30.5048335 C10.621355,33.8345865 6.48601669,34.8012889 3.20996943,32.2234157 L1.81362142,31.1493018 L0.793213256,32.867884 C0.202450635,33.8345865 -0.119783522,34.8549946 0.0413335563,35.1235231 C0.739507563,36.3050483 4.9285516,37.6476907 7.88236471,37.6476907 C13.8436966,37.6476907 17.3882723,34.8012889 17.3882723,30.0214823 C17.3882723,27.5510204 17.2271553,27.1213749 15.0789275,25.0805585 C13.8436966,23.8990333 11.6417632,21.9656284 10.2454152,20.8378088 C7.45271916,18.5821697 7.07677931,17.132116 9.01018425,15.8968851 C10.2991209,15.037594 12.6621714,15.1987111 14.0585194,16.3265306 C14.4344592,16.5950591 14.8103991,16.7561762 14.9178105,16.6487648 C15.6696902,15.6283566 16.8512154,13.6949517 16.8512154,13.4264232 C16.8512154,13.2116004 15.7233959,12.6745435 14.3270478,12.1911923 C11.6417632,11.2781955 8.36571594,11.1707841 5.89525407,11.8689581 L5.89525407,11.8689581 Z M31.3517525,12.1911923 C30.3313443,12.6208378 28.9349963,13.5338346 28.290528,14.1245972 L27.055297,15.2524168 L27.055297,11.8689581 L20.6106139,11.8689581 L20.6106139,50 L27.055297,50 L27.055297,34.264232 L28.290528,35.3383459 C30.2239329,37.1643394 31.6739866,37.6476907 34.6815054,37.6476907 C41.3410113,37.593985 45.8522895,33.0827068 46.7115806,25.5639098 C47.1412261,22.0730397 45.8522895,17.4543502 43.8651789,15.037594 C41.0187772,11.6541353 35.4870908,10.4189044 31.3517525,12.1911923 L31.3517525,12.1911923 Z M36.668616,16.4876477 C40.9650715,19.4951665 40.0520747,31.0955961 35.4333851,33.2975295 C34.0370371,33.9419979 33.4999802,33.9419979 31.6739866,33.2975295 C27.8071767,31.9548872 25.9811832,26.1546724 27.592354,20.3544576 C28.7201735,16.3802363 33.5536859,14.2857143 36.668616,16.4876477 L36.668616,16.4876477 Z M100.095039,12.1374866 C99.0746311,12.6208378 97.6782831,13.5338346 97.0338148,14.1245972 L95.7985838,15.2524168 L95.7985838,11.8152524 L92.4688309,11.9763695 L89.0853722,12.1374866 L88.9242551,24.5972073 L88.8168438,37.1106337 L95.7985838,37.1106337 L95.7985838,29.0547798 C95.7985838,18.1525242 96.6578749,16.1654135 101.437682,16.1654135 C105.895254,16.1654135 106.539722,17.7765843 106.539722,28.839957 L106.539722,37.1106337 L113.628874,37.1106337 L113.414051,27.2824919 C113.199228,16.5413534 112.823288,15.1450054 109.654653,12.7819549 C107.667542,11.3319012 102.672913,11.009667 100.095039,12.1374866 Z M60.460238,21.9119227 C60.5676493,30.3974221 60.7824721,32.2771214 61.5880575,33.7808808 C63.0381112,36.4124597 65.4011617,37.6476907 69.0531488,37.6476907 C72.5440188,37.6476907 74.5848352,37.0032223 76.357123,35.3920516 L77.5386483,34.264232 L77.5386483,35.66058 C77.5386483,37.1106337 77.592354,37.1106337 81.0295183,37.1106337 L84.5203883,37.1106337 L84.5203883,11.8689581 L77.5386483,11.8689581 L77.5386483,20.461869 C77.5386483,31.7400644 77.055297,32.8141783 71.9532562,32.8141783 C67.9253293,32.8141783 67.6568008,32.1160043 67.441978,21.2137487 L67.2808609,11.8689581 L60.2454152,11.8689581 L60.460238,21.9119227 Z M146.281935,14.6616541 L146.335641,16.9709989 L153.961849,20.622986 L161.588058,24.3286788 L153.961849,28.141783 L146.281935,32.0085929 L146.281935,36.5735768 L156.486017,31.471536 L166.690098,26.3694952 L166.690098,22.3415682 L156.754545,17.3469388 C151.276564,14.6616541 146.711581,12.406015 146.550464,12.406015 C146.389346,12.406015 146.281935,13.4264232 146.281935,14.6616541 Z" id="Shape"></path>
            </g>
        </g>
    </g>
</svg>