<?xml version="1.0" encoding="UTF-8"?>
<svg width="168px" height="31px" viewBox="0 0 168 31" version="1.1" xmlns="http://www.w3.org/2000/svg" xmlns:xlink="http://www.w3.org/1999/xlink">
    <title>Veeam</title>
    <g  stroke="none" stroke-width="1" fill="none" fill-rule="evenodd">
        <g id="Partner" transform="translate(-476.000000, -1249.000000)" fill="#1D1D1B" fill-rule="nonzero">
            <g id="Veeam" transform="translate(476.320965, 1249.395207)">
                <path d="M30.5349068,0.596816976 C29.1821217,-0.119363395 27.5508219,0.437665782 26.8346416,1.83023873 L16.9672676,23.1167109 L16.9672676,23.1167109 C16.7285408,23.5543767 16.5296018,23.872679 16.0123604,23.872679 C15.495119,23.872679 15.29618,23.5543767 15.0574532,23.1167109 L15.0574532,23.1167109 L5.19007923,1.87002653 C4.51368666,0.437665782 2.84259913,-0.119363395 1.48981398,0.636604775 C0.137028835,1.35278515 -0.380212545,3.10344828 0.296180028,4.53580902 L9.96461504,24.1909814 L11.0786734,26.4190981 C12.0335806,28.3687003 13.9433949,29.602122 16.0123604,29.602122 C18.1211137,29.602122 19.9911402,28.3687003 20.9460474,26.4190981 L22.0601058,24.1909814 L31.688753,4.49602122 C32.4049333,3.06366048 31.887692,1.35278515 30.5349068,0.596816976 Z" ></path>
                <path d="M161.954005,0.278514589 C160.083978,0.278514589 158.452679,1.43236074 157.696711,3.02387268 C155.190079,8.15649867 147.789549,23.3952255 147.789549,23.4350133 C147.749761,23.5145889 147.59061,23.872679 147.272307,23.872679 C146.993793,23.872679 146.794854,23.5543767 146.755066,23.4350133 L146.755066,23.4350133 C144.32801,18.3819629 139.473899,8.39522546 136.967268,3.22281167 C135.972573,1.23342175 134.341273,0.278514589 132.59061,0.278514589 L132.59061,0.278514589 C129.885039,0.278514589 127.656923,2.5862069 127.656923,5.68965517 L127.656923,26.6578249 C127.656923,27.9310345 128.373103,29.1246684 129.487161,29.4827586 C131.3174,30.0795756 132.869124,28.4880637 132.869124,26.6180371 L132.471246,6.20689655 C132.471246,6.00795756 132.709973,5.92838196 132.829337,6.08753316 L142.855862,26.4588859 C143.810769,28.4084881 145.402281,29.5623342 147.192732,29.5623342 C148.983183,29.5623342 150.614482,28.4084881 151.529602,26.4588859 L161.595915,6.04774536 C161.67549,5.84880637 161.954005,5.92838196 161.954005,6.16710875 L161.556127,26.6976127 C161.556127,28.3289125 162.789549,29.6419098 164.261697,29.5623342 C165.694058,29.5225464 166.808116,28.1299735 166.808116,26.5782493 C166.808116,26.5782493 166.808116,10.9018568 166.808116,5.68965517 C166.887692,2.5464191 164.659575,0.318302387 161.954005,0.278514589 Z" ></path>
                <path d="M124.235172,25.3448276 L113.134376,3.42175066 C112.179469,1.47214854 110.269655,0.278514589 108.200689,0.278514589 C106.887692,0.278514589 105.65427,0.75596817 104.699363,1.59151194 C104.102546,2.10875332 103.625092,2.70557029 103.267002,3.46153846 L92.2059944,25.265252 C92.2059944,25.3050398 92.1662066,25.3050398 92.1662066,25.3448276 L92.1662066,25.3846154 C91.6489652,26.4190981 91.7683286,27.5729443 92.3651455,28.4482759 C92.3651455,28.4880637 92.4049333,28.4880637 92.4049333,28.5278515 C92.4049333,28.5676393 92.4447211,28.5676393 92.4447211,28.6074271 C92.6436601,28.8461538 92.8823869,29.0848806 93.1609015,29.2440318 C94.1158087,29.801061 95.1900792,29.7214854 96.025623,29.1246684 C96.025623,29.1246684 96.0654108,29.1246684 96.0654108,29.0848806 C96.1449864,29.0450928 96.1847742,29.005305 96.224562,28.9655172 C96.2643498,28.9257294 96.3041376,28.8859416 96.3439254,28.8461538 L96.3837132,28.806366 C96.5826522,28.6074271 96.7418034,28.3687003 96.9009546,28.0901857 L97.2988325,27.2148541 L99.6065249,22.3607427 C99.6463127,22.2413793 99.8054638,22.1618037 99.9248272,22.1618037 L99.9248272,22.1618037 L110.229867,22.1618037 L110.229867,22.1618037 C111.582652,22.1618037 112.696711,21.0079576 112.696711,19.535809 C112.696711,18.1034483 111.582652,16.9098143 110.229867,16.9098143 L104.102546,16.9098143 L104.102546,16.9098143 L102.59061,16.9098143 C102.431459,16.9098143 102.312095,16.7506631 102.391671,16.5915119 L102.9487,15.397878 L107.126419,7.00265252 L107.126419,6.96286472 C107.126419,6.96286472 107.126419,6.92307692 107.166207,6.92307692 L107.166207,6.92307692 C107.245782,6.76392573 107.444721,6.16710875 107.842599,6.04774536 C108.081326,5.96816976 108.280265,5.96816976 108.439416,6.04774536 C108.877082,6.16710875 109.036233,6.68435013 109.235172,7.08222812 L109.235172,7.08222812 L119.341273,28.0901857 C119.818726,29.0450928 120.773634,29.602122 121.768329,29.602122 C122.086631,29.602122 122.404933,29.5623342 122.683448,29.4429708 C122.683448,29.4429708 122.723236,29.4429708 122.723236,29.403183 C122.802811,29.3633952 122.882387,29.3236074 122.961963,29.2838196 C123.00175,29.2838196 123.00175,29.2440318 123.041538,29.2440318 C123.041538,29.2440318 123.081326,29.2440318 123.081326,29.204244 C123.121114,29.204244 123.121114,29.1644562 123.160902,29.1644562 C123.200689,29.1644562 123.240477,29.1246684 123.240477,29.0848806 C123.280265,29.0848806 123.280265,29.0450928 123.320053,29.0450928 C123.359841,29.005305 123.399628,28.9655172 123.439416,28.9655172 C123.479204,28.9257294 123.518992,28.8859416 123.558779,28.8461538 L123.598567,28.806366 C124.593262,27.9708223 124.831989,26.5384615 124.235172,25.3448276 Z" ></path>
                <path d="M38.0150129,18.1034483 L56.7152782,18.1034483 C57.0733684,18.1034483 59.9778776,17.8647215 59.9778776,14.602122 C59.9778776,6.56498674 53.7709811,0 46.091936,0 C38.4128909,0 32.1662066,6.56498674 32.1662066,14.602122 C32.1662066,14.801061 32.1662066,15.2785146 32.1662066,15.3580902 C32.1662066,24.5490716 38.0548007,29.5225464 45.892997,29.9602122 C46.2510872,30 46.6489652,30 47.0070554,30 C50.030928,30 52.5375593,29.204244 55.3227052,27.4933687 C55.6012198,27.3342175 56.7152782,26.5782493 57.8293365,25.1458886 C58.7444559,23.9920424 58.7842437,22.2811671 57.8293365,21.3660477 C56.4367636,20.0530504 54.964615,20.7692308 53.6914055,21.8832891 C51.6622278,23.5941645 50.1105036,24.9469496 46.0521482,24.9469496 C42.2325196,24.9469496 38.6516177,22.7586207 37.7762861,18.4217507 C37.7762861,18.2625995 37.8558617,18.1034483 38.0150129,18.1034483 Z M37.7762861,12.7320955 C38.2935275,8.51458886 41.1980368,4.77453581 46.0521482,4.77453581 C50.9062596,4.77453581 53.9699201,8.43501326 54.4473737,12.7320955 C54.4473737,12.8912467 54.3677981,13.0503979 54.2086469,13.0503979 L38.0150129,13.0503979 C37.8558617,13.0106101 37.7762861,12.8912467 37.7762861,12.7320955 Z" id="Shape"></path>
                <path d="M69.0494957,18.1034483 L87.7497609,18.1034483 C88.1078511,18.1034483 91.0123604,17.8647215 91.0123604,14.602122 C90.9725726,6.56498674 84.765676,0 77.1264188,0 C69.4871615,0 63.2404771,6.56498674 63.2404771,14.602122 C63.2404771,14.801061 63.2404771,15.2785146 63.2404771,15.3580902 C63.2404771,24.5490716 69.1290713,29.5225464 76.9672676,29.9602122 C77.3253577,30 77.7232357,30 78.0813259,30 C81.1051986,30 83.6118299,29.204244 86.3969758,27.4933687 C86.6754904,27.3342175 87.7895487,26.5782493 88.9036071,25.1458886 C89.8187264,23.9920424 89.8585142,22.2811671 88.9036071,21.3660477 C87.5110341,20.0530504 86.0388856,20.7692308 84.765676,21.8832891 C82.7364983,23.5941645 81.1847742,24.9469496 77.1264188,24.9469496 C73.3067901,24.9469496 69.7258883,22.7586207 68.8505567,18.4217507 C68.8107689,18.2625995 68.9301323,18.1034483 69.0494957,18.1034483 Z M68.8505567,12.7320955 C69.3677981,8.51458886 72.2723073,4.77453581 77.1264188,4.77453581 C81.9805302,4.77453581 85.0441906,8.43501326 85.5216442,12.7320955 C85.5216442,12.8912467 85.4420686,13.0503979 85.2829174,13.0503979 L69.0892835,13.0503979 C68.9301323,13.0106101 68.8107689,12.8912467 68.8505567,12.7320955 Z" id="Shape"></path>
            </g>
        </g>
    </g>
</svg>