<?xml version="1.0" encoding="UTF-8"?>
<svg width="172px" height="27px" viewBox="0 0 172 27" version="1.1" xmlns="http://www.w3.org/2000/svg" xmlns:xlink="http://www.w3.org/1999/xlink">
    <title>Vmware</title>
    <g  stroke="none" stroke-width="1" fill="none" fill-rule="evenodd">
        <g id="Partner" transform="translate(-1014.000000, -1775.000000)" fill="#0A2229" fill-rule="nonzero">
            <g id="Vmware" transform="translate(1100.249247, 1788.905124) scale(1, -1) translate(-1100.249247, -1788.905124) translate(1014.893206, 1775.905124)">
                <path d="M73.3354964,1.90296614 L65.8612642,22.7161606 C65.7657178,23.0039374 65.6235356,23.3838481 65.6235356,23.7171231 C65.6235356,24.6191268 66.385632,25.4756322 67.4775911,25.4756322 C68.4307803,25.4756322 69.051832,24.8568554 69.3361964,23.9548517 L75.5296516,6.02056173 L81.7674677,24.0048998 C82.051832,24.8579928 82.6239731,25.4767696 83.5714751,25.4767696 L83.7648428,25.4767696 C84.7669427,25.4767696 85.3857195,24.8579928 85.6700839,24.0048998 L91.8567144,6.02056173 L98.1479909,24.0492607 C98.3857195,24.8147694 98.9055375,25.4767696 99.9087749,25.4767696 C100.955236,25.4767696 101.71847,24.6714498 101.71847,23.7648963 C101.71847,23.4327588 101.574012,23.0539855 101.480741,22.7639339 L93.9587355,1.90296614 C93.5742749,0.813282002 92.8155909,0.241140957 91.9568106,0.241140957 L91.8146284,0.241140957 C90.8614392,0.241140957 90.1459785,0.813282002 89.8104286,1.90296614 L83.6715713,19.5892904 L77.4792535,1.90296614 C77.1459785,0.813282002 76.4293804,0.241140957 75.4796035,0.241140957 L75.3795072,0.241140957 C74.4775036,0.241140957 73.7188195,0.813282002 73.3354964,1.90296614 M127.818566,23.6613877 C127.818566,24.6657625 128.628435,25.5234054 129.62826,25.5234054 C130.682683,25.5234054 131.490278,24.7123983 131.490278,23.6613877 L131.490278,19.4380086 C133.30111,23.5396798 137.317472,25.4756322 139.979122,25.4756322 C141.081318,25.4756322 141.796779,24.6657625 141.796779,23.6170269 C141.796779,22.6137895 141.132504,21.9017412 140.170215,21.7584216 C135.398582,21.1862805 131.491416,17.6067022 131.491416,10.4975938 L131.491416,2.13386998 C131.491416,1.13177006 130.729319,0.275264678 129.680583,0.275264678 C128.63071,0.275264678 127.819703,1.08968414 127.819703,2.13386998 L127.818566,23.6613877 Z M153.581975,0.0432233791 C146.942636,0.0432233791 141.521514,5.19249278 141.521514,12.7440721 L141.521514,12.8418934 C141.521514,19.8747922 146.43078,25.5404672 153.11448,25.5404672 C160.261124,25.5404672 164.330947,19.6438884 164.330947,13.1728935 C164.330947,12.1787558 163.529039,11.467845 162.646372,11.467845 L145.172753,11.467845 C145.682333,6.18435559 149.372245,3.21104209 153.677521,3.21104209 C156.670171,3.21104209 158.859777,4.39172281 160.63876,6.04444833 C160.919712,6.27762709 161.246162,6.46644501 161.669296,6.46644501 C162.554238,6.46644501 163.258324,5.75780908 163.258324,4.90471607 C163.258324,4.48158194 163.071781,4.05503544 162.693008,3.72858518 C160.405581,1.51168081 157.691608,0.0432233791 153.581975,0.0432233791 M160.732032,14.1602065 C160.356671,18.6019774 157.831515,22.4693324 153.016658,22.4693324 C148.810341,22.4693324 145.632285,18.9307026 145.170478,14.1602065 L160.732032,14.1602065 Z M101.783305,7.68693674 L101.783305,7.78248316 C101.783305,12.9647388 106.064694,15.7264853 112.292273,15.7264853 C115.432793,15.7264853 117.666759,15.2988013 119.858639,14.6766121 L119.858639,15.5365299 C119.858639,19.9555517 117.140116,22.2418409 112.532277,22.2418409 C110.058307,22.2418409 108.618286,21.9267652 106.807454,21.120308 C106.573137,21.0247616 106.333134,20.9758509 106.147728,20.9758509 C105.291223,20.9758509 104.526852,21.6913116 104.526852,22.545542 C104.526852,23.3042261 104.857852,23.773996 105.527814,24.0708723 C107.949461,25.1218829 109.77508,25.4710823 112.912187,25.4710823 C116.381432,25.4710823 119.045357,24.5702161 120.849365,22.7616589 C122.516877,21.0975588 123.373382,18.720273 123.373382,15.5797533 L123.373382,2.01216204 C123.373382,0.969113658 122.612424,0.20587978 121.608049,0.20587978 C120.566138,0.20587978 119.859777,0.967976201 119.859777,1.91775308 L119.859777,4.26319013 C118.144491,2.02353662 115.288336,0.029573891 110.96941,0.029573891 C106.401381,0.032986263 101.783305,2.64572579 101.783305,7.68693674 M119.905275,9.58990288 L119.905275,11.9683262 C118.094443,12.4904191 115.665972,13.0147869 112.672184,13.0147869 C108.065482,13.0147869 105.49369,11.0151369 105.49369,7.92694024 L105.49369,7.83253128 C105.49369,4.74205967 108.344159,2.93463995 111.676909,2.93463995 C116.192614,2.93463995 119.905275,5.69411147 119.905275,9.58990288 M6.71461968,23.9321025 C5.90929988,25.6974363 3.91874953,26.4970689 2.06014422,25.6712748 C0.199264008,24.8443433 -0.485485314,22.7809957 0.355095664,21.0145245 L8.15919051,4.05162306 C9.38650699,1.39338525 10.679796,0 13.10713,0 C15.7005327,0 16.8311653,1.5173681 18.0573443,4.05162306 C18.0573443,4.05162306 24.8638891,18.8726923 24.9321365,19.0273865 C25.0015214,19.1843556 25.2199132,19.6632251 25.9126248,19.6586753 C26.4984153,19.6552629 26.9909343,19.187768 26.9909343,18.5598915 L26.9909343,4.06641001 C26.9909343,1.83244378 28.2296254,0 30.613736,0 C32.9955716,0 34.2831734,1.83244378 34.2831734,4.06641001 L34.2831734,15.9266777 C34.2831734,18.2141045 35.9222494,19.6984863 38.1562156,19.6984863 C40.3901818,19.6984863 41.8768386,18.160644 41.8768386,15.9266777 L41.8768386,4.06641001 C41.8768386,1.83244378 43.1200795,0 45.4996402,0 C47.8814759,0 49.1759024,1.83244378 49.1759024,4.06641001 L49.1759024,15.9266777 C49.1759024,18.2141045 50.8081537,19.6984863 53.0432574,19.6984863 C55.2738112,19.6984863 56.7661552,18.160644 56.7661552,15.9266777 L56.7661552,4.06641001 C56.7661552,1.83244378 58.0082587,0 60.3900944,0 C62.7707926,0 64.0629441,1.83244378 64.0629441,4.06641001 L64.0629441,17.5646163 C64.0629441,22.5250678 60.0738812,26 55.2738112,26 C50.4794285,26 47.4765411,22.6831744 47.4765411,22.6831744 C45.8806885,24.7522093 43.6808459,25.9954502 39.9579481,25.9954502 C36.0291704,25.9954502 32.5906368,22.6831744 32.5906368,22.6831744 C30.9936467,24.7522093 28.2751237,25.9954502 26.0240956,25.9954502 C22.5423386,25.9954502 19.7771798,24.4644326 18.0903306,20.6073147 L13.10713,8.86079272 L6.71461968,23.9321025 Z M164.627823,22.4625077 L164.627823,22.4829819 C164.627823,24.1425322 165.974572,25.5404672 167.667109,25.5404672 C169.383532,25.5404672 170.712082,24.1573191 170.712082,22.4954939 L170.712082,22.4829819 C170.712082,20.8177443 169.368745,19.4198093 167.667109,19.4198093 C165.950686,19.4198093 164.627823,20.7984076 164.627823,22.4625077 M170.127429,22.4829819 L170.127429,22.4909441 C170.127429,23.8558929 169.073006,24.9751509 167.667109,24.9751509 C166.273724,24.9751509 165.203376,23.8365561 165.203376,22.4829819 L165.203376,22.4670575 C165.203376,21.105521 166.261212,19.986263 167.667109,19.986263 C169.055944,19.986263 170.127429,21.1225829 170.127429,22.4829819" id="Shape"></path>
                <path d="M166.50349,23.6864118 C166.50349,23.8672675 166.647947,24.0117246 166.831078,24.0117246 L167.84569,24.0117246 C168.227875,24.0117246 168.522477,23.9036661 168.705608,23.7102984 C168.872814,23.547642 168.96381,23.3121883 168.96381,23.0391985 L168.96381,23.0300989 C168.96381,22.5660163 168.729494,22.2827894 168.375745,22.1337825 L168.823903,21.587803 C168.886463,21.505906 168.928549,21.438796 168.928549,21.3386998 C168.928549,21.1589815 168.77613,21.040686 168.621436,21.040686 C168.476979,21.040686 168.379157,21.1146207 168.302948,21.2078922 L167.671659,22.0063873 L167.154116,22.0063873 L167.154116,21.3648613 C167.154116,21.1840056 167.014208,21.0418234 166.832215,21.0418234 C166.649085,21.0418234 166.504628,21.1851431 166.504628,21.3648613 L166.504628,23.6864118 L166.50349,23.6864118 Z M167.809291,22.5808032 C168.125504,22.5808032 168.299535,22.7457345 168.299535,22.9971126 L168.299535,23.0073497 C168.299535,23.2814769 168.112992,23.4293464 167.797917,23.4293464 L167.150703,23.4293464 L167.150703,22.5819407 L167.809291,22.5819407 L167.809291,22.5808032 Z" id="Shape"></path>
            </g>
        </g>
    </g>
</svg>